<?xml version="1.0" encoding="UTF-8" standalone="no"?>
<!DOCTYPE svg PUBLIC "-//W3C//DTD SVG 1.1//EN" "http://www.w3.org/Graphics/SVG/1.1/DTD/svg11.dtd">
<svg width="100%" height="100%" viewBox="0 0 6000 3000" version="1.1" xmlns="http://www.w3.org/2000/svg" xmlns:xlink="http://www.w3.org/1999/xlink" xml:space="preserve" xmlns:serif="http://www.serif.com/" style="fill-rule:evenodd;clip-rule:evenodd;stroke-linejoin:round;stroke-miterlimit:2;">
    <path d="M6000,30C6000,13.443 5986.56,0 5970,0L30,0C13.443,0 0,13.443 0,30L0,2970C0,2986.56 13.443,3000 30,3000L5970,3000C5986.56,3000 6000,2986.56 6000,2970L6000,30ZM5500,2467C5518.21,2467 5533,2481.79 5533,2500C5533,2518.21 5518.21,2533 5500,2533C5481.79,2533 5467,2518.21 5467,2500C5467,2481.79 5481.79,2467 5500,2467ZM500,2467C518.213,2467 533,2481.79 533,2500C533,2518.21 518.213,2533 500,2533C481.787,2533 467,2518.21 467,2500C467,2481.79 481.787,2467 500,2467ZM2000,1967C2018.21,1967 2033,1981.79 2033,2000C2033,2018.21 2018.21,2033 2000,2033C1981.79,2033 1967,2018.21 1967,2000C1967,1981.79 1981.79,1967 2000,1967ZM4000,1967C4018.21,1967 4033,1981.79 4033,2000C4033,2018.21 4018.21,2033 4000,2033C3981.79,2033 3967,2018.21 3967,2000C3967,1981.79 3981.79,1967 4000,1967ZM1500,1635C1535.87,1635 1565,1664.13 1565,1700C1565,1735.87 1535.87,1765 1500,1765C1464.13,1765 1435,1735.87 1435,1700C1435,1664.13 1464.13,1635 1500,1635ZM4500,1635C4535.87,1635 4565,1664.13 4565,1700C4565,1735.87 4535.87,1765 4500,1765C4464.13,1765 4435,1735.87 4435,1700C4435,1664.13 4464.13,1635 4500,1635ZM3000,900C3206.97,900 3375,1068.03 3375,1275C3375,1481.97 3206.97,1650 3000,1650C2793.03,1650 2625,1481.97 2625,1275C2625,1068.03 2793.03,900 3000,900ZM1400,900C1537.98,900 1650,1012.02 1650,1150C1650,1287.98 1537.98,1400 1400,1400C1262.02,1400 1150,1287.98 1150,1150C1150,1012.02 1262.02,900 1400,900ZM650,900C787.979,900 900,1012.02 900,1150C900,1287.98 787.979,1400 650,1400C512.021,1400 400,1287.98 400,1150C400,1012.02 512.021,900 650,900ZM2000,967C2018.21,967 2033,981.787 2033,1000C2033,1018.21 2018.21,1033 2000,1033C1981.79,1033 1967,1018.21 1967,1000C1967,981.787 1981.79,967 2000,967ZM4000,967C4018.21,967 4033,981.787 4033,1000C4033,1018.21 4018.21,1033 4000,1033C3981.79,1033 3967,1018.21 3967,1000C3967,981.787 3981.79,967 4000,967ZM1000,435C1035.87,435 1065,464.126 1065,500C1065,535.874 1035.87,565 1000,565C964.126,565 935,535.874 935,500C935,464.126 964.126,435 1000,435ZM5000,435C5035.87,435 5065,464.126 5065,500C5065,535.874 5035.87,565 5000,565C4964.13,565 4935,535.874 4935,500C4935,464.126 4964.13,435 5000,435ZM500,467C518.213,467 533,481.787 533,500C533,518.213 518.213,533 500,533C481.787,533 467,518.213 467,500C467,481.787 481.787,467 500,467ZM5500,467C5518.21,467 5533,481.787 5533,500C5533,518.213 5518.21,533 5500,533C5481.79,533 5467,518.213 5467,500C5467,481.787 5481.79,467 5500,467Z"/>
</svg>
