999
dxfrw 0.6.3
  0
SECTION
  2
HEADER
  9
$ACADVER
  1
AC1021
  9
$DWGCODEPAGE
  3
ANSI_1252
  9
$INSBASE
 10
0
 20
0
 30
0
  9
$EXTMIN
 10
0
 20
0
 30
0
  9
$EXTMAX
 10
600
 20
300
 30
0
  9
$LIMMIN
 10
0
 20
0
  9
$LIMMAX
 10
420
 20
297
  9
$ORTHOMODE
 70
    0
  9
$REGENMODE
 70
    1
  9
$FILLMODE
 70
    0
  9
$QTEXTMODE
 70
    0
  9
$MIRRTEXT
 70
    0
  9
$LTSCALE
 40
1
  9
$ATTMODE
 70
    0
  9
$TEXTSIZE
 40
2.5
  9
$TRACEWID
 40
15.68
  9
$TEXTSTYLE
  7
STANDARD
  9
$CLAYER
  8
0
  9
$CELTYPE
  6
BYLAYER
  9
$CECOLOR
 62
  256
  9
$CELTSCALE
 40
1
  9
$DISPSILH
 70
    0
  9
$DIMSCALE
 40
2.5
  9
$DIMASZ
 40
2.5
  9
$DIMEXO
 40
0.625
  9
$DIMDLI
 40
3.75
  9
$DIMRND
 40
0
  9
$DIMDLE
 40
0
  9
$DIMEXE
 40
1.25
  9
$DIMTP
 40
0
  9
$DIMTM
 40
0
  9
$DIMTXT
 40
2.5
  9
$DIMCEN
 40
2.5
  9
$DIMTSZ
 40
0
  9
$DIMTOL
 70
    0
  9
$DIMLIM
 70
    0
  9
$DIMTIH
 70
    0
  9
$DIMTOH
 70
    0
  9
$DIMSE1
 70
    0
  9
$DIMSE2
 70
    0
  9
$DIMTAD
 70
    1
  9
$DIMZIN
 70
    8
  9
$DIMBLK
  1

  9
$DIMASO
 70
    1
  9
$DIMSHO
 70
    1
  9
$DIMPOST
  1

  9
$DIMAPOST
  1

  9
$DIMALT
 70
    0
  9
$DIMALTD
 70
    3
  9
$DIMALTF
 40
0.03937
  9
$DIMLFAC
 40
1
  9
$DIMTOFL
 70
    1
  9
$DIMTVP
 40
0
  9
$DIMTIX
 70
    0
  9
$DIMSOXD
 70
    0
  9
$DIMSAH
 70
    0
  9
$DIMBLK1
  1

  9
$DIMBLK2
  1

  9
$DIMSTYLE
  2
Standard
  9
$DIMCLRD
 70
    0
  9
$DIMCLRE
 70
    0
  9
$DIMCLRT
 70
    0
  9
$DIMTFAC
 40
1
  9
$DIMGAP
 40
0.625
  9
$DIMJUST
 70
    0
  9
$DIMSD1
 70
    0
  9
$DIMSD2
 70
    0
  9
$DIMTOLJ
 70
    0
  9
$DIMTZIN
 70
    8
  9
$DIMALTZ
 70
    0
  9
$DIMALTTZ
 70
    0
  9
$DIMUPT
 70
    0
  9
$DIMDEC
 70
    2
  9
$DIMTDEC
 70
    2
  9
$DIMALTU
 70
    2
  9
$DIMALTTD
 70
    3
  9
$DIMTXSTY
  7
STANDARD
  9
$DIMAUNIT
 70
    0
  9
$DIMADEC
 70
    0
  9
$DIMALTRND
 40
0
  9
$DIMAZIN
 70
    0
  9
$DIMDSEP
 70
   44
  9
$DIMATFIT
 70
    3
  9
$DIMFRAC
 70
    0
  9
$DIMLDRBLK
  1
STANDARD
  9
$DIMLUNIT
 70
    2
  9
$DIMLWD
 70
   -2
  9
$DIMLWE
 70
   -2
  9
$DIMTMOVE
 70
    0
  9
$DIMFXL
 40
1
  9
$DIMFXLON
 70
    0
  9
$DIMJOGANG
 40
0.7854
  9
$DIMTFILL
 70
    0
  9
$DIMTFILLCLR
 70
    0
  9
$DIMARCSYM
 70
    0
  9
$DIMLTYPE
  6

  9
$DIMLTEX1
  6

  9
$DIMLTEX2
  6

  9
$LUNITS
 70
    2
  9
$LUPREC
 70
    4
  9
$SKETCHINC
 40
1
  9
$FILLETRAD
 40
0
  9
$AUNITS
 70
    0
  9
$AUPREC
 70
    2
  9
$MENU
  1
.
  9
$ELEVATION
 40
0
  9
$PELEVATION
 40
0
  9
$THICKNESS
 40
0
  9
$LIMCHECK
 70
    0
  9
$CHAMFERA
 40
0
  9
$CHAMFERB
 40
0
  9
$CHAMFERC
 40
0
  9
$CHAMFERD
 40
0
  9
$SKPOLY
 70
    0
  9
$USRTIMER
 70
    1
  9
$ANGBASE
 50
0
  9
$ANGDIR
 70
    0
  9
$PDMODE
 70
   34
  9
$PDSIZE
 40
0
  9
$PLINEWID
 40
0
  9
$SPLFRAME
 70
    1
  9
$SPLINETYPE
 70
    2
  9
$SPLINESEGS
 70
    8
  9
$HANDSEED
  5
20000
  9
$SURFTAB1
 70
    6
  9
$SURFTAB2
 70
    6
  9
$SURFTYPE
 70
    6
  9
$SURFU
 70
    6
  9
$SURFV
 70
    6
  9
$UCSBASE
  2

  9
$UCSNAME
  2

  9
$UCSORG
 10
0
 20
0
 30
0
  9
$UCSXDIR
 10
1
 20
0
 30
0
  9
$UCSYDIR
 10
0
 20
1
 30
0
  9
$UCSORTHOREF
  2

  9
$UCSORTHOVIEW
 70
    0
  9
$UCSORGTOP
 10
0
 20
0
 30
0
  9
$UCSORGBOTTOM
 10
0
 20
0
 30
0
  9
$UCSORGLEFT
 10
0
 20
0
 30
0
  9
$UCSORGRIGHT
 10
0
 20
0
 30
0
  9
$UCSORGFRONT
 10
0
 20
0
 30
0
  9
$UCSORGBACK
 10
0
 20
0
 30
0
  9
$PUCSBASE
  2

  9
$PUCSNAME
  2

  9
$PUCSORG
 10
0
 20
0
 30
0
  9
$PUCSXDIR
 10
1
 20
0
 30
0
  9
$PUCSYDIR
 10
0
 20
1
 30
0
  9
$PUCSORTHOREF
  2

  9
$PUCSORTHOVIEW
 70
    0
  9
$PUCSORGTOP
 10
0
 20
0
 30
0
  9
$PUCSORGBOTTOM
 10
0
 20
0
 30
0
  9
$PUCSORGLEFT
 10
0
 20
0
 30
0
  9
$PUCSORGRIGHT
 10
0
 20
0
 30
0
  9
$PUCSORGFRONT
 10
0
 20
0
 30
0
  9
$PUCSORGBACK
 10
0
 20
0
 30
0
  9
$USERI1
 70
    0
  9
$USERI2
 70
    0
  9
$USERI3
 70
    0
  9
$USERI4
 70
    0
  9
$USERI5
 70
    0
  9
$USERR1
 40
0
  9
$USERR2
 40
0
  9
$USERR3
 40
0
  9
$USERR4
 40
0
  9
$USERR5
 40
0
  9
$WORLDVIEW
 70
    1
  9
$SHADEDGE
 70
    3
  9
$SHADEDIF
 70
   70
  9
$TILEMODE
 70
    1
  9
$MAXACTVP
 70
   64
  9
$PINSBASE
 10
0
 20
0
 30
0
  9
$PLIMCHECK
 70
    0
  9
$PEXTMIN
 10
0
 20
0
 30
0
  9
$PEXTMAX
 10
0
 20
0
 30
0
  9
$SNAPSTYLE
 70
    0
  9
$PLIMMIN
 10
0
 20
0
  9
$PLIMMAX
 10
210
 20
297
  9
$UNITMODE
 70
    0
  9
$VISRETAIN
 70
    1
  9
$PLINEGEN
 70
    0
  9
$PSLTSCALE
 70
    1
  9
$TREEDEPTH
 70
 3020
  9
$CMLSTYLE
  2
Standard
  9
$CMLJUST
 70
    0
  9
$CMLSCALE
 40
20
  9
$PROXYGRAPHICS
 70
    1
  9
$MEASUREMENT
 70
    1
  9
$CELWEIGHT
370
   -1
  9
$ENDCAPS
280
    0
  9
$JOINSTYLE
280
    0
  9
$LWDISPLAY
290
    0
  9
$INSUNITS
 70
    4
  9
$HYPERLINKBASE
  1

  9
$STYLESHEET
  1

  9
$XEDIT
290
    1
  9
$CEPSNTYPE
380
    0
  9
$PSTYLEMODE
290
    1
  9
$EXTNAMES
290
    1
  9
$PSVPSCALE
 40
1
  9
$OLESTARTUP
290
    0
  9
$SORTENTS
280
  127
  9
$INDEXCTL
280
    0
  9
$HIDETEXT
280
    1
  9
$XCLIPFRAME
290
    0
  9
$HALOGAP
280
    0
  9
$OBSCOLOR
 70
  257
  9
$OBSLTYPE
280
    0
  9
$INTERSECTIONDISPLAY
280
    0
  9
$INTERSECTIONCOLOR
 70
  257
  9
$DIMASSOC
280
    1
  9
$PROJECTNAME
  1

  9
$CAMERADISPLAY
290
    0
  9
$LENSLENGTH
 40
50
  9
$CAMERAHEIGHT
 40
0
  9
$STEPSPERSEC
 40
2
  9
$STEPSIZE
 40
50
  9
$3DDWFPREC
 40
2
  9
$PSOLWIDTH
 40
5
  9
$PSOLHEIGHT
 40
80
  9
$LOFTANG1
 40
1.570796326794897
  9
$LOFTANG2
 40
1.570796326794897
  9
$LOFTMAG1
 40
0
  9
$LOFTMAG2
 40
0
  9
$LOFTPARAM
 70
    7
  9
$LOFTNORMALS
280
    1
  9
$LATITUDE
 40
1
  9
$LONGITUDE
 40
1
  9
$NORTHDIRECTION
 40
0
  9
$TIMEZONE
 70
-8000
  9
$LIGHTGLYPHDISPLAY
280
    1
  9
$TILEMODELIGHTSYNCH
280
    1
  9
$SOLIDHIST
280
    1
  9
$SHOWHIST
280
    1
  9
$DWFFRAME
280
    2
  9
$DGNFRAME
280
    0
  9
$REALWORLDSCALE
290
    1
  9
$INTERFERECOLOR
 62
    1
  9
$CSHADOW
280
    0
  9
$SHADOWPLANELOCATION
 40
0
  0
ENDSEC
  0
SECTION
  2
CLASSES
  0
ENDSEC
  0
SECTION
  2
TABLES
  0
TABLE
  2
VPORT
  5
8
330
0
100
AcDbSymbolTable
 70
    1
  0
VPORT
  5
31
330
2
100
AcDbSymbolTableRecord
100
AcDbViewportTableRecord
  2
*ACTIVE
 70
    0
 10
0
 20
0
 11
1
 21
1
 12
381.4851025180861
 22
198.4834040156535
 13
0
 23
0
 14
10
 24
10
 15
10
 25
10
 16
0
 26
0
 36
1
 17
0
 27
0
 37
0
 40
658.9649013319697
 41
1.736144578313253
 42
50
 43
0
 44
0
 50
0
 51
0
 71
    0
 72
  100
 73
    1
 74
    3
 75
    0
 76
    1
 77
    0
 78
    0
281
    0
 65
    1
110
0
120
0
130
0
111
1
121
0
131
0
112
0
122
1
132
0
 79
    0
146
0
348
10020
 60
    7
 61
    5
292
1
282
    1
141
0
142
0
 63
  250
421
3358443
  0
ENDTAB
  0
TABLE
  2
LTYPE
  5
5
330
0
100
AcDbSymbolTable
 70
    4
  0
LTYPE
  5
14
330
5
100
AcDbSymbolTableRecord
100
AcDbLinetypeTableRecord
  2
ByBlock
 70
    0
  3

 72
   65
 73
    0
 40
0
  0
LTYPE
  5
15
330
5
100
AcDbSymbolTableRecord
100
AcDbLinetypeTableRecord
  2
ByLayer
 70
    0
  3

 72
   65
 73
    0
 40
0
  0
LTYPE
  5
16
330
5
100
AcDbSymbolTableRecord
100
AcDbLinetypeTableRecord
  2
Continuous
 70
    0
  3
Solid line
 72
   65
 73
    0
 40
0
  0
LTYPE
  5
32
330
5
100
AcDbSymbolTableRecord
100
AcDbLinetypeTableRecord
  2
DOT
 70
    0
  3
Dot . . . . . . . . . . . . . . . . . . . . . .
 72
   65
 73
    2
 40
6.35
 49
0
 74
    0
 49
-6.35
 74
    0
  0
LTYPE
  5
33
330
5
100
AcDbSymbolTableRecord
100
AcDbLinetypeTableRecord
  2
DOTTINY
 70
    0
  3
Dot (.15x) .....................................
 72
   65
 73
    2
 40
0.9525
 49
0
 74
    0
 49
-0.9525
 74
    0
  0
LTYPE
  5
34
330
5
100
AcDbSymbolTableRecord
100
AcDbLinetypeTableRecord
  2
DOT2
 70
    0
  3
Dot (.5x) .....................................
 72
   65
 73
    2
 40
3.175
 49
0
 74
    0
 49
-3.175
 74
    0
  0
LTYPE
  5
35
330
5
100
AcDbSymbolTableRecord
100
AcDbLinetypeTableRecord
  2
DOTX2
 70
    0
  3
Dot (2x) .  .  .  .  .  .  .  .  .  .  .  .  .
 72
   65
 73
    2
 40
12.7
 49
0
 74
    0
 49
-12.7
 74
    0
  0
LTYPE
  5
36
330
5
100
AcDbSymbolTableRecord
100
AcDbLinetypeTableRecord
  2
DASHED
 70
    0
  3
Dashed _ _ _ _ _ _ _ _ _ _ _ _ _ _ _ _ _
 72
   65
 73
    2
 40
19.05
 49
12.7
 74
    0
 49
-6.35
 74
    0
  0
LTYPE
  5
37
330
5
100
AcDbSymbolTableRecord
100
AcDbLinetypeTableRecord
  2
DASHEDTINY
 70
    0
  3
Dashed (.15x) _ _ _ _ _ _ _ _ _ _ _ _ _ _ _ _ _
 72
   65
 73
    2
 40
2.8575
 49
1.905
 74
    0
 49
-0.9525
 74
    0
  0
LTYPE
  5
38
330
5
100
AcDbSymbolTableRecord
100
AcDbLinetypeTableRecord
  2
DASHED2
 70
    0
  3
Dashed (.5x) _ _ _ _ _ _ _ _ _ _ _ _ _ _ _ _ _
 72
   65
 73
    2
 40
9.524999999999999
 49
6.35
 74
    0
 49
-3.175
 74
    0
  0
LTYPE
  5
39
330
5
100
AcDbSymbolTableRecord
100
AcDbLinetypeTableRecord
  2
DASHEDX2
 70
    0
  3
Dashed (2x) ____  ____  ____  ____  ____  ___
 72
   65
 73
    2
 40
38.09999999999999
 49
25.4
 74
    0
 49
-12.7
 74
    0
  0
LTYPE
  5
3A
330
5
100
AcDbSymbolTableRecord
100
AcDbLinetypeTableRecord
  2
DASHDOT
 70
    0
  3
Dash dot __ . __ . __ . __ . __ . __ . __ . __
 72
   65
 73
    4
 40
25.4
 49
12.7
 74
    0
 49
-6.35
 74
    0
 49
0
 74
    0
 49
-6.35
 74
    0
  0
LTYPE
  5
3B
330
5
100
AcDbSymbolTableRecord
100
AcDbLinetypeTableRecord
  2
DASHDOTTINY
 70
    0
  3
Dash dot (.15x) _._._._._._._._._._._._._._._.
 72
   65
 73
    4
 40
3.81
 49
1.905
 74
    0
 49
-0.9525
 74
    0
 49
0
 74
    0
 49
-0.9525
 74
    0
  0
LTYPE
  5
3C
330
5
100
AcDbSymbolTableRecord
100
AcDbLinetypeTableRecord
  2
DASHDOT2
 70
    0
  3
Dash dot (.5x) _._._._._._._._._._._._._._._.
 72
   65
 73
    4
 40
12.7
 49
6.35
 74
    0
 49
-3.175
 74
    0
 49
0
 74
    0
 49
-3.175
 74
    0
  0
LTYPE
  5
3D
330
5
100
AcDbSymbolTableRecord
100
AcDbLinetypeTableRecord
  2
DASHDOTX2
 70
    0
  3
Dash dot (2x) ____  .  ____  .  ____  .  ___
 72
   65
 73
    4
 40
50.8
 49
25.4
 74
    0
 49
-12.7
 74
    0
 49
0
 74
    0
 49
-12.7
 74
    0
  0
LTYPE
  5
3E
330
5
100
AcDbSymbolTableRecord
100
AcDbLinetypeTableRecord
  2
DIVIDE
 70
    0
  3
Divide ____ . . ____ . . ____ . . ____ . . ____
 72
   65
 73
    6
 40
31.75
 49
12.7
 74
    0
 49
-6.35
 74
    0
 49
0
 74
    0
 49
-6.35
 74
    0
 49
0
 74
    0
 49
-6.35
 74
    0
  0
LTYPE
  5
3F
330
5
100
AcDbSymbolTableRecord
100
AcDbLinetypeTableRecord
  2
DIVIDETINY
 70
    0
  3
Divide (.15x) __..__..__..__..__..__..__..__.._
 72
   65
 73
    6
 40
4.7625
 49
1.905
 74
    0
 49
-0.9525
 74
    0
 49
0
 74
    0
 49
-0.9525
 74
    0
 49
0
 74
    0
 49
-0.9525
 74
    0
  0
LTYPE
  5
40
330
5
100
AcDbSymbolTableRecord
100
AcDbLinetypeTableRecord
  2
DIVIDE2
 70
    0
  3
Divide (.5x) __..__..__..__..__..__..__..__.._
 72
   65
 73
    6
 40
15.875
 49
6.35
 74
    0
 49
-3.175
 74
    0
 49
0
 74
    0
 49
-3.175
 74
    0
 49
0
 74
    0
 49
-3.175
 74
    0
  0
LTYPE
  5
41
330
5
100
AcDbSymbolTableRecord
100
AcDbLinetypeTableRecord
  2
DIVIDEX2
 70
    0
  3
Divide (2x) ________  .  .  ________  .  .  _
 72
   65
 73
    6
 40
63.5
 49
25.4
 74
    0
 49
-12.7
 74
    0
 49
0
 74
    0
 49
-12.7
 74
    0
 49
0
 74
    0
 49
-12.7
 74
    0
  0
LTYPE
  5
42
330
5
100
AcDbSymbolTableRecord
100
AcDbLinetypeTableRecord
  2
BORDER
 70
    0
  3
Border __ __ . __ __ . __ __ . __ __ . __ __ .
 72
   65
 73
    6
 40
44.45
 49
12.7
 74
    0
 49
-6.35
 74
    0
 49
12.7
 74
    0
 49
-6.35
 74
    0
 49
0
 74
    0
 49
-6.35
 74
    0
  0
LTYPE
  5
43
330
5
100
AcDbSymbolTableRecord
100
AcDbLinetypeTableRecord
  2
BORDERTINY
 70
    0
  3
Border (.15x) __.__.__.__.__.__.__.__.__.__.__.
 72
   65
 73
    6
 40
6.6675
 49
1.905
 74
    0
 49
-0.9525
 74
    0
 49
1.905
 74
    0
 49
-0.9525
 74
    0
 49
0
 74
    0
 49
-0.9525
 74
    0
  0
LTYPE
  5
44
330
5
100
AcDbSymbolTableRecord
100
AcDbLinetypeTableRecord
  2
BORDER2
 70
    0
  3
Border (.5x) __.__.__.__.__.__.__.__.__.__.__.
 72
   65
 73
    6
 40
22.225
 49
6.35
 74
    0
 49
-3.175
 74
    0
 49
6.35
 74
    0
 49
-3.175
 74
    0
 49
0
 74
    0
 49
-3.175
 74
    0
  0
LTYPE
  5
45
330
5
100
AcDbSymbolTableRecord
100
AcDbLinetypeTableRecord
  2
BORDERX2
 70
    0
  3
Border (2x) ____  ____  .  ____  ____  .  ___
 72
   65
 73
    6
 40
88.89999999999999
 49
25.4
 74
    0
 49
-12.7
 74
    0
 49
25.4
 74
    0
 49
-12.7
 74
    0
 49
0
 74
    0
 49
-12.7
 74
    0
  0
LTYPE
  5
46
330
5
100
AcDbSymbolTableRecord
100
AcDbLinetypeTableRecord
  2
CENTER
 70
    0
  3
Center ____ _ ____ _ ____ _ ____ _ ____ _ ____
 72
   65
 73
    4
 40
50.8
 49
31.75
 74
    0
 49
-6.35
 74
    0
 49
6.35
 74
    0
 49
-6.35
 74
    0
  0
LTYPE
  5
47
330
5
100
AcDbSymbolTableRecord
100
AcDbLinetypeTableRecord
  2
CENTERTINY
 70
    0
  3
Center (.15x) ___ _ ___ _ ___ _ ___ _ ___ _ ___
 72
   65
 73
    4
 40
7.619999999999999
 49
4.7625
 74
    0
 49
-0.9525
 74
    0
 49
0.9525
 74
    0
 49
-0.9525
 74
    0
  0
LTYPE
  5
48
330
5
100
AcDbSymbolTableRecord
100
AcDbLinetypeTableRecord
  2
CENTER2
 70
    0
  3
Center (.5x) ___ _ ___ _ ___ _ ___ _ ___ _ ___
 72
   65
 73
    4
 40
28.575
 49
19.05
 74
    0
 49
-3.175
 74
    0
 49
3.175
 74
    0
 49
-3.175
 74
    0
  0
LTYPE
  5
49
330
5
100
AcDbSymbolTableRecord
100
AcDbLinetypeTableRecord
  2
CENTERX2
 70
    0
  3
Center (2x) ________  __  ________  __  _____
 72
   65
 73
    4
 40
101.6
 49
63.5
 74
    0
 49
-12.7
 74
    0
 49
12.7
 74
    0
 49
-12.7
 74
    0
  0
ENDTAB
  0
TABLE
  2
LAYER
  5
2
330
0
100
AcDbSymbolTable
 70
    1
  0
LAYER
  5
10
330
2
100
AcDbSymbolTableRecord
100
AcDbLayerTableRecord
  2
0
 70
    0
 62
    7
  6
CONTINUOUS
370
   -3
390
F
  0
ENDTAB
  0
TABLE
  2
STYLE
  5
3
330
0
100
AcDbSymbolTable
 70
    3
  0
STYLE
  5
4A
330
2
100
AcDbSymbolTableRecord
100
AcDbTextStyleTableRecord
  2
Standard
 70
    0
 40
0
 41
1
 50
0
 71
    0
 42
1
  3
txt
  4

  0
ENDTAB
  0
TABLE
  2
VIEW
  5
6
330
0
100
AcDbSymbolTable
 70
    0
  0
ENDTAB
  0
TABLE
  2
UCS
  5
7
330
0
100
AcDbSymbolTable
 70
    0
  0
ENDTAB
  0
TABLE
  2
APPID
  5
9
330
0
100
AcDbSymbolTable
 70
    1
  0
APPID
  5
12
330
9
100
AcDbSymbolTableRecord
100
AcDbRegAppTableRecord
  2
ACAD
 70
    0
  0
APPID
  5
4B
330
9
100
AcDbSymbolTableRecord
100
AcDbRegAppTableRecord
  2
LibreCad
 70
    0
  0
ENDTAB
  0
TABLE
  2
DIMSTYLE
  5
A
330
0
100
AcDbSymbolTable
 70
    1
100
AcDbDimStyleTable
 71
    1
  0
DIMSTYLE
105
4C
330
A
100
AcDbSymbolTableRecord
100
AcDbDimStyleTableRecord
  2
Standard
 70
    0
 40
1
 41
2.5
 42
0.625
 43
0.38
 44
1.25
 45
0
 46
0
 47
0
 48
0
 49
1
140
2.5
141
0.09
142
2.5
143
25.4
144
1
145
0
146
1
147
0.625
148
0
 71
    0
 72
    0
 73
    0
 74
    1
 75
    0
 76
    0
 77
    0
 78
    1
 79
    0
170
    0
171
    2
172
    0
173
    0
174
    0
175
    0
176
    0
177
    0
178
    0
179
    0
271
    2
272
    4
273
    2
274
    2
275
    0
276
    0
277
    2
278
    0
279
    0
280
    0
281
    0
282
    0
283
    1
284
    0
285
    0
286
    0
288
    0
289
    3
340
standard
341

371
   -2
372
   -2
  0
ENDTAB
  0
TABLE
  2
BLOCK_RECORD
  5
1
330
0
100
AcDbSymbolTable
 70
    2
  0
BLOCK_RECORD
  5
1F
330
1
100
AcDbSymbolTableRecord
100
AcDbBlockTableRecord
  2
*Model_Space
 70
    0
280
    1
281
    0
  0
BLOCK_RECORD
  5
1E
330
1
100
AcDbSymbolTableRecord
100
AcDbBlockTableRecord
  2
*Paper_Space
 70
    0
280
    1
281
    0
  0
ENDTAB
  0
ENDSEC
  0
SECTION
  2
BLOCKS
  0
BLOCK
  5
20
330
1F
100
AcDbEntity
  8
0
100
AcDbBlockBegin
  2
*Model_Space
 70
    0
 10
0
 20
0
 30
0
  3
*Model_Space
  1

  0
ENDBLK
  5
21
330
1F
100
AcDbEntity
  8
0
100
AcDbBlockEnd
  0
BLOCK
  5
1C
330
1B
100
AcDbEntity
  8
0
100
AcDbBlockBegin
  2
*Paper_Space
 70
    0
 10
0
 20
0
 30
0
  3
*Paper_Space
  1

  0
ENDBLK
  5
1D
330
1F
100
AcDbEntity
  8
0
100
AcDbBlockEnd
  0
ENDSEC
  0
SECTION
  2
ENTITIES
  0
LWPOLYLINE
  5
4D
100
AcDbEntity
  8
0
  6
ByLayer
 62
    0
370
   -1
100
AcDbPolyline
 90
   29
 70
    1
 43
0
 10
600
 20
297
 10
600
 20
297.29184
 10
599.76384
 20
298.16832
 10
599.1215999999999
 20
299.1216
 10
598.1664
 20
299.76384
 10
597.29184
 20
300
 10
597
 20
300
 10
3
 20
300
 10
2.7078144
 20
300
 10
1.8322944
 20
299.76384
 10
0.8786457599999999
 20
299.1216
 10
0.23541696
 20
298.16832
 10
0
 20
297.29184
 10
0
 20
297
 10
0
 20
3
 10
0
 20
2.7083328
 10
0.23541696
 20
1.8328128
 10
0.8786457599999999
 20
0.87916704
 10
1.8322944
 20
0.23593728
 10
2.7078144
 20
0
 10
3
 20
0
 10
597
 20
0
 10
597.29184
 20
0
 10
598.1664
 20
0.23593728
 10
599.1215999999999
 20
0.87916704
 10
599.76384
 20
1.8328128
 10
600
 20
2.7083328
 10
600
 20
3
 10
600
 20
297
  0
LWPOLYLINE
  5
4E
100
AcDbEntity
  8
0
  6
ByLayer
 62
    0
370
   -1
100
AcDbPolyline
 90
   41
 70
    1
 43
0
 10
550.00032
 20
53.299968
 10
550.16544
 20
53.299968
 10
550.66368
 20
53.233344
 10
551.2838400000001
 20
53.040672
 10
551.84448
 20
52.736448
 10
552.33312
 20
52.33276799999999
 10
552.73632
 20
51.8448
 10
553.03968
 20
51.283872
 10
553.2336
 20
50.664576
 10
553.2998399999999
 20
50.166144
 10
553.2998399999999
 20
49.999968
 10
553.2998399999999
 20
49.834368
 10
553.2336
 20
49.336032
 10
553.03968
 20
48.71664
 10
552.73632
 20
48.15571199999999
 10
552.33312
 20
47.667168
 10
551.84448
 20
47.263968
 10
551.2838400000001
 20
46.95984
 10
550.66368
 20
46.767168
 10
550.16544
 20
46.699968
 10
550.00032
 20
46.699968
 10
549.8332799999999
 20
46.699968
 10
549.3359999999999
 20
46.767168
 10
548.71584
 20
46.95984
 10
548.15424
 20
47.263968
 10
547.66656
 20
47.667168
 10
547.26432
 20
48.15571199999999
 10
546.96
 20
48.71664
 10
546.76704
 20
49.336032
 10
546.69984
 20
49.834368
 10
546.69984
 20
49.999968
 10
546.69984
 20
50.166144
 10
546.76704
 20
50.664576
 10
546.96
 20
51.283872
 10
547.26432
 20
51.8448
 10
547.66656
 20
52.33276799999999
 10
548.15424
 20
52.736448
 10
548.71584
 20
53.040672
 10
549.3359999999999
 20
53.233344
 10
549.8332799999999
 20
53.299968
 10
550.00032
 20
53.299968
  0
LWPOLYLINE
  5
4F
100
AcDbEntity
  8
0
  6
ByLayer
 62
    0
370
   -1
100
AcDbPolyline
 90
   41
 70
    1
 43
0
 10
49.999968
 20
53.299968
 10
50.166144
 20
53.299968
 10
50.664576
 20
53.233344
 10
51.283872
 20
53.040672
 10
51.844224
 20
52.736448
 10
52.33276799999999
 20
52.33276799999999
 10
52.735968
 20
51.8448
 10
53.040096
 20
51.283872
 10
53.23276799999999
 20
50.664576
 10
53.299968
 20
50.166144
 10
53.299968
 20
49.999968
 10
53.299968
 20
49.834368
 10
53.23276799999999
 20
49.336032
 10
53.040096
 20
48.71664
 10
52.735968
 20
48.15571199999999
 10
52.33276799999999
 20
47.667168
 10
51.844224
 20
47.263968
 10
51.283872
 20
46.95984
 10
50.664576
 20
46.767168
 10
50.166144
 20
46.699968
 10
49.999968
 20
46.699968
 10
49.833312
 20
46.699968
 10
49.334976
 20
46.767168
 10
48.715584
 20
46.95984
 10
48.155232
 20
47.263968
 10
47.666688
 20
47.667168
 10
47.26358399999999
 20
48.15571199999999
 10
46.95936
 20
48.71664
 10
46.76668799999999
 20
49.336032
 10
46.699968
 20
49.834368
 10
46.699968
 20
49.999968
 10
46.699968
 20
50.166144
 10
46.76668799999999
 20
50.664576
 10
46.95936
 20
51.283872
 10
47.26358399999999
 20
51.8448
 10
47.666688
 20
52.33276799999999
 10
48.155232
 20
52.736448
 10
48.715584
 20
53.040672
 10
49.334976
 20
53.233344
 10
49.833312
 20
53.299968
 10
49.999968
 20
53.299968
  0
LWPOLYLINE
  5
50
100
AcDbEntity
  8
0
  6
ByLayer
 62
    0
370
   -1
100
AcDbPolyline
 90
   41
 70
    1
 43
0
 10
199.99968
 20
103.29984
 10
200.16576
 20
103.29984
 10
200.664
 20
103.2336
 10
201.28416
 20
103.04064
 10
201.84384
 20
102.73632
 10
202.33344
 20
102.33312
 10
202.73568
 20
101.84448
 10
203.04
 20
101.28384
 10
203.23296
 20
100.66464
 10
203.30016
 20
100.1664
 10
203.30016
 20
100.00032
 10
203.30016
 20
99.83423999999999
 10
203.23296
 20
99.336
 10
203.04
 20
98.71679999999999
 10
202.73568
 20
98.15616
 10
202.33344
 20
97.66752
 10
201.84384
 20
97.26432
 10
201.28416
 20
96.95999999999999
 10
200.664
 20
96.76703999999999
 10
200.16576
 20
96.69984000000001
 10
199.99968
 20
96.69984000000001
 10
199.8336
 20
96.69984000000001
 10
199.33632
 20
96.76703999999999
 10
198.71616
 20
96.95999999999999
 10
198.15456
 20
97.26432
 10
197.66688
 20
97.66752
 10
197.26368
 20
98.15616
 10
196.96032
 20
98.71679999999999
 10
196.7664
 20
99.336
 10
196.70016
 20
99.83423999999999
 10
196.70016
 20
100.00032
 10
196.70016
 20
100.1664
 10
196.7664
 20
100.66464
 10
196.96032
 20
101.28384
 10
197.26368
 20
101.84448
 10
197.66688
 20
102.33312
 10
198.15456
 20
102.73632
 10
198.71616
 20
103.04064
 10
199.33632
 20
103.2336
 10
199.8336
 20
103.29984
 10
199.99968
 20
103.29984
  0
LWPOLYLINE
  5
51
100
AcDbEntity
  8
0
  6
ByLayer
 62
    0
370
   -1
100
AcDbPolyline
 90
   41
 70
    1
 43
0
 10
400.00032
 20
103.29984
 10
400.16544
 20
103.29984
 10
400.6636799999999
 20
103.2336
 10
401.28384
 20
103.04064
 10
401.84448
 20
102.73632
 10
402.33312
 20
102.33312
 10
402.73632
 20
101.84448
 10
403.03968
 20
101.28384
 10
403.2336
 20
100.66464
 10
403.29984
 20
100.1664
 10
403.29984
 20
100.00032
 10
403.29984
 20
99.83423999999999
 10
403.2336
 20
99.336
 10
403.03968
 20
98.71679999999999
 10
402.73632
 20
98.15616
 10
402.33312
 20
97.66752
 10
401.84448
 20
97.26432
 10
401.28384
 20
96.95999999999999
 10
400.6636799999999
 20
96.76703999999999
 10
400.16544
 20
96.69984000000001
 10
400.00032
 20
96.69984000000001
 10
399.8332799999999
 20
96.69984000000001
 10
399.336
 20
96.76703999999999
 10
398.71584
 20
96.95999999999999
 10
398.15424
 20
97.26432
 10
397.66656
 20
97.66752
 10
397.26432
 20
98.15616
 10
396.96
 20
98.71679999999999
 10
396.76704
 20
99.336
 10
396.6998399999999
 20
99.83423999999999
 10
396.6998399999999
 20
100.00032
 10
396.6998399999999
 20
100.1664
 10
396.76704
 20
100.66464
 10
396.96
 20
101.28384
 10
397.26432
 20
101.84448
 10
397.66656
 20
102.33312
 10
398.15424
 20
102.73632
 10
398.71584
 20
103.04064
 10
399.336
 20
103.2336
 10
399.8332799999999
 20
103.29984
 10
400.00032
 20
103.29984
  0
LWPOLYLINE
  5
52
100
AcDbEntity
  8
0
  6
ByLayer
 62
    0
370
   -1
100
AcDbPolyline
 90
   41
 70
    1
 43
0
 10
150
 20
136.50048
 10
150.3264
 20
136.50048
 10
151.30944
 20
136.368
 10
152.52768
 20
135.98976
 10
153.6336
 20
135.38976
 10
154.59456
 20
134.59488
 10
155.38944
 20
133.63296
 10
155.98848
 20
132.52896
 10
156.36768
 20
131.30976
 10
156.50016
 20
130.32768
 10
156.50016
 20
130.00032
 10
156.50016
 20
129.67296
 10
156.36768
 20
128.69088
 10
155.98848
 20
127.47168
 10
155.38944
 20
126.36768
 10
154.59456
 20
125.4048
 10
153.6336
 20
124.61088
 10
152.52768
 20
124.01184
 10
151.30944
 20
123.63264
 10
150.3264
 20
123.50016
 10
150
 20
123.50016
 10
149.67168
 20
123.50016
 10
148.69056
 20
123.63264
 10
147.4704
 20
124.01184
 10
146.3664
 20
124.61088
 10
145.40544
 20
125.4048
 10
144.61056
 20
126.36768
 10
144.01056
 20
127.47168
 10
143.63232
 20
128.69088
 10
143.49984
 20
129.67296
 10
143.49984
 20
130.00032
 10
143.49984
 20
130.32768
 10
143.63232
 20
131.30976
 10
144.01056
 20
132.52896
 10
144.61056
 20
133.63296
 10
145.40544
 20
134.59488
 10
146.3664
 20
135.38976
 10
147.4704
 20
135.98976
 10
148.69056
 20
136.368
 10
149.67168
 20
136.50048
 10
150
 20
136.50048
  0
LWPOLYLINE
  5
53
100
AcDbEntity
  8
0
  6
ByLayer
 62
    0
370
   -1
100
AcDbPolyline
 90
   41
 70
    1
 43
0
 10
450
 20
136.50048
 10
450.3264
 20
136.50048
 10
451.30944
 20
136.368
 10
452.52768
 20
135.98976
 10
453.6336
 20
135.38976
 10
454.59456
 20
134.59488
 10
455.38944
 20
133.63296
 10
455.98752
 20
132.52896
 10
456.36768
 20
131.30976
 10
456.50016
 20
130.32768
 10
456.50016
 20
130.00032
 10
456.50016
 20
129.67296
 10
456.36768
 20
128.69088
 10
455.98752
 20
127.47168
 10
455.38944
 20
126.36768
 10
454.59456
 20
125.4048
 10
453.6336
 20
124.61088
 10
452.52768
 20
124.01184
 10
451.30944
 20
123.63264
 10
450.3264
 20
123.50016
 10
450
 20
123.50016
 10
449.67168
 20
123.50016
 10
448.6905599999999
 20
123.63264
 10
447.4704
 20
124.01184
 10
446.3663999999999
 20
124.61088
 10
445.40544
 20
125.4048
 10
444.61056
 20
126.36768
 10
444.01056
 20
127.47168
 10
443.63232
 20
128.69088
 10
443.4998399999999
 20
129.67296
 10
443.4998399999999
 20
130.00032
 10
443.4998399999999
 20
130.32768
 10
443.63232
 20
131.30976
 10
444.01056
 20
132.52896
 10
444.61056
 20
133.63296
 10
445.40544
 20
134.59488
 10
446.3663999999999
 20
135.38976
 10
447.4704
 20
135.98976
 10
448.6905599999999
 20
136.368
 10
449.67168
 20
136.50048
 10
450
 20
136.50048
  0
LWPOLYLINE
  5
54
100
AcDbEntity
  8
0
  6
ByLayer
 62
    0
370
   -1
100
AcDbPolyline
 90
   73
 70
    1
 43
0
 10
300
 20
210
 10
300.95712
 20
210
 10
303.83232
 20
209.80704
 10
307.55328
 20
209.23872
 10
311.1456
 20
208.31328
 10
314.59104
 20
207.05184
 10
317.86848
 20
205.47168
 10
320.95968
 20
203.592
 10
323.84832
 20
201.43296
 10
326.5103999999999
 20
199.01184
 10
328.93248
 20
196.34784
 10
331.09152
 20
193.46112
 10
332.9702399999999
 20
190.36896
 10
334.5504
 20
187.09056
 10
335.81184
 20
183.64704
 10
336.73728
 20
180.05376
 10
337.3056
 20
176.33184
 10
337.50048
 20
173.45856
 10
337.50048
 20
172.50048
 10
337.50048
 20
171.5424
 10
337.3056
 20
168.66816
 10
336.73728
 20
164.94624
 10
335.81184
 20
161.35488
 10
334.5504
 20
157.90944
 10
332.9702399999999
 20
154.632
 10
331.09152
 20
151.53984
 10
328.93248
 20
148.65216
 10
326.5103999999999
 20
145.98912
 10
323.84832
 20
143.568
 10
320.95968
 20
141.408
 10
317.86848
 20
139.52928
 10
314.59104
 20
137.94912
 10
311.1456
 20
136.68768
 10
307.55328
 20
135.76224
 10
303.83232
 20
135.19488
 10
300.95712
 20
135
 10
300
 20
135
 10
299.04096
 20
135
 10
296.16768
 20
135.19488
 10
292.44672
 20
135.76224
 10
288.85344
 20
136.68768
 10
285.40896
 20
137.94912
 10
282.13056
 20
139.52928
 10
279.0384
 20
141.408
 10
276.15168
 20
143.568
 10
273.48768
 20
145.98912
 10
271.06656
 20
148.65216
 10
268.90848
 20
151.53984
 10
267.02784
 20
154.632
 10
265.44768
 20
157.90944
 10
264.18624
 20
161.35488
 10
263.26176
 20
164.94624
 10
262.69344
 20
168.66816
 10
262.50048
 20
171.5424
 10
262.50048
 20
172.50048
 10
262.50048
 20
173.45856
 10
262.69344
 20
176.33184
 10
263.26176
 20
180.05376
 10
264.18624
 20
183.64704
 10
265.44768
 20
187.09056
 10
267.02784
 20
190.36896
 10
268.90848
 20
193.46112
 10
271.06656
 20
196.34784
 10
273.48768
 20
199.01184
 10
276.15168
 20
201.43296
 10
279.0384
 20
203.592
 10
282.13056
 20
205.47168
 10
285.40896
 20
207.05184
 10
288.85344
 20
208.31328
 10
292.44672
 20
209.23872
 10
296.16768
 20
209.80704
 10
299.04096
 20
210
 10
300
 20
210
  0
LWPOLYLINE
  5
55
100
AcDbEntity
  8
0
  6
ByLayer
 62
    0
370
   -1
100
AcDbPolyline
 90
   73
 70
    1
 43
0
 10
139.99968
 20
210
 10
140.63904
 20
210
 10
142.55424
 20
209.8704
 10
145.03584
 20
209.49216
 10
147.43104
 20
208.87584
 10
149.7264
 20
208.03488
 10
151.91232
 20
206.98176
 10
153.97344
 20
205.728
 10
155.89824
 20
204.288
 10
157.67328
 20
202.67424
 10
159.288
 20
200.89824
 10
160.728
 20
198.97344
 10
161.98176
 20
196.91232
 10
163.03296
 20
194.72832
 10
163.87488
 20
192.43104
 10
164.49216
 20
190.03584
 10
164.8704
 20
187.55424
 10
165
 20
185.63904
 10
165
 20
184.99968
 10
165
 20
184.36128
 10
164.8704
 20
182.44512
 10
164.49216
 20
179.96352
 10
163.87488
 20
177.56928
 10
163.03296
 20
175.27296
 10
161.98176
 20
173.088
 10
160.728
 20
171.02688
 10
159.288
 20
169.10112
 10
157.67328
 20
167.32704
 10
155.89824
 20
165.71232
 10
153.97344
 20
164.27232
 10
151.91232
 20
163.01856
 10
149.7264
 20
161.9664
 10
147.43104
 20
161.12544
 10
145.03584
 20
160.50816
 10
142.55424
 20
160.12896
 10
140.63904
 20
160.00032
 10
139.99968
 20
160.00032
 10
139.36128
 20
160.00032
 10
137.44512
 20
160.12896
 10
134.96352
 20
160.50816
 10
132.56832
 20
161.12544
 10
130.272
 20
161.9664
 10
128.08704
 20
163.01856
 10
126.02592
 20
164.27232
 10
124.10112
 20
165.71232
 10
122.32512
 20
167.32704
 10
120.71136
 20
169.10112
 10
119.27232
 20
171.02688
 10
118.01856
 20
173.088
 10
116.96544
 20
175.27296
 10
116.12448
 20
177.56928
 10
115.50816
 20
179.96352
 10
115.12896
 20
182.44512
 10
115.00032
 20
184.36128
 10
115.00032
 20
184.99968
 10
115.00032
 20
185.63904
 10
115.12896
 20
187.55424
 10
115.50816
 20
190.03584
 10
116.12448
 20
192.43104
 10
116.96544
 20
194.72832
 10
118.01856
 20
196.91232
 10
119.27232
 20
198.97344
 10
120.71136
 20
200.89824
 10
122.32512
 20
202.67424
 10
124.10112
 20
204.288
 10
126.02592
 20
205.728
 10
128.08704
 20
206.98176
 10
130.272
 20
208.03488
 10
132.56832
 20
208.87584
 10
134.96352
 20
209.49216
 10
137.44512
 20
209.8704
 10
139.36128
 20
210
 10
139.99968
 20
210
  0
LWPOLYLINE
  5
56
100
AcDbEntity
  8
0
  6
ByLayer
 62
    0
370
   -1
100
AcDbPolyline
 90
   73
 70
    1
 43
0
 10
64.999968
 20
210
 10
65.63856
 20
210
 10
67.55414399999999
 20
209.8704
 10
70.035456
 20
209.49216
 10
72.430656
 20
208.87584
 10
74.72707199999999
 20
208.03488
 10
76.912032
 20
206.98176
 10
78.97344
 20
205.728
 10
80.898432
 20
204.288
 10
82.673952
 20
202.67424
 10
84.288
 20
200.89824
 10
85.727616
 20
198.97344
 10
86.98070399999999
 20
196.91232
 10
88.033824
 20
194.72832
 10
88.875072
 20
192.43104
 10
89.491776
 20
190.03584
 10
89.87030399999999
 20
187.55424
 10
90
 20
185.63904
 10
90
 20
184.99968
 10
90
 20
184.36128
 10
89.87030399999999
 20
182.44512
 10
89.491776
 20
179.96352
 10
88.875072
 20
177.56928
 10
88.033824
 20
175.27296
 10
86.98070399999999
 20
173.088
 10
85.727616
 20
171.02688
 10
84.288
 20
169.10112
 10
82.673952
 20
167.32704
 10
80.898432
 20
165.71232
 10
78.97344
 20
164.27232
 10
76.912032
 20
163.01856
 10
74.72707199999999
 20
161.9664
 10
72.430656
 20
161.12544
 10
70.035456
 20
160.50816
 10
67.55414399999999
 20
160.12896
 10
65.63856
 20
160.00032
 10
64.999968
 20
160.00032
 10
64.360896
 20
160.00032
 10
62.44531199999999
 20
160.12896
 10
59.964
 20
160.50816
 10
57.5688
 20
161.12544
 10
55.272384
 20
161.9664
 10
53.087424
 20
163.01856
 10
51.02601600000001
 20
164.27232
 10
49.101024
 20
165.71232
 10
47.325504
 20
167.32704
 10
45.711456
 20
169.10112
 10
44.27184
 20
171.02688
 10
43.018752
 20
173.088
 10
41.96563199999999
 20
175.27296
 10
41.124576
 20
177.56928
 10
40.507872
 20
179.96352
 10
40.129152
 20
182.44512
 10
40.000032
 20
184.36128
 10
40.000032
 20
184.99968
 10
40.000032
 20
185.63904
 10
40.129152
 20
187.55424
 10
40.507872
 20
190.03584
 10
41.124576
 20
192.43104
 10
41.96563199999999
 20
194.72832
 10
43.018752
 20
196.91232
 10
44.27184
 20
198.97344
 10
45.711456
 20
200.89824
 10
47.325504
 20
202.67424
 10
49.101024
 20
204.288
 10
51.02601600000001
 20
205.728
 10
53.087424
 20
206.98176
 10
55.272384
 20
208.03488
 10
57.5688
 20
208.87584
 10
59.964
 20
209.49216
 10
62.44531199999999
 20
209.8704
 10
64.360896
 20
210
 10
64.999968
 20
210
  0
LWPOLYLINE
  5
57
100
AcDbEntity
  8
0
  6
ByLayer
 62
    0
370
   -1
100
AcDbPolyline
 90
   41
 70
    1
 43
0
 10
199.99968
 20
203.30016
 10
200.16576
 20
203.30016
 10
200.664
 20
203.23296
 10
201.28416
 20
203.04
 10
201.84384
 20
202.73568
 10
202.33344
 20
202.33344
 10
202.73568
 20
201.84576
 10
203.04
 20
201.28416
 10
203.23296
 20
200.66496
 10
203.30016
 20
200.16672
 10
203.30016
 20
199.99968
 10
203.30016
 20
199.83456
 10
203.23296
 20
199.33632
 10
203.04
 20
198.71712
 10
202.73568
 20
198.15648
 10
202.33344
 20
197.66688
 10
201.84384
 20
197.26368
 10
201.28416
 20
196.96032
 10
200.664
 20
196.7664
 10
200.16576
 20
196.70016
 10
199.99968
 20
196.70016
 10
199.8336
 20
196.70016
 10
199.33632
 20
196.7664
 10
198.71616
 20
196.96032
 10
198.15456
 20
197.26368
 10
197.66688
 20
197.66688
 10
197.26368
 20
198.15648
 10
196.96032
 20
198.71712
 10
196.7664
 20
199.33632
 10
196.70016
 20
199.83456
 10
196.70016
 20
199.99968
 10
196.70016
 20
200.16672
 10
196.7664
 20
200.66496
 10
196.96032
 20
201.28416
 10
197.26368
 20
201.84576
 10
197.66688
 20
202.33344
 10
198.15456
 20
202.73568
 10
198.71616
 20
203.04
 10
199.33632
 20
203.23296
 10
199.8336
 20
203.30016
 10
199.99968
 20
203.30016
  0
LWPOLYLINE
  5
58
100
AcDbEntity
  8
0
  6
ByLayer
 62
    0
370
   -1
100
AcDbPolyline
 90
   41
 70
    1
 43
0
 10
400.00032
 20
203.30016
 10
400.16544
 20
203.30016
 10
400.6636799999999
 20
203.23296
 10
401.28384
 20
203.04
 10
401.84448
 20
202.73568
 10
402.33312
 20
202.33344
 10
402.73632
 20
201.84576
 10
403.03968
 20
201.28416
 10
403.2336
 20
200.66496
 10
403.29984
 20
200.16672
 10
403.29984
 20
199.99968
 10
403.29984
 20
199.83456
 10
403.2336
 20
199.33632
 10
403.03968
 20
198.71712
 10
402.73632
 20
198.15648
 10
402.33312
 20
197.66688
 10
401.84448
 20
197.26368
 10
401.28384
 20
196.96032
 10
400.6636799999999
 20
196.7664
 10
400.16544
 20
196.70016
 10
400.00032
 20
196.70016
 10
399.8332799999999
 20
196.70016
 10
399.336
 20
196.7664
 10
398.71584
 20
196.96032
 10
398.15424
 20
197.26368
 10
397.66656
 20
197.66688
 10
397.26432
 20
198.15648
 10
396.96
 20
198.71712
 10
396.76704
 20
199.33632
 10
396.6998399999999
 20
199.83456
 10
396.6998399999999
 20
199.99968
 10
396.6998399999999
 20
200.16672
 10
396.76704
 20
200.66496
 10
396.96
 20
201.28416
 10
397.26432
 20
201.84576
 10
397.66656
 20
202.33344
 10
398.15424
 20
202.73568
 10
398.71584
 20
203.04
 10
399.336
 20
203.23296
 10
399.8332799999999
 20
203.30016
 10
400.00032
 20
203.30016
  0
LWPOLYLINE
  5
59
100
AcDbEntity
  8
0
  6
ByLayer
 62
    0
370
   -1
100
AcDbPolyline
 90
   41
 70
    1
 43
0
 10
100.00032
 20
256.50048
 10
100.32672
 20
256.50048
 10
101.3088
 20
256.368
 10
102.52896
 20
255.98976
 10
103.63296
 20
255.38976
 10
104.59488
 20
254.59488
 10
105.3888
 20
253.63296
 10
105.9888
 20
252.52896
 10
106.368
 20
251.30976
 10
106.50048
 20
250.32768
 10
106.50048
 20
250.00032
 10
106.50048
 20
249.67296
 10
106.368
 20
248.69088
 10
105.9888
 20
247.47168
 10
105.3888
 20
246.36672
 10
104.59488
 20
245.40576
 10
103.63296
 20
244.61088
 10
102.52896
 20
244.01184
 10
101.3088
 20
243.63168
 10
100.32672
 20
243.50016
 10
100.00032
 20
243.50016
 10
99.672
 20
243.50016
 10
98.69088000000001
 20
243.63168
 10
97.47072
 20
244.01184
 10
96.36672
 20
244.61088
 10
95.404704
 20
245.40576
 10
94.6104
 20
246.36672
 10
94.01097599999999
 20
247.47168
 10
93.631776
 20
248.69088
 10
93.499968
 20
249.67296
 10
93.499968
 20
250.00032
 10
93.499968
 20
250.32768
 10
93.631776
 20
251.30976
 10
94.01097599999999
 20
252.52896
 10
94.6104
 20
253.63296
 10
95.404704
 20
254.59488
 10
96.36672
 20
255.38976
 10
97.47072
 20
255.98976
 10
98.69088000000001
 20
256.368
 10
99.672
 20
256.50048
 10
100.00032
 20
256.50048
  0
LWPOLYLINE
  5
5A
100
AcDbEntity
  8
0
  6
ByLayer
 62
    0
370
   -1
100
AcDbPolyline
 90
   41
 70
    1
 43
0
 10
499.99968
 20
256.50048
 10
500.32704
 20
256.50048
 10
501.30912
 20
256.368
 10
502.52832
 20
255.98976
 10
503.63328
 20
255.38976
 10
504.59424
 20
254.59488
 10
505.38912
 20
253.63296
 10
505.9881599999999
 20
252.52896
 10
506.3683199999999
 20
251.30976
 10
506.4998399999999
 20
250.32768
 10
506.4998399999999
 20
250.00032
 10
506.4998399999999
 20
249.67296
 10
506.3683199999999
 20
248.69088
 10
505.9881599999999
 20
247.47168
 10
505.38912
 20
246.36672
 10
504.59424
 20
245.40576
 10
503.63328
 20
244.61088
 10
502.52832
 20
244.01184
 10
501.30912
 20
243.63168
 10
500.32704
 20
243.50016
 10
499.99968
 20
243.50016
 10
499.67232
 20
243.50016
 10
498.69024
 20
243.63168
 10
497.47104
 20
244.01184
 10
496.36704
 20
244.61088
 10
495.40512
 20
245.40576
 10
494.61024
 20
246.36672
 10
494.01024
 20
247.47168
 10
493.632
 20
248.69088
 10
493.50048
 20
249.67296
 10
493.50048
 20
250.00032
 10
493.50048
 20
250.32768
 10
493.632
 20
251.30976
 10
494.01024
 20
252.52896
 10
494.61024
 20
253.63296
 10
495.40512
 20
254.59488
 10
496.36704
 20
255.38976
 10
497.47104
 20
255.98976
 10
498.69024
 20
256.368
 10
499.67232
 20
256.50048
 10
499.99968
 20
256.50048
  0
LWPOLYLINE
  5
5B
100
AcDbEntity
  8
0
  6
ByLayer
 62
    0
370
   -1
100
AcDbPolyline
 90
   41
 70
    1
 43
0
 10
49.999968
 20
253.29984
 10
50.166144
 20
253.29984
 10
50.664576
 20
253.2336
 10
51.283872
 20
253.03968
 10
51.844224
 20
252.73632
 10
52.33276799999999
 20
252.33312
 10
52.735968
 20
251.84544
 10
53.040096
 20
251.28384
 10
53.23276799999999
 20
250.6656
 10
53.299968
 20
250.1664
 10
53.299968
 20
250.00032
 10
53.299968
 20
249.83328
 10
53.23276799999999
 20
249.336
 10
53.040096
 20
248.71584
 10
52.735968
 20
248.15616
 10
52.33276799999999
 20
247.66656
 10
51.844224
 20
247.26432
 10
51.283872
 20
246.96
 10
50.664576
 20
246.76704
 10
50.166144
 20
246.69984
 10
49.999968
 20
246.69984
 10
49.833312
 20
246.69984
 10
49.334976
 20
246.76704
 10
48.715584
 20
246.96
 10
48.155232
 20
247.26432
 10
47.666688
 20
247.66656
 10
47.26358399999999
 20
248.15616
 10
46.95936
 20
248.71584
 10
46.76668799999999
 20
249.336
 10
46.699968
 20
249.83328
 10
46.699968
 20
250.00032
 10
46.699968
 20
250.1664
 10
46.76668799999999
 20
250.6656
 10
46.95936
 20
251.28384
 10
47.26358399999999
 20
251.84544
 10
47.666688
 20
252.33312
 10
48.155232
 20
252.73632
 10
48.715584
 20
253.03968
 10
49.334976
 20
253.2336
 10
49.833312
 20
253.29984
 10
49.999968
 20
253.29984
  0
LWPOLYLINE
  5
5C
100
AcDbEntity
  8
0
  6
ByLayer
 62
    0
370
   -1
100
AcDbPolyline
 90
   41
 70
    1
 43
0
 10
550.00032
 20
253.29984
 10
550.16544
 20
253.29984
 10
550.66368
 20
253.2336
 10
551.2838400000001
 20
253.03968
 10
551.84448
 20
252.73632
 10
552.33312
 20
252.33312
 10
552.73632
 20
251.84544
 10
553.03968
 20
251.28384
 10
553.2336
 20
250.6656
 10
553.2998399999999
 20
250.1664
 10
553.2998399999999
 20
250.00032
 10
553.2998399999999
 20
249.83328
 10
553.2336
 20
249.336
 10
553.03968
 20
248.71584
 10
552.73632
 20
248.15616
 10
552.33312
 20
247.66656
 10
551.84448
 20
247.26432
 10
551.2838400000001
 20
246.96
 10
550.66368
 20
246.76704
 10
550.16544
 20
246.69984
 10
550.00032
 20
246.69984
 10
549.8332799999999
 20
246.69984
 10
549.3359999999999
 20
246.76704
 10
548.71584
 20
246.96
 10
548.15424
 20
247.26432
 10
547.66656
 20
247.66656
 10
547.26432
 20
248.15616
 10
546.96
 20
248.71584
 10
546.76704
 20
249.336
 10
546.69984
 20
249.83328
 10
546.69984
 20
250.00032
 10
546.69984
 20
250.1664
 10
546.76704
 20
250.6656
 10
546.96
 20
251.28384
 10
547.26432
 20
251.84544
 10
547.66656
 20
252.33312
 10
548.15424
 20
252.73632
 10
548.71584
 20
253.03968
 10
549.3359999999999
 20
253.2336
 10
549.8332799999999
 20
253.29984
 10
550.00032
 20
253.29984
  0
ENDSEC
  0
SECTION
  2
OBJECTS
  0
DICTIONARY
  5
C
330
0
100
AcDbDictionary
281
    1
  3
ACAD_GROUP
350
D
  0
DICTIONARY
  5
D
330
C
100
AcDbDictionary
281
    1
  0
ENDSEC
  0
EOF
