999
dxfrw 0.6.3
  0
SECTION
  2
HEADER
  9
$ACADVER
  1
AC1021
  9
$DWGCODEPAGE
  3
ANSI_1252
  9
$INSBASE
 10
0
 20
0
 30
0
  9
$EXTMIN
 10
10000000000
 20
10000000000
 30
0
  9
$EXTMAX
 10
-10000000000
 20
-10000000000
 30
0
  9
$LIMMIN
 10
0
 20
0
  9
$LIMMAX
 10
420
 20
297
  9
$ORTHOMODE
 70
    0
  9
$REGENMODE
 70
    1
  9
$FILLMODE
 70
    1
  9
$QTEXTMODE
 70
    0
  9
$MIRRTEXT
 70
    0
  9
$LTSCALE
 40
1
  9
$ATTMODE
 70
    0
  9
$TEXTSIZE
 40
2.5
  9
$TRACEWID
 40
15.68
  9
$TEXTSTYLE
  7
STANDARD
  9
$CLAYER
  8
0
  9
$CELTYPE
  6
BYLAYER
  9
$CECOLOR
 62
  256
  9
$CELTSCALE
 40
1
  9
$DISPSILH
 70
    0
  9
$DIMSCALE
 40
2.5
  9
$DIMASZ
 40
2.5
  9
$DIMEXO
 40
0.625
  9
$DIMDLI
 40
3.75
  9
$DIMRND
 40
0
  9
$DIMDLE
 40
0
  9
$DIMEXE
 40
1.25
  9
$DIMTP
 40
0
  9
$DIMTM
 40
0
  9
$DIMTXT
 40
2.5
  9
$DIMCEN
 40
2.5
  9
$DIMTSZ
 40
0
  9
$DIMTOL
 70
    0
  9
$DIMLIM
 70
    0
  9
$DIMTIH
 70
    0
  9
$DIMTOH
 70
    0
  9
$DIMSE1
 70
    0
  9
$DIMSE2
 70
    0
  9
$DIMTAD
 70
    1
  9
$DIMZIN
 70
    8
  9
$DIMBLK
  1

  9
$DIMASO
 70
    1
  9
$DIMSHO
 70
    1
  9
$DIMPOST
  1

  9
$DIMAPOST
  1

  9
$DIMALT
 70
    0
  9
$DIMALTD
 70
    3
  9
$DIMALTF
 40
0.03937
  9
$DIMLFAC
 40
1
  9
$DIMTOFL
 70
    1
  9
$DIMTVP
 40
0
  9
$DIMTIX
 70
    0
  9
$DIMSOXD
 70
    0
  9
$DIMSAH
 70
    0
  9
$DIMBLK1
  1

  9
$DIMBLK2
  1

  9
$DIMSTYLE
  2
Standard
  9
$DIMCLRD
 70
    0
  9
$DIMCLRE
 70
    0
  9
$DIMCLRT
 70
    0
  9
$DIMTFAC
 40
1
  9
$DIMGAP
 40
0.625
  9
$DIMJUST
 70
    0
  9
$DIMSD1
 70
    0
  9
$DIMSD2
 70
    0
  9
$DIMTOLJ
 70
    0
  9
$DIMTZIN
 70
    8
  9
$DIMALTZ
 70
    0
  9
$DIMALTTZ
 70
    0
  9
$DIMUPT
 70
    0
  9
$DIMDEC
 70
    2
  9
$DIMTDEC
 70
    2
  9
$DIMALTU
 70
    2
  9
$DIMALTTD
 70
    3
  9
$DIMTXSTY
  7
STANDARD
  9
$DIMAUNIT
 70
    0
  9
$DIMADEC
 70
    0
  9
$DIMALTRND
 40
0
  9
$DIMAZIN
 70
    0
  9
$DIMDSEP
 70
   44
  9
$DIMATFIT
 70
    3
  9
$DIMFRAC
 70
    0
  9
$DIMLDRBLK
  1
STANDARD
  9
$DIMLUNIT
 70
    2
  9
$DIMLWD
 70
   -2
  9
$DIMLWE
 70
   -2
  9
$DIMTMOVE
 70
    0
  9
$DIMFXL
 40
1
  9
$DIMFXLON
 70
    0
  9
$DIMJOGANG
 40
0.7854
  9
$DIMTFILL
 70
    0
  9
$DIMTFILLCLR
 70
    0
  9
$DIMARCSYM
 70
    0
  9
$DIMLTYPE
  6

  9
$DIMLTEX1
  6

  9
$DIMLTEX2
  6

  9
$LUNITS
 70
    2
  9
$LUPREC
 70
    4
  9
$SKETCHINC
 40
1
  9
$FILLETRAD
 40
0
  9
$AUNITS
 70
    0
  9
$AUPREC
 70
    2
  9
$MENU
  1
.
  9
$ELEVATION
 40
0
  9
$PELEVATION
 40
0
  9
$THICKNESS
 40
0
  9
$LIMCHECK
 70
    0
  9
$CHAMFERA
 40
0
  9
$CHAMFERB
 40
0
  9
$CHAMFERC
 40
0
  9
$CHAMFERD
 40
0
  9
$SKPOLY
 70
    0
  9
$USRTIMER
 70
    1
  9
$ANGBASE
 50
0
  9
$ANGDIR
 70
    0
  9
$PDMODE
 70
   34
  9
$PDSIZE
 40
0
  9
$PLINEWID
 40
0
  9
$SPLFRAME
 70
    0
  9
$SPLINETYPE
 70
    2
  9
$SPLINESEGS
 70
    8
  9
$HANDSEED
  5
20000
  9
$SURFTAB1
 70
    6
  9
$SURFTAB2
 70
    6
  9
$SURFTYPE
 70
    6
  9
$SURFU
 70
    6
  9
$SURFV
 70
    6
  9
$UCSBASE
  2

  9
$UCSNAME
  2

  9
$UCSORG
 10
0
 20
0
 30
0
  9
$UCSXDIR
 10
1
 20
0
 30
0
  9
$UCSYDIR
 10
0
 20
1
 30
0
  9
$UCSORTHOREF
  2

  9
$UCSORTHOVIEW
 70
    0
  9
$UCSORGTOP
 10
0
 20
0
 30
0
  9
$UCSORGBOTTOM
 10
0
 20
0
 30
0
  9
$UCSORGLEFT
 10
0
 20
0
 30
0
  9
$UCSORGRIGHT
 10
0
 20
0
 30
0
  9
$UCSORGFRONT
 10
0
 20
0
 30
0
  9
$UCSORGBACK
 10
0
 20
0
 30
0
  9
$PUCSBASE
  2

  9
$PUCSNAME
  2

  9
$PUCSORG
 10
0
 20
0
 30
0
  9
$PUCSXDIR
 10
1
 20
0
 30
0
  9
$PUCSYDIR
 10
0
 20
1
 30
0
  9
$PUCSORTHOREF
  2

  9
$PUCSORTHOVIEW
 70
    0
  9
$PUCSORGTOP
 10
0
 20
0
 30
0
  9
$PUCSORGBOTTOM
 10
0
 20
0
 30
0
  9
$PUCSORGLEFT
 10
0
 20
0
 30
0
  9
$PUCSORGRIGHT
 10
0
 20
0
 30
0
  9
$PUCSORGFRONT
 10
0
 20
0
 30
0
  9
$PUCSORGBACK
 10
0
 20
0
 30
0
  9
$USERI1
 70
    0
  9
$USERI2
 70
    0
  9
$USERI3
 70
    0
  9
$USERI4
 70
    0
  9
$USERI5
 70
    0
  9
$USERR1
 40
0
  9
$USERR2
 40
0
  9
$USERR3
 40
0
  9
$USERR4
 40
0
  9
$USERR5
 40
0
  9
$WORLDVIEW
 70
    1
  9
$SHADEDGE
 70
    3
  9
$SHADEDIF
 70
   70
  9
$TILEMODE
 70
    1
  9
$MAXACTVP
 70
   64
  9
$PINSBASE
 10
0
 20
0
 30
0
  9
$PLIMCHECK
 70
    0
  9
$PEXTMIN
 10
0
 20
0
 30
0
  9
$PEXTMAX
 10
0
 20
0
 30
0
  9
$SNAPSTYLE
 70
    0
  9
$PLIMMIN
 10
0
 20
0
  9
$PLIMMAX
 10
210
 20
297
  9
$UNITMODE
 70
    0
  9
$VISRETAIN
 70
    1
  9
$PLINEGEN
 70
    0
  9
$PSLTSCALE
 70
    1
  9
$TREEDEPTH
 70
 3020
  9
$CMLSTYLE
  2
Standard
  9
$CMLJUST
 70
    0
  9
$CMLSCALE
 40
20
  9
$PROXYGRAPHICS
 70
    1
  9
$MEASUREMENT
 70
    1
  9
$CELWEIGHT
370
   -1
  9
$ENDCAPS
280
    0
  9
$JOINSTYLE
280
    0
  9
$LWDISPLAY
290
    0
  9
$INSUNITS
 70
    4
  9
$HYPERLINKBASE
  1

  9
$STYLESHEET
  1

  9
$XEDIT
290
    1
  9
$CEPSNTYPE
380
    0
  9
$PSTYLEMODE
290
    1
  9
$EXTNAMES
290
    1
  9
$PSVPSCALE
 40
1
  9
$OLESTARTUP
290
    0
  9
$SORTENTS
280
  127
  9
$INDEXCTL
280
    0
  9
$HIDETEXT
280
    1
  9
$XCLIPFRAME
290
    0
  9
$HALOGAP
280
    0
  9
$OBSCOLOR
 70
  257
  9
$OBSLTYPE
280
    0
  9
$INTERSECTIONDISPLAY
280
    0
  9
$INTERSECTIONCOLOR
 70
  257
  9
$DIMASSOC
280
    1
  9
$PROJECTNAME
  1

  9
$CAMERADISPLAY
290
    0
  9
$LENSLENGTH
 40
50
  9
$CAMERAHEIGHT
 40
0
  9
$STEPSPERSEC
 40
2
  9
$STEPSIZE
 40
50
  9
$3DDWFPREC
 40
2
  9
$PSOLWIDTH
 40
5
  9
$PSOLHEIGHT
 40
80
  9
$LOFTANG1
 40
1.570796326794897
  9
$LOFTANG2
 40
1.570796326794897
  9
$LOFTMAG1
 40
0
  9
$LOFTMAG2
 40
0
  9
$LOFTPARAM
 70
    7
  9
$LOFTNORMALS
280
    1
  9
$LATITUDE
 40
1
  9
$LONGITUDE
 40
1
  9
$NORTHDIRECTION
 40
0
  9
$TIMEZONE
 70
-8000
  9
$LIGHTGLYPHDISPLAY
280
    1
  9
$TILEMODELIGHTSYNCH
280
    1
  9
$SOLIDHIST
280
    1
  9
$SHOWHIST
280
    1
  9
$DWFFRAME
280
    2
  9
$DGNFRAME
280
    0
  9
$REALWORLDSCALE
290
    1
  9
$INTERFERECOLOR
 62
    1
  9
$CSHADOW
280
    0
  9
$SHADOWPLANELOCATION
 40
0
  0
ENDSEC
  0
SECTION
  2
CLASSES
  0
ENDSEC
  0
SECTION
  2
TABLES
  0
TABLE
  2
VPORT
  5
8
330
0
100
AcDbSymbolTable
 70
    1
  0
VPORT
  5
31
330
2
100
AcDbSymbolTableRecord
100
AcDbViewportTableRecord
  2
*ACTIVE
 70
    0
 10
0
 20
0
 11
1
 21
1
 12
458.3717229655589
 22
214.4173214826958
 13
0
 23
0
 14
10
 24
10
 15
10
 25
10
 16
0
 26
0
 36
1
 17
0
 27
0
 37
0
 40
606.7864335836834
 41
1.731971153846154
 42
50
 43
0
 44
0
 50
0
 51
0
 71
    0
 72
  100
 73
    1
 74
    3
 75
    0
 76
    1
 77
    0
 78
    0
281
    0
 65
    1
110
0
120
0
130
0
111
1
121
0
131
0
112
0
122
1
132
0
 79
    0
146
0
348
10020
 60
    7
 61
    5
292
1
282
    1
141
0
142
0
 63
  250
421
3358443
  0
ENDTAB
  0
TABLE
  2
LTYPE
  5
5
330
0
100
AcDbSymbolTable
 70
    4
  0
LTYPE
  5
14
330
5
100
AcDbSymbolTableRecord
100
AcDbLinetypeTableRecord
  2
ByBlock
 70
    0
  3

 72
   65
 73
    0
 40
0
  0
LTYPE
  5
15
330
5
100
AcDbSymbolTableRecord
100
AcDbLinetypeTableRecord
  2
ByLayer
 70
    0
  3

 72
   65
 73
    0
 40
0
  0
LTYPE
  5
16
330
5
100
AcDbSymbolTableRecord
100
AcDbLinetypeTableRecord
  2
Continuous
 70
    0
  3
Solid line
 72
   65
 73
    0
 40
0
  0
LTYPE
  5
32
330
5
100
AcDbSymbolTableRecord
100
AcDbLinetypeTableRecord
  2
DOT
 70
    0
  3
Dot . . . . . . . . . . . . . . . . . . . . . .
 72
   65
 73
    2
 40
6.35
 49
0
 74
    0
 49
-6.35
 74
    0
  0
LTYPE
  5
33
330
5
100
AcDbSymbolTableRecord
100
AcDbLinetypeTableRecord
  2
DOTTINY
 70
    0
  3
Dot (.15x) .....................................
 72
   65
 73
    2
 40
0.9525
 49
0
 74
    0
 49
-0.9525
 74
    0
  0
LTYPE
  5
34
330
5
100
AcDbSymbolTableRecord
100
AcDbLinetypeTableRecord
  2
DOT2
 70
    0
  3
Dot (.5x) .....................................
 72
   65
 73
    2
 40
3.175
 49
0
 74
    0
 49
-3.175
 74
    0
  0
LTYPE
  5
35
330
5
100
AcDbSymbolTableRecord
100
AcDbLinetypeTableRecord
  2
DOTX2
 70
    0
  3
Dot (2x) .  .  .  .  .  .  .  .  .  .  .  .  .
 72
   65
 73
    2
 40
12.7
 49
0
 74
    0
 49
-12.7
 74
    0
  0
LTYPE
  5
36
330
5
100
AcDbSymbolTableRecord
100
AcDbLinetypeTableRecord
  2
DASHED
 70
    0
  3
Dashed _ _ _ _ _ _ _ _ _ _ _ _ _ _ _ _ _
 72
   65
 73
    2
 40
19.05
 49
12.7
 74
    0
 49
-6.35
 74
    0
  0
LTYPE
  5
37
330
5
100
AcDbSymbolTableRecord
100
AcDbLinetypeTableRecord
  2
DASHEDTINY
 70
    0
  3
Dashed (.15x) _ _ _ _ _ _ _ _ _ _ _ _ _ _ _ _ _
 72
   65
 73
    2
 40
2.8575
 49
1.905
 74
    0
 49
-0.9525
 74
    0
  0
LTYPE
  5
38
330
5
100
AcDbSymbolTableRecord
100
AcDbLinetypeTableRecord
  2
DASHED2
 70
    0
  3
Dashed (.5x) _ _ _ _ _ _ _ _ _ _ _ _ _ _ _ _ _
 72
   65
 73
    2
 40
9.524999999999999
 49
6.35
 74
    0
 49
-3.175
 74
    0
  0
LTYPE
  5
39
330
5
100
AcDbSymbolTableRecord
100
AcDbLinetypeTableRecord
  2
DASHEDX2
 70
    0
  3
Dashed (2x) ____  ____  ____  ____  ____  ___
 72
   65
 73
    2
 40
38.09999999999999
 49
25.4
 74
    0
 49
-12.7
 74
    0
  0
LTYPE
  5
3A
330
5
100
AcDbSymbolTableRecord
100
AcDbLinetypeTableRecord
  2
DASHDOT
 70
    0
  3
Dash dot __ . __ . __ . __ . __ . __ . __ . __
 72
   65
 73
    4
 40
25.4
 49
12.7
 74
    0
 49
-6.35
 74
    0
 49
0
 74
    0
 49
-6.35
 74
    0
  0
LTYPE
  5
3B
330
5
100
AcDbSymbolTableRecord
100
AcDbLinetypeTableRecord
  2
DASHDOTTINY
 70
    0
  3
Dash dot (.15x) _._._._._._._._._._._._._._._.
 72
   65
 73
    4
 40
3.81
 49
1.905
 74
    0
 49
-0.9525
 74
    0
 49
0
 74
    0
 49
-0.9525
 74
    0
  0
LTYPE
  5
3C
330
5
100
AcDbSymbolTableRecord
100
AcDbLinetypeTableRecord
  2
DASHDOT2
 70
    0
  3
Dash dot (.5x) _._._._._._._._._._._._._._._.
 72
   65
 73
    4
 40
12.7
 49
6.35
 74
    0
 49
-3.175
 74
    0
 49
0
 74
    0
 49
-3.175
 74
    0
  0
LTYPE
  5
3D
330
5
100
AcDbSymbolTableRecord
100
AcDbLinetypeTableRecord
  2
DASHDOTX2
 70
    0
  3
Dash dot (2x) ____  .  ____  .  ____  .  ___
 72
   65
 73
    4
 40
50.8
 49
25.4
 74
    0
 49
-12.7
 74
    0
 49
0
 74
    0
 49
-12.7
 74
    0
  0
LTYPE
  5
3E
330
5
100
AcDbSymbolTableRecord
100
AcDbLinetypeTableRecord
  2
DIVIDE
 70
    0
  3
Divide ____ . . ____ . . ____ . . ____ . . ____
 72
   65
 73
    6
 40
31.75
 49
12.7
 74
    0
 49
-6.35
 74
    0
 49
0
 74
    0
 49
-6.35
 74
    0
 49
0
 74
    0
 49
-6.35
 74
    0
  0
LTYPE
  5
3F
330
5
100
AcDbSymbolTableRecord
100
AcDbLinetypeTableRecord
  2
DIVIDETINY
 70
    0
  3
Divide (.15x) __..__..__..__..__..__..__..__.._
 72
   65
 73
    6
 40
4.7625
 49
1.905
 74
    0
 49
-0.9525
 74
    0
 49
0
 74
    0
 49
-0.9525
 74
    0
 49
0
 74
    0
 49
-0.9525
 74
    0
  0
LTYPE
  5
40
330
5
100
AcDbSymbolTableRecord
100
AcDbLinetypeTableRecord
  2
DIVIDE2
 70
    0
  3
Divide (.5x) __..__..__..__..__..__..__..__.._
 72
   65
 73
    6
 40
15.875
 49
6.35
 74
    0
 49
-3.175
 74
    0
 49
0
 74
    0
 49
-3.175
 74
    0
 49
0
 74
    0
 49
-3.175
 74
    0
  0
LTYPE
  5
41
330
5
100
AcDbSymbolTableRecord
100
AcDbLinetypeTableRecord
  2
DIVIDEX2
 70
    0
  3
Divide (2x) ________  .  .  ________  .  .  _
 72
   65
 73
    6
 40
63.5
 49
25.4
 74
    0
 49
-12.7
 74
    0
 49
0
 74
    0
 49
-12.7
 74
    0
 49
0
 74
    0
 49
-12.7
 74
    0
  0
LTYPE
  5
42
330
5
100
AcDbSymbolTableRecord
100
AcDbLinetypeTableRecord
  2
BORDER
 70
    0
  3
Border __ __ . __ __ . __ __ . __ __ . __ __ .
 72
   65
 73
    6
 40
44.45
 49
12.7
 74
    0
 49
-6.35
 74
    0
 49
12.7
 74
    0
 49
-6.35
 74
    0
 49
0
 74
    0
 49
-6.35
 74
    0
  0
LTYPE
  5
43
330
5
100
AcDbSymbolTableRecord
100
AcDbLinetypeTableRecord
  2
BORDERTINY
 70
    0
  3
Border (.15x) __.__.__.__.__.__.__.__.__.__.__.
 72
   65
 73
    6
 40
6.6675
 49
1.905
 74
    0
 49
-0.9525
 74
    0
 49
1.905
 74
    0
 49
-0.9525
 74
    0
 49
0
 74
    0
 49
-0.9525
 74
    0
  0
LTYPE
  5
44
330
5
100
AcDbSymbolTableRecord
100
AcDbLinetypeTableRecord
  2
BORDER2
 70
    0
  3
Border (.5x) __.__.__.__.__.__.__.__.__.__.__.
 72
   65
 73
    6
 40
22.225
 49
6.35
 74
    0
 49
-3.175
 74
    0
 49
6.35
 74
    0
 49
-3.175
 74
    0
 49
0
 74
    0
 49
-3.175
 74
    0
  0
LTYPE
  5
45
330
5
100
AcDbSymbolTableRecord
100
AcDbLinetypeTableRecord
  2
BORDERX2
 70
    0
  3
Border (2x) ____  ____  .  ____  ____  .  ___
 72
   65
 73
    6
 40
88.89999999999999
 49
25.4
 74
    0
 49
-12.7
 74
    0
 49
25.4
 74
    0
 49
-12.7
 74
    0
 49
0
 74
    0
 49
-12.7
 74
    0
  0
LTYPE
  5
46
330
5
100
AcDbSymbolTableRecord
100
AcDbLinetypeTableRecord
  2
CENTER
 70
    0
  3
Center ____ _ ____ _ ____ _ ____ _ ____ _ ____
 72
   65
 73
    4
 40
50.8
 49
31.75
 74
    0
 49
-6.35
 74
    0
 49
6.35
 74
    0
 49
-6.35
 74
    0
  0
LTYPE
  5
47
330
5
100
AcDbSymbolTableRecord
100
AcDbLinetypeTableRecord
  2
CENTERTINY
 70
    0
  3
Center (.15x) ___ _ ___ _ ___ _ ___ _ ___ _ ___
 72
   65
 73
    4
 40
7.619999999999999
 49
4.7625
 74
    0
 49
-0.9525
 74
    0
 49
0.9525
 74
    0
 49
-0.9525
 74
    0
  0
LTYPE
  5
48
330
5
100
AcDbSymbolTableRecord
100
AcDbLinetypeTableRecord
  2
CENTER2
 70
    0
  3
Center (.5x) ___ _ ___ _ ___ _ ___ _ ___ _ ___
 72
   65
 73
    4
 40
28.575
 49
19.05
 74
    0
 49
-3.175
 74
    0
 49
3.175
 74
    0
 49
-3.175
 74
    0
  0
LTYPE
  5
49
330
5
100
AcDbSymbolTableRecord
100
AcDbLinetypeTableRecord
  2
CENTERX2
 70
    0
  3
Center (2x) ________  __  ________  __  _____
 72
   65
 73
    4
 40
101.6
 49
63.5
 74
    0
 49
-12.7
 74
    0
 49
12.7
 74
    0
 49
-12.7
 74
    0
  0
ENDTAB
  0
TABLE
  2
LAYER
  5
2
330
0
100
AcDbSymbolTable
 70
    1
  0
LAYER
  5
10
330
2
100
AcDbSymbolTableRecord
100
AcDbLayerTableRecord
  2
0
 70
    0
 62
    7
  6
CONTINUOUS
370
    0
390
F
  0
ENDTAB
  0
TABLE
  2
STYLE
  5
3
330
0
100
AcDbSymbolTable
 70
    3
  0
STYLE
  5
4A
330
2
100
AcDbSymbolTableRecord
100
AcDbTextStyleTableRecord
  2
Standard
 70
    0
 40
0
 41
1
 50
0
 71
    0
 42
1
  3
txt
  4

  0
ENDTAB
  0
TABLE
  2
VIEW
  5
6
330
0
100
AcDbSymbolTable
 70
    0
  0
ENDTAB
  0
TABLE
  2
UCS
  5
7
330
0
100
AcDbSymbolTable
 70
    0
  0
ENDTAB
  0
TABLE
  2
APPID
  5
9
330
0
100
AcDbSymbolTable
 70
    1
  0
APPID
  5
12
330
9
100
AcDbSymbolTableRecord
100
AcDbRegAppTableRecord
  2
ACAD
 70
    0
  0
APPID
  5
4B
330
9
100
AcDbSymbolTableRecord
100
AcDbRegAppTableRecord
  2
LibreCad
 70
    0
  0
ENDTAB
  0
TABLE
  2
DIMSTYLE
  5
A
330
0
100
AcDbSymbolTable
 70
    1
100
AcDbDimStyleTable
 71
    1
  0
DIMSTYLE
105
4C
330
A
100
AcDbSymbolTableRecord
100
AcDbDimStyleTableRecord
  2
Standard
 70
    0
 40
1
 41
2.5
 42
0.625
 43
0.38
 44
1.25
 45
0
 46
0
 47
0
 48
0
 49
1
140
2.5
141
0.09
142
2.5
143
25.4
144
1
145
0
146
1
147
0.625
148
0
 71
    0
 72
    0
 73
    0
 74
    1
 75
    0
 76
    0
 77
    0
 78
    1
 79
    0
170
    0
171
    2
172
    0
173
    0
174
    0
175
    0
176
    0
177
    0
178
    0
179
    0
271
    2
272
    4
273
    2
274
    2
275
    0
276
    0
277
    2
278
    0
279
    0
280
    0
281
    0
282
    0
283
    1
284
    0
285
    0
286
    0
288
    0
289
    3
340
standard
341

371
   -2
372
   -2
  0
ENDTAB
  0
TABLE
  2
BLOCK_RECORD
  5
1
330
0
100
AcDbSymbolTable
 70
    2
  0
BLOCK_RECORD
  5
1F
330
1
100
AcDbSymbolTableRecord
100
AcDbBlockTableRecord
  2
*Model_Space
 70
    0
280
    1
281
    0
  0
BLOCK_RECORD
  5
1E
330
1
100
AcDbSymbolTableRecord
100
AcDbBlockTableRecord
  2
*Paper_Space
 70
    0
280
    1
281
    0
  0
ENDTAB
  0
ENDSEC
  0
SECTION
  2
BLOCKS
  0
BLOCK
  5
20
330
1F
100
AcDbEntity
  8
0
100
AcDbBlockBegin
  2
*Model_Space
 70
    0
 10
0
 20
0
 30
0
  3
*Model_Space
  1

  0
ENDBLK
  5
21
330
1F
100
AcDbEntity
  8
0
100
AcDbBlockEnd
  0
BLOCK
  5
1C
330
1B
100
AcDbEntity
  8
0
100
AcDbBlockBegin
  2
*Paper_Space
 70
    0
 10
0
 20
0
 30
0
  3
*Paper_Space
  1

  0
ENDBLK
  5
1D
330
1F
100
AcDbEntity
  8
0
100
AcDbBlockEnd
  0
ENDSEC
  0
SECTION
  2
ENTITIES
  0
LWPOLYLINE
  5
4D
100
AcDbEntity
  8
0
  6
ByLayer
 62
  256
370
   -1
100
AcDbPolyline
 90
  168
 70
    1
 43
0
 10
382.78296
 20
287.1204053566801
 42
0.01367000000000002
 10
376.62819248523
 20
286.68283678615
 42
0.015309
 10
370.73596362509
 20
285.91891765542
 42
0.01552300000000002
 10
364.9763520078899
 20
284.80772099136
 42
0.01492100000000003
 10
359.21955097658
 20
283.32875787461
 42
0.01494400000000002
 10
353.83992116263
 20
281.59843555242
 42
0.01428600000000003
 10
348.49079451627
 20
279.52587517099
 42
0.01434400000000007
 10
343.29147744437
 20
277.16082076025
 42
0.01540700000000001
 10
338.3609868591399
 20
274.55370879006
 42
-0.001470000000000027
 10
337.81293163849
 20
274.24406807028
 42
-0.002352000000000157
 10
337.3429522047899
 20
273.9832573557099
 42
-0.0004489999999998925
 10
336.92759979151
 20
273.75579590436
 42
-0.1256869999999859
 10
336.88920674087
 20
273.7459900000001
 42
0.1497600000000501
 10
336.85176824019
 20
273.73451915026
 42
0.0004960000000000053
 10
336.44793171584
 20
273.46083304533
 42
0.002666000000000007
 10
335.99167017619
 20
273.14738857035
 42
0.001660000000000047
 10
335.4598792189399
 20
272.7752427836801
 42
-0.05443100000000011
 10
317.2285346124299
 20
262.6930058400199
 42
-0.05368399999999984
 10
297.16680585067
 20
256.7251806555099
 42
-0.05352099999999996
 10
276.23640101526
 20
255.15386793974
 42
-0.05344800000000001
 10
255.4394149999999
 20
258.05917054414
 42
-0.01133899999999996
 10
251.5118807708499
 20
259.1388414804701
 42
-0.01018199999999999
 10
247.49269881175
 20
260.43211734568
 42
-0.01024900000000003
 10
243.559681638
 20
261.8774824304101
 42
-0.01198399999999996
 10
239.891365
 20
263.41391525267
 42
0.02671699999999996
 10
231.47654928776
 20
266.6505049733
 42
0.02374500000000005
 10
222.42880907317
 20
269.11838556008
 42
0.02355699999999999
 10
213.10917529335
 20
270.73445780157
 42
0.02514699999999997
 10
203.880075
 20
271.42152282084
 42
0.01045499999999998
 10
198.94384557936
 20
271.43690836864
 42
0.01200100000000003
 10
194.23383998529
 20
271.2399481789901
 42
0.01229900000000002
 10
189.64480333603
 20
270.82400744756
 42
0.012221
 10
185.07195
 20
270.1822627872201
 42
0.004876000000000009
 10
182.7205963303
 20
269.76987192638
 42
0.007324000000000005
 10
180.67861565299
 20
269.3601529226999
 42
0.006507999999999893
 10
178.4820654911
 20
268.85583918158
 42
0.002920999999999956
 10
175.60897784444
 20
268.13890415144
 42
-0.01030600000000005
 10
171.80117593842
 20
267.2482494546199
 42
-0.009934000000000111
 10
167.9130849052999
 20
266.503347194
 42
-0.009893000000000077
 10
163.9818339900299
 20
265.9106507131199
 42
-0.01000300000000005
 10
160.0446049999999
 20
265.47640430948
 42
-0.01382500000000006
 10
155.4069115809
 20
265.18758864787
 42
-0.01123500000000005
 10
150.4272449209599
 20
265.12744628272
 42
-0.01115199999999992
 10
145.40411022655
 20
265.2917449345099
 42
-0.01291900000000011
 10
140.6346199999999
 20
265.6781384526499
 42
-0.01274300000000003
 10
136.0630035865799
 20
266.28585264456
 42
-0.01180799999999985
 10
131.40995070028
 20
267.1386013961
 42
-0.01178499999999992
 10
126.79260366003
 20
268.21211450215
 42
-0.01255299999999995
 10
122.328045
 20
269.48196176314
 42
0.01973699999999995
 10
118.89682659505
 20
270.40483924188
 42
0.01291000000000001
 10
114.87894565665
 20
271.20868084982
 42
0.01169499999999994
 10
110.36508814247
 20
271.8828086877701
 42
0.009075999999999999
 10
105.42581
 20
272.411887062
 42
0.009694000000000013
 10
104.16692030248
 20
272.4991042998701
 42
0.006714000000000036
 10
102.74067159538
 20
272.55097961637
 42
0.004446999999999908
 10
100.81979006526
 20
272.5779392329001
 42
0.001284999999999971
 10
97.85240499999992
 20
272.5855647991001
 42
0.002356999999999903
 10
94.07738390043002
 20
272.5677715103701
 42
0.009120999999999978
 10
91.73682980594999
 20
272.50299793283
 42
0.01133599999999995
 10
89.66013233919
 20
272.36035610973
 42
0.005248999999999955
 10
86.96877000000001
 20
272.08556769821
 42
0.03393900000000004
 10
73.77628157389
 20
269.68362298094
 42
0.03448199999999996
 10
61.10208548864002
 20
265.52729969759
 42
0.03447199999999993
 10
49.11601189068001
 20
259.66714987514
 42
0.03387599999999995
 10
37.97511684918
 20
252.1853677282101
 42
0.007359999999999919
 10
35.52009118952001
 20
250.2250169214601
 42
0.009037
 10
33.28901773617
 20
248.32041068884
 42
0.00879099999999996
 10
31.07850351949003
 20
246.29275819162
 42
0.00635100000000002
 10
28.68348069377001
 20
243.95844257666
 42
0.01136700000000002
 10
25.29263234925
 20
240.41075663815
 42
0.01275499999999995
 10
22.1980793818
 20
236.84347283401
 42
0.01284500000000008
 10
19.30861231585996
 20
233.14614483874
 42
0.01187099999999996
 10
16.53331056866999
 20
229.20835
 42
0.04296999999999991
 10
8.37613818244003
 20
214.42829683254
 42
0.04357500000000006
 10
2.910349601740023
 20
198.53954803025
 42
0.04346299999999994
 10
0.2709703119900126
 20
181.90500240276
 42
0.04229600000000004
 10
0.5098916792899786
 20
164.9096400000001
 42
0.05592200000000002
 10
4.990367730739962
 20
143.9222321012001
 42
0.05521599999999981
 10
14.02137663856993
 20
124.3533360995102
 42
0.05508500000000003
 10
27.14022157538989
 20
107.1946484532001
 42
0.05514000000000008
 10
43.68500499999988
 20
93.32089924535008
 42
0.006450999999999969
 10
46.34198769164991
 20
91.60002181183006
 42
0.01047099999999993
 10
48.64776802059995
 20
90.21504164183006
 42
0.01208500000000012
 10
50.72806330612998
 20
89.08991111629001
 42
0.01554899999999996
 10
52.69445819161998
 20
88.16290086555
 42
-0.01902300000000003
 10
59.20682172817998
 20
85.03733555695
 42
-0.01829000000000004
 10
65.55064520521999
 20
81.38747184623999
 42
-0.01827999999999999
 10
71.61412801192998
 20
77.28159646809
 42
-0.01895000000000001
 10
77.28689745035003
 20
72.79031131196997
 42
-0.02112199999999993
 10
83.48179388031002
 20
67.02137909018998
 42
-0.02161899999999993
 10
89.11771273495998
 20
60.79320632238001
 42
-0.02157399999999997
 10
94.20533251534997
 20
54.08891234019001
 42
-0.02083900000000006
 10
98.75914761523998
 20
46.89492500000001
 42
0.02618600000000009
 10
102.55322059311
 20
41.04055604285
 42
0.01920899999999999
 10
107.3337714015
 20
34.95402360309998
 42
0.01870699999999999
 10
112.73843758835
 20
29.05411079634
 42
0.02045799999999998
 10
118.4159549999999
 20
23.75583239239
 42
0.03628300000000009
 10
129.8318930397999
 20
15.30196770242001
 42
0.0363790000000002
 10
142.3402591408
 20
8.595534810099991
 42
0.03642100000000001
 10
155.67442992486
 20
3.779248965449995
 42
0.03655199999999998
 10
169.55034041197
 20
0.9558370376099958
 42
0.007103999999999996
 10
172.76673742867
 20
0.58934111137998
 42
0.009313000000000148
 10
175.71409881235
 20
0.3511981496800018
 42
0.009112999999999925
 10
178.7189483585799
 20
0.2195849095300275
 42
0.006352999999999956
 10
182.1128049999999
 20
0.1759984089500222
 42
0.004122000000000171
 10
184.80421007125
 20
0.1978194451100137
 42
0.007311000000000115
 10
187.02161989826
 20
0.266522165349997
 42
0.007627000000000067
 10
189.17085042261
 20
0.3974621247799917
 42
0.005001999999999997
 10
191.6422549999999
 20
0.6107953138699713
 42
0.04026000000000012
 10
207.05093368414
 20
3.360438665849969
 42
0.04039100000000009
 10
221.80241314686
 20
8.542168285139965
 42
0.04029500000000006
 10
235.5610181106699
 20
16.04227335759997
 42
0.03966299999999998
 10
248.016475
 20
25.68749233231994
 42
0.009319999999999934
 10
249.4591019226599
 20
27.04999854836993
 42
0.003130000000000135
 10
251.51489789503
 20
29.09082084580004
 42
0.003097999999999848
 10
253.53653941581
 20
31.14836161030988
 42
0.01000000000000006
 10
254.8439116446999
 20
32.55059499999996
 42
0.01037099999999999
 10
257.8052614584999
 20
35.9982690598299
 42
0.01174600000000002
 10
260.49711591855
 20
39.42807409687995
 42
0.01259599999999992
 10
262.8212677230699
 20
42.70609896951996
 42
0.01885200000000003
 10
264.66732842543
 20
45.691205
 42
-0.04195499999999999
 10
274.0307580528
 20
59.37715432740002
 42
-0.04223399999999997
 10
285.52854152935
 20
71.27504099072002
 42
-0.04227199999999997
 10
298.8517594645101
 20
81.06256875934
 42
-0.04218899999999996
 10
313.6398034268801
 20
88.47726538384998
 42
-0.01935399999999999
 10
320.74176797803
 20
91.00336729897001
 42
-0.01985700000000002
 10
327.95765469649
 20
92.94865244651
 42
-0.01952500000000006
 10
335.42000328557
 20
94.34183225683996
 42
-0.017399
 10
343.26082
 20
95.21361262405998
 42
-0.01503999999999997
 10
345.68992946775
 20
95.32508361621001
 42
-0.004971000000000003
 10
349.26108122549
 20
95.34593104351001
 42
-0.004840999999999959
 10
352.80174415997
 20
95.29711879317001
 42
-0.01760099999999999
 10
355.047245
 20
95.16523682252995
 42
-0.003313999999999982
 10
359.0308514157401
 20
94.76356669324991
 42
-0.003161999999999997
 10
363.07196715944
 20
94.30315101556999
 42
-0.002272999999999912
 10
368.1333397249201
 20
93.67069134976009
 42
-0.0007380000000000159
 10
375.6107949999991
 20
92.69055441527053
 42
0.0005650000000000483
 10
381.8827292090293
 20
91.86623411959036
 42
0.007220000000000176
 10
384.23960855539
 20
91.59372555375001
 42
0.01679100000000017
 10
385.87405768919
 20
91.48390115024999
 42
0.01039899999999991
 10
387.79846
 20
91.45943102729996
 42
0.04164599999999988
 10
403.3837338372799
 20
92.88675204829995
 42
0.04059999999999997
 10
418.6549294409999
 20
96.87940833192998
 42
0.04040800000000005
 10
433.1482192894499
 20
103.31097818209
 42
0.04039400000000006
 10
446.42014049619
 20
111.99061389929
 42
0.007636999999999989
 10
448.8221889339999
 20
113.91402043273
 42
0.009186999999999845
 10
451.0183937285599
 20
115.7972870168799
 42
0.008777000000000021
 10
453.2245510806999
 20
117.83107006006
 42
0.006004000000000067
 10
455.6607263848499
 20
120.21389448761
 42
0.004568000000000084
 10
457.5656004451699
 20
122.1575410713
 42
0.006970000000000105
 10
459.17937478518
 20
123.8820194332
 42
0.00734300000000006
 10
460.6806244767999
 20
125.58122749928
 42
0.00597299999999998
 10
462.2399408187399
 20
127.443855
 42
0.03741600000000002
 10
470.6512879114898
 20
139.47230937234
 42
0.03763799999999989
 10
477.15731546721
 20
152.59697880931
 42
0.03766000000000013
 10
481.61916064143
 20
166.54107913163
 42
0.03755699999999999
 10
483.94398351985
 20
181.009395
 42
0.04221500000000007
 10
483.9416737817901
 20
197.67064365104
 42
0.04271199999999993
 10
481.1356914186199
 20
214.0277505765
 42
0.04274999999999998
 10
475.59462760586
 20
229.65671042188
 42
0.04245199999999997
 10
467.4658566921
 20
244.15454
 42
0.061103
 10
451.70487594673
 20
262.20024389881
 42
0.06121900000000001
 10
432.0590947374801
 20
275.88833765339
 42
0.06138100000000001
 10
409.73355846038
 20
284.3847509363699
 42
0.06202600000000007
 10
386.09319
 20
287.16681407911
 42
0.0008269999999999638
 10
385.0276259599
 20
287.1578601075799
 42
0.0009900000000000199
 10
384.02429625
 20
287.14578147955
 42
0.000849000000000089
 10
383.17869358286
 20
287.13248940145
 42
0.006555000000000083
  0
LWPOLYLINE
  5
4E
100
AcDbEntity
  8
0
  6
ByLayer
 62
  256
370
   -1
100
AcDbPolyline
 90
   28
 70
    1
 43
0
 10
368.58832000494
 20
255.08852821256
 42
-0.06848099999999986
 10
370.28155190215
 20
254.39817432932
 42
-0.06935900000000023
 10
371.71721490337
 20
253.27845613014
 42
-0.06979400000000005
 10
372.78486458899
 20
251.81584926106
 42
-0.07080799999999983
 10
373.40244587436
 20
250.122985
 42
-0.09722699999999973
 10
373.438170679
 20
247.67397312546
 42
-0.09524999999999982
 10
372.54807169958
 20
245.37353641052
 42
-0.09478800000000019
 10
370.86361953543
 20
243.55858474815
 42
-0.09520100000000041
 10
368.63069817126
 20
242.49689899358
 42
-0.04180499999999968
 10
367.93532628027
 20
242.37721853072
 42
-0.02169200000000008
 10
367.05451269662
 20
242.33887734035
 42
-0.0216929999999999
 10
366.17395400068
 20
242.37698942268
 42
-0.04192400000000014
 10
365.479485
 20
242.49650928923
 42
-0.0670990000000002
 10
363.88235188837
 20
243.14971647358
 42
-0.06464100000000039
 10
362.49263126839
 20
244.20910843938
 42
-0.06474399999999979
 10
361.4213065253
 20
245.58648882285
 42
-0.06770799999999996
 10
360.7574772141199
 20
247.17186118884
 42
-0.04169000000000014
 10
360.6295658142099
 20
247.88286177907
 42
-0.02302900000000003
 10
360.5866405571499
 20
248.76507589094
 42
-0.02301
 10
360.62514495189
 20
249.65083204922
 42
-0.04030300000000034
 10
360.74925279722
 20
250.37376
 42
-0.05560899999999991
 10
361.23468588921
 20
251.6568722553899
 42
-0.05119399999999986
 10
362.00192337505
 20
252.84057499365
 42
-0.05143499999999988
 10
362.9895251791201
 20
253.83856750938
 42
-0.05736999999999994
 10
364.12654344276
 20
254.5725650699
 42
-0.04051000000000002
 10
365.22962964208
 20
255.01014617918
 42
-0.04541699999999985
 10
366.34755239257
 20
255.2436359606
 42
-0.04627600000000034
 10
367.4704408893
 20
255.26906524777
 42
-0.04516700000000012
  0
LWPOLYLINE
  5
4F
100
AcDbEntity
  8
0
  6
ByLayer
 62
  256
370
   -1
100
AcDbPolyline
 90
   32
 70
    1
 43
0
 10
124.63917746931
 20
249.11888801891
 42
-0.06731500000000006
 10
126.2752445031
 20
248.46058358191
 42
-0.06520100000000036
 10
127.6974296521
 20
247.38571849768
 42
-0.06571799999999997
 10
128.78560497054
 20
245.98979410544
 42
-0.07042599999999999
 10
129.44337174594
 20
244.39083575305
 42
-0.04199299999999998
 10
129.55931285262
 20
243.69761059637
 42
-0.02044799999999989
 10
129.59602169836
 20
242.800355
 42
-0.02044799999999989
 10
129.55931285262
 20
241.90309940363
 42
-0.04199299999999998
 10
129.44337174594
 20
241.20987424695
 42
-0.03228699999999982
 10
129.17319227799
 20
240.37847186465
 42
-0.0378779999999999
 10
128.80941866485
 20
239.63392891445
 42
-0.03665100000000036
 10
128.32643985763
 20
238.93318151087
 42
-0.02717299999999982
 10
127.69820193879
 20
238.23267806121
 42
-0.04179600000000021
 10
126.67704062174
 20
237.36932253027
 42
-0.05612700000000004
 10
125.6181317489
 20
236.78231783941
 42
-0.05618499999999999
 10
124.45607089314
 20
236.44591160295
 42
-0.04200000000000026
 10
123.12652253069
 20
236.33184268211
 42
-0.04737899999999983
 10
121.86294033137
 20
236.4497614004401
 42
-0.05030699999999984
 10
120.67050911846
 20
236.80334953618
 42
-0.05071300000000015
 10
119.58105374411
 20
237.38464167285
 42
-0.04964500000000015
 10
118.6224000017
 20
238.17695435156
 42
-0.03883699999999997
 10
117.80490981392
 20
239.14109695686
 42
-0.05040100000000002
 10
117.22460653323
 20
240.1431551372
 42
-0.05104199999999985
 10
116.8615881540801
 20
241.23055917205
 42
-0.04136899999999996
 10
116.69292782287
 20
242.44927
 42
-0.06977000000000003
 10
116.85042746286
 20
244.30903395115
 42
-0.07395200000000003
 10
117.51460815997
 20
246.0141740497
 42
-0.07341999999999986
 10
118.65147054187
 20
247.4620435742
 42
-0.06732100000000008
 10
120.18984887658
 20
248.5699304095
 42
-0.05325200000000004
 10
121.1928196773
 20
248.97436096967
 42
-0.03855100000000002
 10
122.37462816152
 20
249.21370765137
 42
-0.03861400000000006
 10
123.57642150735
 20
249.26851212018
 42
-0.054179
  0
LWPOLYLINE
  5
50
100
AcDbEntity
  8
0
  6
ByLayer
 62
  256
370
   -1
100
AcDbPolyline
 90
   20
 70
    1
 43
0
 10
230.603842658
 20
249.11578041511
 42
-0.05657600000000026
 10
231.88692341605
 20
248.6553704551
 42
-0.05212899999999979
 10
233.07289075287
 20
247.90899092911
 42
-0.05173199999999992
 10
234.08705775455
 20
246.92705884686
 42
-0.05388600000000009
 10
234.86231492458
 20
245.77045716223
 42
-0.1146449999999999
 10
235.58339085183
 20
242.99910391757
 42
-0.1116080000000004
 10
235.0203495178
 20
240.1639604343
 42
-0.1116550000000003
 10
233.29301201997
 20
237.84748675842
 42
-0.1148230000000001
 10
230.75352413659
 20
236.52851688795
 42
-0.1090329999999998
 10
227.91124660612
 20
236.43416971559
 42
-0.1108079999999998
 10
225.31178758676
 20
237.54775746912
 42
-0.110737
 10
223.43608798777
 20
239.66591215609
 42
-0.1087780000000001
 10
222.62888278491
 20
242.39594309749
 42
-0.09204799999999998
 10
222.87793596376
 20
244.59452634246
 42
-0.08496900000000029
 10
223.89953563551
 20
246.62623236678
 42
-0.08461600000000016
 10
225.5433927439
 20
248.2091931800599
 42
-0.0901899999999997
 10
227.58417501764
 20
249.11518477433
 42
-0.03943500000000024
 10
228.24465417544
 20
249.22115075368
 42
-0.02001600000000002
 10
229.08620271362
 20
249.2550201242499
 42
-0.02001600000000002
 10
229.93119539565
 20
249.22134716066
 42
-0.03792700000000014
  0
LWPOLYLINE
  5
51
100
AcDbEntity
  8
0
  6
ByLayer
 62
  256
370
   -1
100
AcDbPolyline
 90
   36
 70
    1
 43
0
 10
57.03783956296999
 20
237.22518809437
 42
-0.0840469999999999
 10
59.14630239805
 20
236.55930764431
 42
-0.08619199999999988
 10
60.89731596486998
 20
235.24040538278
 42
-0.08576499999999998
 10
62.10747646873001
 20
233.40200023931
 42
-0.08214600000000007
 10
62.65385871919999
 20
231.23626932182
 42
-0.03799600000000013
 10
62.65972213963
 20
230.42742535449
 42
-0.03329100000000017
 10
62.54570688464
 20
229.58966582594
 42
-0.03208399999999981
 10
62.31521857903999
 20
228.74359691792
 42
-0.02958100000000027
 10
61.9732674064
 20
227.90995501456
 42
-0.06237699999999988
 10
61.20957106418
 20
226.72630674463
 42
-0.05278200000000032
 10
60.13732958800001
 20
225.6912781719399
 42
-0.05267100000000005
 10
58.869551622
 20
224.90168098524
 42
-0.06145900000000004
 10
57.52778499999999
 20
224.44355999912
 42
-0.04060400000000003
 10
56.43760027164
 20
224.30646893018
 42
-0.04405500000000014
 10
55.36953088897999
 20
224.35362596521
 42
-0.04353499999999975
 10
54.31519244066999
 20
224.58850283331
 42
-0.03796900000000008
 10
53.26585344275996
 20
225.01019233084
 42
-0.01796000000000023
 10
52.80408307852997
 20
225.2588311290799
 42
-0.02727700000000001
 10
52.42396194469
 20
225.51026476454
 42
-0.02507400000000002
 10
52.05144250327001
 20
225.81713281561
 42
-0.01243800000000008
 10
51.60931594665001
 20
226.24079651425
 42
-0.04197200000000027
 10
50.74172362223997
 20
227.27513314856
 42
-0.05629899999999993
 10
50.15379517658998
 20
228.34730531053
 42
-0.05639200000000029
 10
49.82048681386
 20
229.5221808691
 42
-0.04230199999999981
 10
49.71401416869999
 20
230.863465
 42
-0.009189999999999959
 10
49.72868992293999
 20
231.48211348346
 42
-0.02609299999999991
 10
49.76928858986
 20
231.91149324714
 42
-0.03007900000000008
 10
49.85055072396
 20
232.2992391447
 42
-0.01597300000000003
 10
49.99499331218001
 20
232.76839222462
 42
-0.07112199999999988
 10
50.91966623961
 20
234.57699817608
 42
-0.07784400000000039
 10
52.29097917210996
 20
235.9912194132501
 42
-0.07756200000000024
 10
54.03360592013999
 20
236.9220868844201
 42
-0.06990799999999998
 10
56.04095416870999
 20
237.32107893732
 42
-0.03303899999999897
 10
56.16956904265
 20
237.3198654872499
 42
-0.005101999999999964
 10
56.42389531758
 20
237.29801816987
 42
-0.00567300000000001
 10
56.72378720939
 20
237.26573349668
 42
-0.004903000000000002
  0
LWPOLYLINE
  5
52
100
AcDbEntity
  8
0
  6
ByLayer
 62
  256
370
   -1
100
AcDbPolyline
 90
   56
 70
    1
 43
0
 10
305.092865
 20
230.70940348526
 42
-0.03675399999999996
 10
309.1236427951
 20
230.06769955078
 42
-0.03828900000000002
 10
312.96030007634
 20
228.84761898978
 42
-0.03848600000000005
 10
316.54822005492
 20
227.06387126066
 42
-0.03794500000000001
 10
319.838435
 20
224.74387419603
 42
-0.01700599999999989
 10
320.8397237023299
 20
223.85853733355
 42
-0.009340000000000046
 10
322.00689816127
 20
222.7114849603
 42
-0.009327000000000097
 10
323.1139186190999
 20
221.53917051665
 42
-0.01968999999999994
 10
323.91832015746
 20
220.58169
 42
-0.0213560000000001
 10
325.08162054389
 20
218.94061759752
 42
-0.01640800000000001
 10
326.2133083341299
 20
217.05751351557
 42
-0.016499
 10
327.2104723895699
 20
215.12007080445
 42
-0.02276099999999993
 10
327.96655821209
 20
213.31575140022
 42
-0.01687699999999995
 10
328.32880430455
 20
212.21359788328
 42
-0.008531000000000052
 10
328.71418830285
 20
210.80321871973
 42
-0.00852300000000009
 10
329.0563801191799
 20
209.35888371839
 42
-0.01463600000000007
 10
329.28552898535
 20
208.14325
 42
-0.03008599999999994
 10
329.43858509296
 20
206.56853868112
 42
-0.00921100000000025
 10
329.4823928774
 20
204.1770832802399
 42
-0.009109999999999783
 10
329.4387112829401
 20
201.79366531842
 42
-0.03207399999999998
 10
329.28469440615
 20
200.268915
 42
-0.03470199999999996
 10
328.30368728241
 20
196.15650934054
 42
-0.03908299999999994
 10
326.79042446519
 20
192.38614142125
 42
-0.03940099999999986
 10
324.72146009695
 20
188.92331714088
 42
-0.036371
 10
322.0838954151
 20
185.7277948358
 42
-0.02761300000000018
 10
320.18378096397
 20
183.9475479256799
 42
-0.02375899999999987
 10
318.00428711324
 20
182.2902777653299
 42
-0.02376899999999997
 10
315.67847678318
 20
180.84799701248
 42
-0.02770899999999999
 10
313.33985536147
 20
179.71210643386
 42
-0.01934199999999979
 10
311.52041843776
 20
179.03127738636
 42
-0.01702099999999983
 10
309.57502635976
 20
178.46058500739
 42
-0.01701799999999999
 10
307.59491598766
 20
178.02344455994
 42
-0.01931300000000007
 10
305.67131625716
 20
177.74328354482
 42
-0.02382499999999995
 10
304.1906592054399
 20
177.65676757416
 42
-0.009758000000000024
 10
302.17650733081
 20
177.67447600063
 42
-0.009675000000000206
 10
300.17974228879
 20
177.76970820812
 42
-0.02625900000000006
 10
298.773335
 20
177.93859624303
 42
-0.01117699999999999
 10
297.1695231482599
 20
178.25431504664
 42
-0.01495499999999992
 10
295.73153937488
 20
178.61633433819
 42
-0.01527800000000002
 10
294.34252363327
 20
179.05682203003
 42
-0.01254300000000001
 10
292.8873845427599
 20
179.60907893565
 42
-0.0565020000000002
 10
287.74483621009
 20
182.42312712561
 42
-0.05505600000000013
 10
283.3130082015101
 20
186.3383226229
 42
-0.05498299999999993
 10
279.83744746013
 20
191.13171271005
 42
-0.05605099999999976
 10
277.51681613537
 20
196.53720454851
 42
-0.03317899999999994
 10
276.7630734541399
 20
199.79749651904
 42
-0.03093800000000005
 10
276.42448226526
 20
203.20618790605
 42
-0.03091399999999978
 10
276.50901169668
 20
206.6333608087
 42
-0.03299399999999991
 10
277.0183483607399
 20
209.94883
 42
-0.04848399999999996
 10
278.6074017024899
 20
214.82070182867
 42
-0.04832300000000006
 10
281.1062586191301
 20
219.30117156059
 42
-0.0481989999999999
 10
284.42557158932
 20
223.22884160948
 42
-0.04773100000000004
 10
288.44563236433
 20
226.46269156308
 42
-0.04223699999999991
 10
292.26917762392
 20
228.53971273021
 42
-0.04087899999999999
 10
296.42891024355
 20
229.97143063944
 42
-0.040939
 10
300.7599765562
 20
230.7057064599
 42
-0.04265300000000002
  0
LWPOLYLINE
  5
53
100
AcDbEntity
  8
0
  6
ByLayer
 62
  256
370
   -1
100
AcDbPolyline
 90
   24
 70
    1
 43
0
 10
449.32402551967
 20
229.15950424612
 42
-0.1153999999999999
 10
452.0212945129
 20
227.89439763573
 42
-0.1165389999999993
 10
453.8659873881
 20
225.56796488212
 42
-0.1160700000000006
 10
454.4788083621101
 20
222.65391464386
 42
-0.1137970000000003
 10
453.73570225235
 20
219.74906865058
 42
-0.04815200000000004
 10
453.2758977635
 20
219.03688440235
 42
-0.02644399999999988
 10
452.58906987707
 20
218.25757159871
 42
-0.02646900000000017
 10
451.82924389589
 20
217.56015960294
 42
-0.05144400000000027
 10
451.1442249999999
 20
217.10459912988
 42
-0.05792300000000021
 10
449.64746598646
 20
216.52689086889
 42
-0.06015099999999965
 10
448.07726149557
 20
216.31764300517
 42
-0.06103400000000007
 10
446.52302776102
 20
216.48866373099
 42
-0.06291100000000048
 10
445.0729943492
 20
217.0297782018099
 42
-0.06444500000000013
 10
443.60087809212
 20
218.0620412278
 42
-0.07029900000000024
 10
442.48935431715
 20
219.40830304183
 42
-0.07081199999999965
 10
441.80016302681
 20
221.00085609917
 42
-0.06685800000000006
 10
441.56462
 20
222.75449267218
 42
-0.01886600000000005
 10
441.5963100355101
 20
223.59407433188
 42
-0.03667499999999964
 10
441.6956905630501
 20
224.25714690442
 42
-0.03692100000000009
 10
441.89035435587
 20
224.89571083497
 42
-0.01939199999999994
 10
442.2202423482199
 20
225.65787423977
 42
-0.08438800000000012
 10
443.4414682487999
 20
227.38435729702
 42
-0.08238700000000043
 10
445.1738111153199
 20
228.62731415538
 42
-0.08243700000000016
 10
447.21374205809
 20
229.24376885914
 42
-0.08463900000000014
  0
LWPOLYLINE
  5
54
100
AcDbEntity
  8
0
  6
ByLayer
 62
  256
370
   -1
100
AcDbPolyline
 90
   24
 70
    1
 43
0
 10
277.60125097446
 20
227.29634199279
 42
-0.11023
 10
278.65393480932
 20
226.6102668326
 42
-0.09727700000000025
 10
279.37261252509
 20
225.5125724964
 42
-0.09702800000000075
 10
279.62386971526
 20
224.22205385216
 42
-0.1090069999999995
 10
279.35034009393
 20
222.98913
 42
-0.06312100000000012
 10
278.8658561351601
 20
222.21902164196
 42
-0.07242400000000013
 10
278.22371143854
 20
221.63436069425
 42
-0.07269200000000033
 10
277.4436252447999
 20
221.25863975887
 42
-0.06425599999999991
 10
276.55467
 20
221.10110972495
 42
-0.04253900000000017
 10
275.84543867755
 20
221.1280565018
 42
-0.05644500000000047
 10
275.21807606377
 20
221.27877478455
 42
-0.05853599999999921
 10
274.65795996996
 20
221.56011735116
 42
-0.05092099999999917
 10
274.1488695669501
 20
221.9753239137001
 42
-0.1055619999999998
 10
273.35868085218
 20
223.19593220561
 42
-0.1134420000000003
 10
273.16322681718
 20
224.60056230213
 42
-0.1145079999999999
 10
273.6005174287
 20
225.93946868479
 42
-0.1091249999999993
 10
274.58839027039
 20
226.9765660509199
 42
-0.02689499999999996
 10
275.01865827912
 20
227.23362597397
 42
-0.05076700000000048
 10
275.39324741677
 20
227.38468270266
 42
-0.0470890000000001
 10
275.80903206584
 20
227.46368073975
 42
-0.02005700000000003
 10
276.37536457097
 20
227.4940332417199
 42
-0.0200319999999998
 10
276.70619206678
 20
227.4852236162799
 42
-0.02330599999999994
 10
277.01879463993
 20
227.44965850516
 42
-0.02418400000000019
 10
277.31614016239
 20
227.38682692922
 42
-0.02536099999999986
  0
LWPOLYLINE
  5
55
100
AcDbEntity
  8
0
  6
ByLayer
 62
  256
370
   -1
100
AcDbPolyline
 90
   28
 70
    1
 43
0
 10
208.50682740678
 20
219.22175834041
 42
-0.03226300000000037
 10
208.73608872046
 20
219.09256136754
 42
-0.01733399999999998
 10
209.00184832919
 20
218.9058875671499
 42
-0.01719499999999992
 10
209.26069918698
 20
218.69596612178
 42
-0.0257530000000002
 10
209.47015830356
 20
218.49396344874
 42
-0.1176049999999996
 10
210.21374600163
 20
217.18888009343
 42
-0.1184410000000001
 10
210.28559634936
 20
215.69226422226
 42
-0.1177010000000003
 10
209.66891434314
 20
214.31922806427
 42
-0.1151230000000011
 10
208.494335
 20
213.3594466368399
 42
-0.02773899999999993
 10
208.19786227485
 20
213.23396163552
 42
-0.04090500000000039
 10
207.92509200022
 20
213.16047322549
 42
-0.03299000000000062
 10
207.60376757288
 20
213.1232117719599
 42
-0.01164899999999992
 10
207.14015
 20
213.11106493313
 42
-0.01160699999999993
 10
206.6565564931
 20
213.1208908994901
 42
-0.03738699999999924
 10
206.33725943117
 20
213.158830248
 42
-0.04422899999999928
 10
206.05661502216
 20
213.2399583679399
 42
-0.02166999999999984
 10
205.71548588997
 20
213.38949951284
 42
-0.05145300000000039
 10
205.19371479831
 20
213.71610797005
 42
-0.0419630000000004
 10
204.7095527343299
 20
214.16353149653
 42
-0.04267800000000008
 10
204.31605756912
 20
214.67514218829
 42
-0.06001600000000019
 10
204.06561630049
 20
215.19301282591
 42
-0.08439999999999973
 10
203.88656485638
 20
216.28754378595
 42
-0.08268399999999972
 10
204.07688974015
 20
217.38808913297
 42
-0.08421400000000005
 10
204.60824103867
 20
218.35093272377
 42
-0.09236299999999951
 10
205.41328777095
 20
219.0489271194
 42
-0.05640900000000014
 10
206.17365723171
 20
219.38611085867
 42
-0.06230099999999957
 10
206.96498727366
 20
219.53031410723
 42
-0.06354900000000036
 10
207.75377054502
 20
219.47412325391
 42
-0.06273899999999985
  0
LWPOLYLINE
  5
56
100
AcDbEntity
  8
0
  6
ByLayer
 62
  256
370
   -1
100
AcDbPolyline
 90
   68
 70
    1
 43
0
 10
182.5642
 20
216.02445894337
 42
-0.03640099999999998
 10
190.2447577469599
 20
214.59130339122
 42
-0.03838899999999994
 10
197.4958867789599
 20
212.0752845369899
 42
-0.03840000000000001
 10
204.27526751072
 20
208.4810960861999
 42
-0.03646499999999997
 10
210.55069
 20
203.83653223458
 42
-0.01476100000000004
 10
211.78980378164
 20
202.70609821903
 42
-0.005591000000000003
 10
213.45491948802
 20
201.05798716416
 42
-0.005553999999999929
 10
215.07568573596
 20
199.38063002662
 42
-0.01569900000000001
 10
216.1565810561499
 20
198.1624049999999
 42
-0.03261099999999992
 10
220.31094849512
 20
192.45429745199
 42
-0.03424799999999999
 10
223.61300212671
 20
186.34435687126
 42
-0.03448999999999999
 10
226.0308899147601
 20
179.88254445889
 42
-0.03409800000000006
 10
227.5485966656
 20
173.1250711302
 42
-0.009492000000000042
 10
227.80741893504
 20
171.20191135936
 42
-0.01062900000000003
 10
227.98194770218
 20
169.34147442842
 42
-0.01026799999999998
 10
228.08147227488
 20
167.41981910696
 42
-0.007803000000000089
 10
228.11438539022
 20
165.3108799999999
 42
-0.02654999999999986
 10
227.8050927461399
 20
159.4902249329199
 42
-0.02925300000000013
 10
226.88009682051
 20
153.92359731728
 42
-0.02936200000000004
 10
225.31579808087
 20
148.52141831688
 42
-0.02715199999999999
 10
223.09501854003
 20
143.192525
 42
-0.007123999999999999
 10
222.27438624181
 20
141.55022630777
 42
-0.01055599999999984
 10
221.50468433989
 20
140.13712182183
 42
-0.01032600000000007
 10
220.66322146645
 20
138.73500228399
 42
-0.006417999999999968
 10
219.62134192138
 20
137.12377
 42
-0.01025000000000008
 10
218.1299119769
 20
134.97772973489
 42
-0.01428299999999999
 10
216.70271774774
 20
133.12509852691
 42
-0.0141609999999999
 10
215.1623830671
 20
131.34490608512
 42
-0.009819000000000128
 10
213.3264637057399
 20
129.41808550083
 42
-0.01096999999999991
 10
211.40561778567
 20
127.56302899767
 42
-0.01376700000000016
 10
209.5423227219
 20
125.9337146324599
 42
-0.01392899999999984
 10
207.61081394914
 20
124.42499625948
 42
-0.01171399999999999
 10
205.4850349999999
 20
122.9334449399
 42
-0.0312479999999999
 10
199.7304529262
 20
119.59312936284
 42
-0.03321399999999994
 10
193.7182366546
 20
117.0720868835
 42
-0.03310499999999984
 10
187.40671510407
 20
115.36290629815
 42
-0.03063099999999997
 10
180.75862
 20
114.44616407994
 42
-0.01711799999999992
 10
179.0515620745599
 20
114.37518372084
 42
-0.004866999999999969
 10
176.39590006437
 20
114.3815800883
 42
-0.004705000000000161
 10
173.7571236377199
 20
114.43845856667
 42
-0.01996899999999984
 10
172.182115
 20
114.55030331388
 42
-0.02697500000000001
 10
165.99760657333
 20
115.57859396356
 42
-0.02987399999999996
 10
160.17192306626
 20
117.24388410903
 42
-0.03029599999999984
 10
154.659633177
 20
119.56620635946
 42
-0.02941599999999997
 10
149.411745
 20
122.55786814999
 42
-0.053162
 10
141.02578325864
 20
129.3832344966
 42
-0.05282000000000006
 10
134.24705494312
 20
137.8370971803701
 42
-0.05298400000000005
 10
129.40713154852
 20
147.49741321133
 42
-0.05416800000000022
 10
126.75005105462
 20
157.88794
 42
-0.006419000000000063
 10
126.49202424348
 20
159.87255780195
 42
-0.012224
 10
126.34416770472
 20
161.47511206722
 42
-0.01163999999999991
 10
126.27069273623
 20
163.13346758177
 42
-0.005250000000000073
 10
126.24783028165
 20
165.3108800000001
 42
-0.005249999999999851
 10
126.2706927362299
 20
167.48829241823
 42
-0.01164000000000002
 10
126.34416770472
 20
169.14664793278
 42
-0.012224
 10
126.49202424348
 20
170.74920219805
 42
-0.006419000000000063
 10
126.75005105462
 20
172.73382
 42
-0.05008500000000001
 10
129.12646908371
 20
182.35248581431
 42
-0.04897299999999991
 10
133.3801095179
 20
191.38388542959
 42
-0.04882599999999999
 10
139.3233546397
 20
199.43992176297
 42
-0.04916400000000003
 10
146.703375
 20
206.16996943487
 42
-0.03496200000000008
 10
152.72131676578
 20
210.03766062391
 42
-0.03529200000000009
 10
159.20104263826
 20
213.01544683307
 42
-0.03511600000000004
 10
166.06678877537
 20
215.06437728811
 42
-0.03386699999999992
 10
173.23537
 20
216.16323532062
 42
-0.02052699999999999
 10
174.92399626387
 20
216.2364790745601
 42
-0.004293000000000023
 10
177.88584532054
 20
216.2178543162401
 42
-0.004332999999999954
 10
180.84906822297
 20
216.14808459853
 42
-0.019877
  0
LWPOLYLINE
  5
57
100
AcDbEntity
  8
0
  6
ByLayer
 62
  256
370
   -1
100
AcDbPolyline
 90
   36
 70
    1
 43
0
 10
391.05273928882
 20
216.02390101915
 42
-0.03616500000000011
 10
395.28027163807
 20
215.0157406805801
 42
-0.04058199999999999
 10
399.15168372625
 20
213.43558764451
 42
-0.04095400000000003
 10
402.68680764284
 20
211.26574913283
 42
-0.03813099999999998
 10
405.91255024131
 20
208.50104844737
 42
-0.04063800000000006
 10
408.78041956115
 20
205.12886197587
 42
-0.04205500000000004
 10
411.02836977076
 20
201.3741456265
 42
-0.04200600000000006
 10
412.61845871295
 20
197.29200249094
 42
-0.04034999999999999
 10
413.5302961734
 20
192.946285
 42
-0.01980000000000001
 10
413.6456070323499
 20
191.61767413481
 42
-0.009559999999999937
 10
413.69318677372
 20
189.9103506888
 42
-0.009558000000000108
 10
413.67548145686
 20
188.20362198078
 42
-0.01994000000000017
 10
413.58335033302
 20
186.87753
 42
-0.04210799999999999
 10
412.71981725338
 20
182.46848439862
 42
-0.04209899999999987
 10
411.12975780233
 20
178.26609455025
 42
-0.04212199999999993
 10
408.85924255729
 20
174.39152259676
 42
-0.04225399999999992
 10
405.97360803552
 20
170.95664107123
 42
-0.09830199999999997
 10
397.34599418773
 20
165.15935452268
 42
-0.09904199999999988
 10
387.18142831312
 20
163.11756503623
 42
-0.09893400000000001
 10
377.00459292055
 20
165.1427243284
 42
-0.09786000000000011
 10
368.3427445737899
 20
170.9267102725
 42
-0.09206099999999996
 10
362.87408502058
 20
178.86322433189
 42
-0.09149799999999998
 10
360.60407674228
 20
188.25113090329
 42
-0.09144299999999997
 10
361.8339392335499
 20
197.8356481843
 42
-0.09181500000000006
 10
366.40183534969
 20
206.33569529734
 42
-0.04085999999999999
 10
369.31134254805
 20
209.40974359676
 42
-0.03920400000000001
 10
372.72049385641
 20
212.01674101293
 42
-0.03922899999999999
 10
376.49253263937
 20
214.05815804835
 42
-0.04103499999999993
 10
380.4816292220299
 20
215.44960961769
 42
-0.009596999999999948
 10
381.3746888511
 20
215.66286326095
 42
-0.00781300000000002
 10
382.338596731
 20
215.8578368110499
 42
-0.007606000000000079
 10
383.33794142553
 20
216.02808926258
 42
-0.007703000000000073
 10
384.3377649999999
 20
216.16707649145
 42
-0.03039400000000011
 10
385.5150091786001
 20
216.24010116835
 42
-0.005624999999999967
 10
387.68703224146
 20
216.21823128122
 42
-0.005683000000000042
 10
389.85883833379
 20
216.1472213306699
 42
-0.02944699999999995
  0
LWPOLYLINE
  5
58
100
AcDbEntity
  8
0
  6
ByLayer
 62
  256
370
   -1
100
AcDbPolyline
 90
   40
 70
    1
 43
0
 10
93.71054511461998
 20
209.78804801619
 42
-0.04935199999999989
 10
97.89280996830999
 20
208.86858980442
 42
-0.04627400000000011
 10
101.91025656441
 20
207.1343640188901
 42
-0.04601700000000004
 10
105.56120482684
 20
204.67946856161
 42
-0.04759199999999999
 10
108.6566717187
 20
201.6231
 42
-0.06068200000000004
 10
111.76040415456
 20
196.83819152459
 42
-0.06098300000000002
 10
113.61835730959
 20
191.45599718518
 42
-0.06091699999999981
 10
114.1243431181
 20
185.77916017626
 42
-0.06031299999999967
 10
113.25130937743
 20
180.12764472157
 42
-0.05386199999999992
 10
111.47158919512
 20
175.68941683468
 42
-0.05094099999999988
 10
108.75765750717
 20
171.64292487622
 42
-0.05075299999999992
 10
105.27061759032
 20
168.21532204491
 42
-0.05261799999999992
 10
101.20439224742
 20
165.60759577628
 42
-0.01991299999999996
 10
99.50136086568999
 20
164.83624879036
 42
-0.01993299999999988
 10
97.74293027715999
 20
164.20312085933
 42
-0.01975500000000004
 10
95.92420374886996
 20
163.70713686061
 42
-0.01876399999999988
 10
94.04062500000001
 20
163.34643885238
 42
-0.02585400000000001
 10
92.59113707396001
 20
163.20102787142
 42
-0.01183500000000014
 10
90.69030309919998
 20
163.15422031643
 42
-0.01181299999999999
 10
88.79631377729
 20
163.19717185471
 42
-0.02691700000000005
 10
87.37358605149998
 20
163.34009274023
 42
-0.05067000000000014
 10
82.55499969730997
 20
164.59717114008
 42
-0.0524349999999999
 10
78.14652766850999
 20
166.7880447590699
 42
-0.05265400000000009
 10
74.30602931675
 20
169.83822168593
 42
-0.0519200000000001
 10
71.16701113311998
 20
173.63661
 42
-0.02210699999999972
 10
70.17391053546999
 20
175.28331119782
 42
-0.02068499999999981
 10
69.30613012980999
 20
177.04759276834
 42
-0.02055400000000014
 10
68.58191570327999
 20
178.88934696178
 42
-0.02111600000000001
 10
68.01860453534999
 20
180.76799727973
 42
-0.0421299999999999
 10
67.37005043096998
 20
184.66575538817
 42
-0.04229799999999993
 10
67.38534078457999
 20
188.61181125696
 42
-0.04212799999999994
 10
68.06570920855999
 20
192.5138415683
 42
-0.04109100000000007
 10
69.39382684947999
 20
196.28070445557
 42
-0.02392799999999997
 10
70.31472270416999
 20
198.09831824503
 42
-0.02372400000000001
 10
71.407489111
 20
199.8249920919
 42
-0.02311900000000004
 10
72.68739214855999
 20
201.48126145938
 42
-0.02031699999999999
 10
74.16871596084998
 20
203.08812403915
 42
-0.05470599999999997
 10
78.37350502379999
 20
206.46130939763
 42
-0.05919499999999998
 10
83.10346037097999
 20
208.73764202081
 42
-0.05889499999999998
 10
88.25663052954999
 20
209.85021844892
 42
-0.05324099999999999
  0
LWPOLYLINE
  5
59
100
AcDbEntity
  8
0
  6
ByLayer
 62
  256
370
   -1
100
AcDbPolyline
 90
   28
 70
    1
 43
0
 10
358.457785
 20
209.7731249978
 42
-0.08042399999999908
 10
358.99351673591
 20
209.50440784903
 42
-0.04121300000000002
 10
359.56611801418
 20
209.01442620009
 42
-0.04097900000000024
 10
360.05883260907
 20
208.42791292792
 42
-0.06997200000000009
 10
360.3520470648
 20
207.860656668
 42
-0.07682100000000093
 10
360.52206368752
 20
206.94720401593
 42
-0.06802699999999963
 10
360.4204216710299
 20
205.98427094861
 42
-0.06855699999999974
 10
360.06576543441
 20
205.09090888489
 42
-0.0804919999999997
 10
359.49669406504
 20
204.38059772529
 42
-0.03150300000000012
 10
358.98331902069
 20
203.97242881204
 42
-0.06471700000000032
 10
358.5283921055899
 20
203.7358846914299
 42
-0.06154000000000083
 10
358.0133048698499
 20
203.61674148893
 42
-0.02610200000000007
 10
357.30422
 20
203.57969941337
 42
-0.008823000000000008
 10
356.7788294226099
 20
203.58897166853
 42
-0.03232300000000016
 10
356.4477631889999
 20
203.62216113792
 42
-0.04595699999999977
 10
356.1880626051999
 20
203.69024404267
 42
-0.03543800000000069
 10
355.9204375314
 20
203.80946428325
 42
-0.0554210000000002
 10
355.17449034151
 20
204.32051644893
 42
-0.06939200000000015
 10
354.6213956467701
 20
204.95006030366
 42
-0.07071599999999933
 10
354.2689120244401
 20
205.69667957055
 42
-0.06058999999999936
 10
354.11413911118
 20
206.55278359128
 42
-0.03788599999999984
 10
354.12667796149
 20
207.25274305981
 42
-0.05961800000000033
 10
354.25346729374
 20
207.83969769598
 42
-0.06079200000000029
 10
354.5127913138
 20
208.3720819868799
 42
-0.04123800000000006
 10
354.9252420597099
 20
208.90667099127
 42
-0.0659470000000007
 10
355.67347501357
 20
209.5362937899701
 42
-0.08200700000000023
 10
356.50834962652
 20
209.89339036827
 42
-0.07930799999999948
 10
357.43607458601
 20
209.96986249925
 42
-0.05715600000000001
  0
LWPOLYLINE
  5
5A
100
AcDbEntity
  8
0
  6
ByLayer
 62
  256
370
   -1
100
AcDbPolyline
 90
   32
 70
    1
 43
0
 10
130.2314157326
 20
203.37981127513
 42
-0.07413799999999983
 10
131.24112164765
 20
202.9495653346
 42
-0.09014999999999983
 10
132.00573622761
 20
202.26442977818
 42
-0.09013700000000044
 10
132.48039261506
 20
201.35395061544
 42
-0.07409399999999997
 10
132.64755000154
 20
200.268915
 42
-0.03561999999999985
 10
132.60303192199
 20
199.59815165976
 42
-0.05984099999999999
 10
132.45971130112
 20
199.05286178519
 42
-0.05940100000000012
 10
132.19042699961
 20
198.55429159405
 42
-0.03454899999999977
 10
131.76064479221
 20
198.02601630168
 42
-0.04433500000000013
 10
131.26268348277
 20
197.58023745796
 42
-0.06184300000000019
 10
130.743773132
 20
197.28449147876
 42
-0.05997900000000024
 10
130.15598271291
 20
197.1188519832
 42
-0.03873500000000007
 10
129.450055
 20
197.06408161979
 42
-0.03789499999999989
 10
128.75808492204
 20
197.11660182928
 42
-0.05860200000000013
 10
128.18072353303
 20
197.27550861795
 42
-0.06005399999999987
 10
127.66601777622
 20
197.5604577303
 42
-0.04221900000000035
 10
127.16345996165
 20
197.99239228937
 42
-0.03879099999999993
 10
126.72875383728
 20
198.50965003289
 42
-0.05962399999999984
 10
126.44750706672
 20
199.02173107824
 42
-0.05928799999999962
 10
126.29404610795
 20
199.58787921359
 42
-0.03785500000000017
 10
126.24589239276
 20
200.268915
 42
-0.0333930000000001
 10
126.29244385632
 20
200.9157359482
 42
-0.05427300000000035
 10
126.42699928908
 20
201.44926768519
 42
-0.05613999999999998
 10
126.66911593112
 20
201.9286964212
 42
-0.03874499999999995
 10
127.04100632853
 20
202.41059057639
 42
-0.02884199999999984
 10
127.39515670182
 20
202.75983017332
 42
-0.04273500000000019
 10
127.74585681235
 20
203.01840527892
 42
-0.04280099999999978
 10
128.13499521333
 20
203.21332175263
 42
-0.02904899999999987
 10
128.60558202408
 20
203.36965037368
 42
-0.01755799999999987
 10
129.07801814999
 20
203.47904143798
 42
-0.04657799999999981
 10
129.42256293799
 20
203.51338066059
 42
-0.04706299999999967
 10
129.76545963269
 20
203.48319397105
 42
-0.01823700000000008
  0
LWPOLYLINE
  5
5B
100
AcDbEntity
  8
0
  6
ByLayer
 62
  256
370
   -1
100
AcDbPolyline
 90
   24
 70
    1
 43
0
 10
422.44181460551
 20
189.44655616908
 42
-0.09695499999999917
 10
423.35858751858
 20
188.75204814781
 42
-0.08974100000000032
 10
423.9760893584299
 20
187.74525523516
 42
-0.08895099999999849
 10
424.2051326984799
 20
186.57779499303
 42
-0.09304599999999973
 10
424.00778340634
 20
185.423035
 42
-0.06154100000000091
 10
423.6998283961099
 20
184.82824715593
 42
-0.04619699999999924
 10
423.2284403090799
 20
184.2605869476401
 42
-0.04671999999999969
 10
422.66877400531
 20
183.7967073650401
 42
-0.06868899999999868
 10
422.09759432036
 20
183.5126119911
 42
-0.1358160000000002
 10
420.2754910565399
 20
183.41337179725
 42
-0.1425629999999979
 10
418.7004414923401
 20
184.2713428880101
 42
-0.1430739999999991
 10
417.8354508080899
 20
185.8376222486
 42
-0.1370730000000026
 10
417.9300480532798
 20
187.65194717409
 42
-0.06993300000000097
 10
418.24903184708
 20
188.28906975025
 42
-0.05265299999999969
 10
418.75972450172
 20
188.88439786398
 42
-0.05140899999999978
 10
419.39878015189
 20
189.37408961702
 42
-0.05843099999999961
 10
420.09828
 20
189.6986087172399
 42
-0.05528299999999951
 10
420.24184076301
 20
189.72878667981
 42
-0.01134999999999997
 10
420.5004714403499
 20
189.74797096731
 42
-0.011816
 10
420.8035492780699
 20
189.7563718295
 42
-0.01086600000000001
 10
421.11529038894
 20
189.75086932445
 42
-0.01598300000000006
 10
421.5180931184299
 20
189.72208326344
 42
-0.03055899999999996
 10
421.83791409949
 20
189.6690238877
 42
-0.03344299999999999
 10
422.12928054409
 20
189.58132496121
 42
-0.02395100000000008
  0
LWPOLYLINE
  5
5C
100
AcDbEntity
  8
0
  6
ByLayer
 62
  256
370
   -1
100
AcDbPolyline
 90
   28
 70
    1
 43
0
 10
78.00752057825999
 20
160.18795471077
 42
-0.1174799999999996
 10
79.13944339482998
 20
159.2671954783
 42
-0.1164529999999998
 10
79.73912817247999
 20
157.93208532759
 42
-0.1159510000000002
 10
79.67957322269
 20
156.46504876891
 42
-0.1157289999999997
 10
78.97277060595999
 20
155.17700667826
 42
-0.02413000000000004
 10
78.75984176647999
 20
154.96200734007
 42
-0.01638899999999987
 10
78.49837703070999
 20
154.73762951843
 42
-0.01654100000000009
 10
78.23104295621999
 20
154.53718967519
 42
-0.03156500000000001
 10
78.00181815538001
 20
154.39754250683
 42
-0.02583999999999996
 10
77.6892132751
 20
154.25326984375
 42
-0.04803300000000001
 10
77.42148387889999
 20
154.17491038012
 42
-0.0370370000000001
 10
77.10065809257
 20
154.13795085969
 42
-0.009907999999999969
 10
76.58668499999999
 20
154.12723865448
 42
-0.01026600000000005
 10
76.08814781084999
 20
154.13696541425
 42
-0.03319200000000013
 10
75.75896228943
 20
154.17212286553
 42
-0.04297099999999995
 10
75.48531520509
 20
154.24452210958
 42
-0.02819800000000008
 10
75.18496108480001
 20
154.37183415724
 42
-0.04471099999999983
 10
74.72090565876999
 20
154.65422075033
 42
-0.0375790000000001
 10
74.28464131886
 20
155.03007259026
 42
-0.03757199999999982
 10
73.90946215779
 20
155.46708133068
 42
-0.044642
 10
73.62761663684
 20
155.931895
 42
-0.0701940000000002
 10
73.43507359803999
 20
156.52138326615
 42
-0.04058799999999996
 10
73.36463100084998
 20
157.2652616626
 42
-0.04060300000000017
 10
73.41526638543999
 20
158.01010544249
 42
-0.07069899999999989
 10
73.59214019976002
 20
158.60238844555
 42
-0.09487499999999979
 10
74.36301081349001
 20
159.68093189748
 42
-0.1044550000000002
 10
75.45438060419001
 20
160.35443921777
 42
-0.1044029999999999
 10
76.72534070431999
 20
160.52927844436
 42
-0.09469500000000033
  0
LWPOLYLINE
  5
5D
100
AcDbEntity
  8
0
  6
ByLayer
 62
  256
370
   -1
100
AcDbPolyline
 90
   24
 70
    1
 43
0
 10
236.77486932036
 20
160.33051117006
 42
-0.07408600000000001
 10
237.31551283573
 20
160.05765161953
 42
-0.04461000000000001
 10
237.86389717349
 20
159.59155959957
 42
-0.04394399999999979
 10
238.33261440646
 20
159.02289227888
 42
-0.06175100000000025
 10
238.63490340634
 20
158.439645
 42
-0.09392599999999976
 10
238.83257178459
 20
157.27075012425
 42
-0.09155700000000015
 10
238.59218408571
 20
156.09923164045
 42
-0.09133800000000034
 10
237.94844596474
 20
155.08860317433
 42
-0.09292300000000071
 10
236.990269397
 20
154.38091161038
 42
-0.05701400000000004
 10
236.41034799648
 20
154.17776951605
 42
-0.04570399999999983
 10
235.75408817821
 20
154.09084558462
 42
-0.04533799999999975
 10
235.08696448601
 20
154.12441001279
 42
-0.05353599999999972
 10
234.474625
 20
154.27936659366
 42
-0.06161700000000005
 10
233.88150240224
 20
154.58657289005
 42
-0.04589200000000005
 10
233.31372984675
 20
155.0577585515
 42
-0.046343
 10
232.84807166754
 20
155.617663894
 42
-0.06784600000000039
 10
232.56069023831
 20
156.18955567964
 42
-0.08475699999999957
 10
232.37571358281
 20
157.32810216613
 42
-0.08651399999999915
 10
232.58150717137
 20
158.45488118621
 42
-0.08809000000000033
 10
233.15107477431
 20
159.42927266483
 42
-0.09217600000000044
 10
234.01356663615
 20
160.12997392581
 42
-0.04724400000000004
 10
234.67933945358
 20
160.41461297995
 42
-0.05934399999999957
 10
235.33763295679
 20
160.54192984249
 42
-0.05746499999999987
 10
236.02418168049
 20
160.51286682557
 42
-0.04061799999999977
  0
LWPOLYLINE
  5
5E
100
AcDbEntity
  8
0
  6
ByLayer
 62
  256
370
   -1
100
AcDbPolyline
 90
   44
 70
    1
 43
0
 10
33.70415999999999
 20
157.12990003837
 42
-0.03449999999999998
 10
34.53676259145
 20
156.87255332903
 42
-0.03921100000000002
 10
35.28957499774
 20
156.51156682924
 42
-0.03759900000000008
 10
36.0022911899
 20
156.0232683821
 42
-0.02765700000000004
 10
36.71526106604999
 20
155.38376193879
 42
-0.04044099999999991
 10
37.58811645553999
 20
154.35485347982
 42
-0.05418999999999979
 10
38.18966378926999
 20
153.29047871508
 42
-0.055525
 10
38.53863295044
 20
152.14287754582
 42
-0.04554699999999999
 10
38.65800435819
 20
150.86624
 42
-0.02092199999999977
 10
38.62582581297999
 20
150.05480673064
 42
-0.03570599999999995
 10
38.5225969926
 20
149.3847335232
 42
-0.03508699999999978
 10
38.32354122674001
 20
148.72819704995
 42
-0.0194099999999998
 10
37.99454870176
 20
147.95725
 42
-0.01804400000000004
 10
37.74629619733
 20
147.47834568467
 42
-0.03113500000000003
 10
37.50168544745001
 20
147.10218458901
 42
-0.027182
 10
37.1897248583
 20
146.72663729024
 42
-0.01046999999999986
 10
36.71853548538
 20
146.23921063731
 42
-0.02706300000000001
 10
35.9918128073
 20
145.592401626
 42
-0.03881199999999987
 10
35.2783689664
 20
145.10891956351
 42
-0.040149
 10
34.51808898215999
 20
144.75308789431
 42
-0.03202399999999999
 10
33.65123323408
 20
144.49113334481
 42
-0.04267900000000017
 10
32.86371727925999
 20
144.37683431283
 42
-0.02471000000000005
 10
31.90646506816999
 20
144.3678211584
 42
-0.02473500000000016
 10
30.95670009578999
 20
144.45300872373
 42
-0.04417700000000007
 10
30.19331
 20
144.62950547276
 42
-0.05941500000000016
 10
28.82599983774
 20
145.26353980495
 42
-0.05839299999999974
 10
27.63728912273001
 20
146.20441249645
 42
-0.05766800000000001
 10
26.68600696159999
 20
147.40663707497
 42
-0.05531400000000034
 10
26.01862386774
 20
148.81084777538
 42
-0.0160159999999998
 10
25.87078999904001
 20
149.28685353295
 42
-0.03145800000000017
 10
25.78963319044
 20
149.67483646304
 42
-0.02647599999999989
 10
25.75011907524
 20
150.1109057
 42
-0.008329000000000194
 10
25.73651232467
 20
150.76593
 42
-0.01848599999999995
 10
25.76421624139999
 20
151.60879962088
 42
-0.03466000000000008
 10
25.85872832339999
 20
152.2837797929
 42
-0.03610500000000008
 10
26.04231077020999
 20
152.92079373333
 42
-0.02203700000000004
 10
26.34494925013
 20
153.64296354113
 42
-0.04699799999999999
 10
26.84271385166
 20
154.48317976189
 42
-0.03566099999999996
 10
27.53306903892999
 20
155.30271667491
 42
-0.03523900000000004
 10
28.34406385328001
 20
156.02704224492
 42
-0.04224199999999995
 10
29.20323094017001
 20
156.58275673593
 42
-0.05264900000000002
 10
30.2104800627
 20
156.99032077988
 42
-0.03960099999999996
 10
31.38253771275
 20
157.22806701553
 42
-0.03926300000000004
 10
32.59014031161
 20
157.2793997552401
 42
-0.04873700000000013
  0
LWPOLYLINE
  5
5F
100
AcDbEntity
  8
0
  6
ByLayer
 62
  256
370
   -1
100
AcDbPolyline
 90
   40
 70
    1
 43
0
 10
309.96171248217
 20
157.14257200005
 42
-0.05509100000000015
 10
314.88815234898
 20
155.9670024969
 42
-0.05734300000000009
 10
319.36809234379
 20
153.75370437679
 42
-0.05721499999999995
 10
323.23663135295
 20
150.5755406169
 42
-0.05440899999999998
 10
326.35887930954
 20
146.55291
 42
-0.029872
 10
327.4355435539301
 20
144.54214739965
 42
-0.02548600000000007
 10
328.32975985761
 20
142.30927107467
 42
-0.02518600000000007
 10
329.00230099198
 20
139.96687087495
 42
-0.02720199999999994
 10
329.41546574447
 20
137.62795153254
 42
-0.02282600000000011
 10
329.49248757425
 20
136.6003042712
 42
-0.007292000000000304
 10
329.5148431624
 20
135.067415
 42
-0.007292000000000304
 10
329.49248757425
 20
133.5345257288
 42
-0.02282600000000011
 10
329.41546574447
 20
132.50687846746
 42
-0.02971800000000027
 10
328.95778090623
 20
129.9898903177
 42
-0.02690599999999982
 10
328.19368603238
 20
127.4579535705
 42
-0.02723100000000007
 10
327.1744978130301
 20
125.0563214191899
 42
-0.03276999999999984
 10
325.95330310886
 20
122.929905
 42
-0.04985199999999982
 10
322.98236235503
 20
119.30405249399
 42
-0.05234699999999996
 10
319.39719177324
 20
116.40409159771
 42
-0.052359
 10
315.2887133505899
 20
114.31243018608
 42
-0.04991700000000002
 10
310.7692094868199
 20
113.07847133534
 42
-0.03147399999999991
 10
309.37515186368
 20
112.9331688898
 42
-0.01031800000000006
 10
307.3100849401799
 20
112.8912583687
 42
-0.01024699999999991
 10
305.2508783274999
 20
112.93416958236
 42
-0.03299199999999998
 10
303.889145
 20
113.08083152933
 42
-0.05087899999999988
 10
299.08143626221
 20
114.4369050657
 42
-0.05514800000000011
 10
294.78446712414
 20
116.71108864744
 42
-0.05566400000000022
 10
291.12171036851
 20
119.84771082641
 42
-0.05359399999999997
 10
288.18798301972
 20
123.75263478032
 42
-0.08375799999999976
 10
285.5511655470601
 20
130.54866887797
 42
-0.08276399999999992
 10
285.27430804117
 20
137.86282960436
 42
-0.08261199999999998
 10
287.38573704295
 20
144.88281209654
 42
-0.08301399999999996
 10
291.6538949422
 20
150.8278428366499
 42
-0.04269200000000006
 10
294.49107271227
 20
153.20378980998
 42
-0.04083700000000003
 10
297.73156659841
 20
155.10328554903
 42
-0.04090600000000001
 10
301.23203952891
 20
156.44810751332
 42
-0.04317900000000006
 10
304.84209
 20
157.17511617521
 42
-0.020915
 10
305.93047777502
 20
157.25208253356
 42
-0.008783000000000027
 10
307.39881314758
 20
157.26854159898
 42
-0.008789999999999982
 10
308.86830649878
 20
157.2333620795
 42
-0.02066800000000001
  0
LWPOLYLINE
  5
60
100
AcDbEntity
  8
0
  6
ByLayer
 62
  256
370
   -1
100
AcDbPolyline
 90
   28
 70
    1
 43
0
 10
334.16215600957
 20
153.7474130339
 42
-0.0467120000000001
 10
334.6375816744099
 20
153.47350183333
 42
-0.03946199999999998
 10
335.08357959517
 20
153.10169238609
 42
-0.039334
 10
335.4671131749
 20
152.66294818236
 42
-0.04554299999999976
 10
335.75647622818
 20
152.18961107203
 42
-0.0751609999999998
 10
335.94778615615
 20
151.58749959486
 42
-0.04043200000000044
 10
336.00767955188
 20
150.80902668685
 42
-0.04038799999999981
 10
335.94136140096
 20
150.02853273296
 42
-0.07309600000000116
 10
335.74530279759
 20
149.41947779759
 42
-0.04482900000000007
 10
335.4578912753599
 20
148.9474852425
 42
-0.04121899999999964
 10
335.08354729535
 20
148.51976711397
 42
-0.04082200000000007
 10
334.64014961041
 20
148.15540989725
 42
-0.04198799999999999
 10
334.14745206822
 20
147.87178206822
 42
-0.06164299999999975
 10
333.5275541234
 20
147.66959913811
 42
-0.04543199999999999
 10
332.80846523694
 20
147.59647324842
 42
-0.04596100000000014
 10
332.09949903382
 20
147.65425040408
 42
-0.06944199999999986
 10
331.51089530125
 20
147.84398676908
 42
-0.03751100000000013
 10
331.00221867699
 20
148.13895002935
 42
-0.04329300000000043
 10
330.56893956268
 20
148.49437263437
 42
-0.04398200000000001
 10
330.20889427162
 20
148.91380626031
 42
-0.04101800000000009
 10
329.91823009733
 20
149.39930395194
 42
-0.09310900000000077
 10
329.6014551297299
 20
150.53599751211
 42
-0.09059899999999976
 10
329.71396834278
 20
151.72179010891
 42
-0.09201500000000003
 10
330.2348673393
 20
152.77628664578
 42
-0.09992400000000051
 10
331.0873424451599
 20
153.53807258405
 42
-0.05171400000000022
 10
331.85778824604
 20
153.88839292092
 42
-0.06394700000000053
 10
332.63055692559
 20
154.04158244083
 42
-0.06564299999999972
 10
333.40037358215
 20
153.99292617254
 42
-0.05884600000000009
  0
LWPOLYLINE
  5
61
100
AcDbEntity
  8
0
  6
ByLayer
 62
  256
370
   -1
100
AcDbPolyline
 90
   28
 70
    1
 43
0
 10
134.08252076345
 20
127.0773433251
 42
-0.05928899999999979
 10
134.65192606481
 20
126.78345990198
 42
-0.04844400000000001
 10
135.1801945361
 20
126.34593576878
 42
-0.04822200000000005
 10
135.61682280069
 20
125.81246421779
 42
-0.0572650000000005
 10
135.91443936077
 20
125.23392619248
 42
-0.02051500000000001
 10
136.02689459464
 20
124.89423249639
 42
-0.03614999999999993
 10
136.08744502087
 20
124.60504458437
 42
-0.03330399999999995
 10
136.10845795967
 20
124.29443035604
 42
-0.01469700000000011
 10
136.09675419011
 20
123.88285
 42
-0.04157900000000007
 10
136.00266902747
 20
123.21967079793
 42
-0.05627799999999972
 10
135.80297368505
 20
122.64874840813
 42
-0.05619200000000014
 10
135.48071617409
 20
122.13608365889
 42
-0.04128400000000026
 10
135.01982332174
 20
121.64722939404
 42
-0.1069070000000002
 10
133.87740426739
 20
120.99417809143
 42
-0.1038679999999995
 10
132.55485383147
 20
120.86240886923
 42
-0.1033200000000004
 10
131.28541713931
 20
121.27408793031
 42
-0.1046780000000005
 10
130.2937654193
 20
122.15815416602
 42
-0.06452700000000047
 10
129.9232631116699
 20
122.82801632122
 42
-0.05740000000000021
 10
129.71724723615
 20
123.59726482194
 42
-0.05678199999999974
 10
129.69024889996
 20
124.40150445996
 42
-0.06027199999999993
 10
129.84715299948
 20
125.17440966142
 42
-0.07267100000000025
 10
130.16402566902
 20
125.80480916045
 42
-0.05177899999999992
 10
130.68252645406
 20
126.40280090592
 42
-0.05093899999999987
 10
131.32434865403
 20
126.89195279054
 42
-0.06336699999999997
 10
132.00796
 20
127.19958741063
 42
-0.05899000000000058
 10
132.44958420414
 20
127.27924669124
 42
-0.02987699999999997
 10
133.01547123256
 20
127.27974442946
 42
-0.02958899999999993
 10
133.59486891457
 20
127.21104612286
 42
-0.04524199999999993
  0
LWPOLYLINE
  5
62
100
AcDbEntity
  8
0
  6
ByLayer
 62
  256
370
   -1
100
AcDbPolyline
 90
   48
 70
    1
 43
0
 10
254.08523
 20
127.00796401391
 42
-0.03174199999999996
 10
254.7770136016699
 20
126.73471756771
 42
-0.02879299999999989
 10
255.45241627941
 20
126.36818502833
 42
-0.02855100000000002
 10
256.08702217798
 20
125.92288065091
 42
-0.02984400000000006
 10
256.65693193833
 20
125.41427013094
 42
-0.02583199999999988
 10
257.18079449349
 20
124.82989727355
 42
-0.03099600000000017
 10
257.6081503023
 20
124.22776112012
 42
-0.03070500000000013
 10
257.9609112817799
 20
123.57251513502
 42
-0.02454399999999998
 10
258.26096226525
 20
122.82863222462
 42
-0.01592299999999999
 10
258.4120273196701
 20
122.34452904261
 42
-0.03345500000000021
 10
258.4917199032
 20
121.95882064177
 42
-0.02722800000000023
 10
258.5280460662901
 20
121.51906812192
 42
-0.007460999999999715
 10
258.53712813369
 20
120.823395
 42
-0.007835000000000005
 10
258.52518903687
 20
120.14268602357
 42
-0.02501399999999973
 10
258.48742713675
 20
119.68999341341
 42
-0.03025200000000009
 10
258.4091501279401
 20
119.29100085896
 42
-0.01621700000000012
 10
258.2671729589
 20
118.80932959259
 42
-0.05705699999999979
 10
257.64615746037
 20
117.46611469481
 42
-0.05738700000000005
 10
256.73862299799
 20
116.30087341019
 42
-0.0566309999999998
 10
255.5778718899
 20
115.3597119262
 42
-0.052946
 10
254.20976998081
 20
114.67784246338
 42
-0.02222600000000018
 10
253.82283890138
 20
114.55298670669
 42
-0.02544300000000011
 10
253.44332183436
 20
114.46938795145
 42
-0.02129699999999997
 10
253.00528080373
 20
114.41508001714
 42
-0.009740000000000125
 10
252.430115
 20
114.37978885263
 42
-0.02304400000000011
 10
251.50228341098
 20
114.38375892181
 42
-0.03678799999999998
 10
250.71581288698
 20
114.4817055179
 42
-0.03800199999999988
 10
249.97063076146
 20
114.69068043811
 42
-0.02679900000000004
 10
249.17004
 20
115.0319660539
 42
-0.04938399999999992
 10
248.36240436693
 20
115.53296946471
 42
-0.03239200000000008
 10
247.53769697496
 20
116.25437651527
 42
-0.03248399999999992
 10
246.81717917255
 20
117.07190682705
 42
-0.051618
 10
246.3266697927
 20
117.86425
 42
-0.02361799999999975
 10
246.00643071956
 20
118.61343138491
 42
-0.03126799999999993
 10
245.79137270002
 20
119.32320428105
 42
-0.03186100000000004
 10
245.66924627812
 20
120.04335615258
 42
-0.02607699999999975
 10
245.6285362671
 20
120.823395
 42
-0.04479699999999993
 10
245.74555851496
 20
122.12690679854
 42
-0.05520800000000017
 10
246.09364444658
 20
123.29603810496
 42
-0.05464899999999984
 10
246.69274572096
 20
124.36994242001
 42
-0.04260199999999985
 10
247.5575196353
 20
125.3899758514199
 42
-0.02509699999999996
 10
248.24578396093
 20
126.0087098993099
 42
-0.03723699999999996
 10
248.91120338623
 20
126.47143591691
 42
-0.03791599999999988
 10
249.62859492718
 20
126.82453744884
 42
-0.02736000000000006
 10
250.47352752352
 20
127.11101378094
 42
-0.05083299999999975
 10
251.25120527416
 20
127.24499102686
 42
-0.02439199999999992
 10
252.2648121448
 20
127.26551936805
 42
-0.02439900000000002
 10
253.28449479214
 20
127.18652704863
 42
-0.04668700000000001
  0
LWPOLYLINE
  5
63
100
AcDbEntity
  8
0
  6
ByLayer
 62
  256
370
   -1
100
AcDbPolyline
 90
   28
 70
    1
 43
0
 10
385.63081296089
 20
127.09557878031
 42
-0.05336300000000015
 10
386.92311531755
 20
126.61355211561
 42
-0.05248000000000007
 10
388.09198672076
 20
125.86680896587
 42
-0.0531130000000001
 10
389.06736294265
 20
124.9028843342
 42
-0.05751999999999974
 10
389.78806029996
 20
123.77914460681
 42
-0.02050099999999994
 10
390.13243235414
 20
122.99615092772
 42
-0.0337559999999999
 10
390.35014698372
 20
122.30669822952
 42
-0.03518400000000015
 10
390.46748390405
 20
121.61503389644
 42
-0.02484000000000016
 10
390.50534731789
 20
120.82739746931
 42
-0.03559999999999999
 10
390.42744486662
 20
119.75928003816
 42
-0.04223799999999985
 10
390.1984711417099
 20
118.77427014418
 42
-0.0427819999999998
 10
389.81045711552
 20
117.85226626523
 42
-0.03820600000000006
 10
389.25835629226
 20
116.97209627054
 42
-0.05637599999999993
 10
388.21660775205
 20
115.85213863139
 42
-0.06122599999999995
 10
386.9777498612199
 20
115.02868882589
 42
-0.0609159999999996
 10
385.57064662165
 20
114.52675082681
 42
-0.0548870000000003
 10
384.03283253069
 20
114.35488268211
 42
-0.04739200000000005
 10
382.75527855271
 20
114.47414053894
 42
-0.05158300000000016
 10
381.5605811362799
 20
114.83178159992
 42
-0.05152199999999998
 10
380.46320408061
 20
115.42686395415
 42
-0.04708600000000007
 10
379.4740781664
 20
116.24981521895
 42
-0.09619400000000057
 10
378.05576588619
 20
118.36377454048
 42
-0.1000259999999996
 10
377.5573672251501
 20
120.825491479
 42
-0.1001999999999998
 10
378.05412150436
 20
123.28411907014
 42
-0.09687699999999978
 10
379.47068277321
 20
125.38954722679
 42
-0.06340699999999992
 10
380.80072696799
 20
126.41914892817
 42
-0.06557700000000011
 10
382.33167483945
 20
127.06848715582
 42
-0.06579199999999982
 10
383.9739893806599
 20
127.2978828849
 42
-0.06453300000000003
  0
LWPOLYLINE
  5
64
100
AcDbEntity
  8
0
  6
ByLayer
 62
  256
370
   -1
100
AcDbPolyline
 90
   40
 70
    1
 43
0
 10
115.506965
 20
104.17200000088
 42
-0.06119099999999991
 10
116.8548344824
 20
103.71259936009
 42
-0.05317000000000001
 10
118.12228483594
 20
102.92333540321
 42
-0.05334599999999994
 10
119.19078274292
 20
101.88768691472
 42
-0.06261100000000008
 10
119.95077874955
 20
100.70031453573
 42
-0.01987900000000004
 10
120.28696149533
 20
99.91514282561
 42
-0.03680500000000004
 10
120.48601284755
 20
99.25106203726
 42
-0.03662899999999981
 10
120.58609985842
 20
98.56283984183
 42
-0.01948599999999991
 10
120.61385132209
 20
97.70193999999998
 42
-0.01017599999999984
 10
120.5976122365
 20
97.10271203409
 42
-0.02803099999999984
 10
120.55397146821
 20
96.68253681632
 42
-0.03031400000000011
 10
120.46582184889
 20
96.2886212519
 42
-0.01370000000000016
 10
120.30527739916
 20
95.78423849749998
 42
-0.04405300000000029
 10
119.78186252753
 20
94.62342670185998
 42
-0.04825900000000014
 10
119.07632542176
 20
93.60985634405999
 42
-0.04896600000000019
 10
118.19978865527
 20
92.76262002825999
 42
-0.04792300000000011
 10
117.16918355296
 20
92.09506901545998
 42
-0.02488299999999991
 10
116.4132337508
 20
91.74906291137999
 42
-0.03459700000000002
 10
115.70447970333
 20
91.52177559819
 42
-0.03477800000000014
 10
114.97404214471
 20
91.39516511866998
 42
-0.02553099999999997
 10
114.15278
 20
91.35320243637
 42
-0.07630899999999972
 10
112.15322513626
 20
91.66015976334
 42
-0.08004699999999991
 10
110.37369413861
 20
92.55160279645
 42
-0.07944799999999991
 10
108.95389245552
 20
93.96381402184002
 42
-0.07362199999999997
 10
108.00028260084
 20
95.7842384975
 42
-0.01370000000000016
 10
107.83973815111
 20
96.28862125189998
 42
-0.03031400000000011
 10
107.75158853179
 20
96.68253681632001
 42
-0.02803099999999984
 10
107.7079477635
 20
97.10271203409
 42
-0.01017600000000028
 10
107.69170867791
 20
97.70194000000002
 42
-0.01950799999999981
 10
107.71952534308
 20
98.56366499188999
 42
-0.03671699999999991
 10
107.81984738028
 20
99.25221951434999
 42
-0.03682799999999992
 10
108.01955957478
 20
99.91732436749
 42
-0.01975599999999999
 10
108.35734196413
 20
100.70560498544
 42
-0.06299200000000012
 10
109.10789809759
 20
101.87616771556
 42
-0.051884
 10
110.17252343671
 20
102.91086807393
 42
-0.05180699999999992
 10
111.42926489527
 20
103.70571087177
 42
-0.06229700000000003
 10
112.74844
 20
104.16641443915
 42
-0.02825399999999996
 10
113.41511350092
 20
104.27063051055
 42
-0.02414200000000002
 10
114.12542415897
 20
104.30638901935
 42
-0.02411300000000009
 10
114.83687072746
 20
104.27350268678
 42
-0.02796900000000007
  0
LWPOLYLINE
  5
65
100
AcDbEntity
  8
0
  6
ByLayer
 62
  256
370
   -1
100
AcDbPolyline
 90
   40
 70
    1
 43
0
 10
179.90002829127
 20
97.65054998328
 42
-0.07550599999999996
 10
186.66438158193
 20
95.79903071165
 42
-0.07515000000000011
 10
192.58616357365
 20
92.02073930546001
 42
-0.07517399999999999
 10
197.12521093503
 20
86.66228744026
 42
-0.07563099999999996
 10
199.86563479491
 20
80.21221892144999
 42
-0.1035890000000001
 10
200.29293242392
 20
70.58237034771999
 42
-0.1041260000000003
 10
196.81699832872
 20
61.61003586849997
 42
-0.1039249999999999
 10
190.01118821909
 20
54.7880771529
 42
-0.102803
 10
181.009395
 20
51.24899440184998
 42
-0.02290700000000003
 10
179.68637691886
 20
51.08423281940998
 42
-0.01125199999999991
 10
177.99169142944
 20
50.98993469863998
 42
-0.01126000000000008
 10
176.28281568618
 20
50.97188240948999
 42
-0.02140700000000011
 10
174.90996961564
 20
51.04713838203001
 42
-0.03532399999999987
 10
171.68977466172
 20
51.59390251267
 42
-0.03538500000000003
 10
168.58054212825
 20
52.5883239924
 42
-0.03482600000000001
 10
165.5973242329
 20
54.02906127528001
 42
-0.0319939999999999
 10
162.752975
 20
55.90686277001002
 42
-0.02619300000000001
 10
161.79969366057
 20
56.70954579745001
 42
-0.009881999999999971
 10
160.55037443984
 20
57.92578548855001
 42
-0.009934999999999743
 10
159.34445584526
 20
59.19665290223999
 42
-0.0246359999999998
 10
158.52782701945
 20
60.18599999999999
 42
-0.0322910000000002
 10
156.77639154877
 20
62.88137102772001
 42
-0.03309900000000021
 10
155.40268943269
 20
65.75815900997003
 42
-0.03341899999999982
 10
154.4316135005
 20
68.76369257008999
 42
-0.03439500000000017
 10
153.88100849996
 20
71.84308388165999
 42
-0.01193199999999993
 10
153.84029878987
 20
72.32481503310001
 42
-0.004691999999999983
 10
153.80630242684
 20
72.99006674008004
 42
-0.004640999999999834
 10
153.78296801371
 20
73.71020356511001
 42
-0.005776999999999973
 10
153.77523
 20
74.37986500000001
 42
-0.02687699999999987
 10
153.92317160164
 20
77.13010128438999
 42
-0.03032199999999996
 10
154.36577723882
 20
79.73813851402001
 42
-0.030516
 10
155.11728822317
 20
82.25883482355
 42
-0.02791499999999999
 10
156.18895592615
 20
84.74781220828999
 42
-0.06186800000000004
 10
159.51230336454
 20
89.75486440102
 42
-0.06522299999999999
 10
163.90740938677
 20
93.69594268698999
 42
-0.06481699999999994
 10
169.1951660742
 20
96.39042135694999
 42
-0.05986899999999999
 10
175.14126
 20
97.73398473167001
 42
-0.023195
 10
176.05004462591
 20
97.78515486886999
 42
-0.00684899999999991
 10
177.44482749035
 20
97.77980794462999
 42
-0.007088000000000103
 10
178.8645886482
 20
97.73477647850001
 42
-0.01764299999999993
  0
LWPOLYLINE
  5
66
100
AcDbEntity
  8
0
  6
ByLayer
 62
  256
370
   -1
100
AcDbPolyline
 90
   32
 70
    1
 43
0
 10
158.42292302207
 20
53.82889006222
 42
-0.04344000000000001
 10
158.86144403605
 20
53.56493001489
 42
-0.03894800000000011
 10
159.26527404025
 20
53.22026244745001
 42
-0.03797000000000004
 10
159.62032409393
 20
52.80761780231001
 42
-0.03664100000000022
 10
159.91359141303
 20
52.34126246860001
 42
-0.03558899999999995
 10
160.03195701241
 20
52.07403371961
 42
-0.04530200000000002
 10
160.10001363594
 20
51.81325038967
 42
-0.03197000000000018
 10
160.13362089648
 20
51.48103139354
 42
-0.008889000000000017
 10
160.14363343944
 20
50.95748
 42
-0.009230999999999686
 10
160.13467916698
 20
50.43441862081001
 42
-0.03126899999999994
 10
160.10125226382
 20
50.09476234035
 42
-0.04261199999999993
 10
160.03262878848
 20
49.82121135299
 42
-0.03169000000000002
 10
159.9129461188
 20
49.53359238968
 42
-0.1181090000000001
 10
158.93262040089
 20
48.35257525104998
 42
-0.1187640000000001
 10
157.52550753156
 20
47.74694861054999
 42
-0.1196399999999999
 10
156.00526394082
 20
47.85068209054
 42
-0.1210610000000002
 10
154.7093688812
 20
48.64026423073999
 42
-0.03982899999999993
 10
154.31865019648
 20
49.10132279521
 42
-0.051636
 10
154.04337959479
 20
49.58185985640999
 42
-0.05157700000000049
 10
153.87219726956
 20
50.10905059706
 42
-0.03960899999999987
 10
153.79262937136
 20
50.70958680599
 42
-0.02812600000000016
 10
153.79483749539
 20
51.3087786603
 42
-0.04719000000000002
 10
153.87211100296
 20
51.80582213324001
 42
-0.05009799999999989
 10
154.03667477408
 20
52.25853691191001
 42
-0.03684600000000007
 10
154.30322091352
 20
52.72146234579
 42
-0.05745899999999991
 10
154.86626786491
 20
53.37536869083998
 42
-0.0712429999999997
 10
155.52715056984
 20
53.83030593786999
 42
-0.07116299999999991
 10
156.28977650405
 20
54.08180627948001
 42
-0.05716300000000011
 10
157.15294385343
 20
54.13561868239001
 42
-0.01845600000000008
 10
157.51895287492
 20
54.10301432123
 42
-0.02781500000000007
 10
157.83385495451
 20
54.04526625546999
 42
-0.02951600000000002
 10
158.12609479828
 20
53.95614523411
 42
-0.025005
  0
LWPOLYLINE
  5
67
100
AcDbEntity
  8
0
  6
ByLayer
 62
  256
370
   -1
100
AcDbPolyline
 90
   28
 70
    1
 43
0
 10
208.6448
 20
33.14674003837
 42
-0.03458100000000003
 10
209.47550151633
 20
32.88983469303
 42
-0.03892299999999994
 10
210.22917307777
 20
32.5286712464
 42
-0.03724300000000008
 10
210.94470627566
 20
32.04006113609001
 42
-0.02738000000000006
 10
211.6616603647
 20
31.40060193879002
 42
-0.0412200000000001
 10
212.53429507219
 20
30.37570708354001
 42
-0.05687499999999991
 10
213.12307645377
 20
29.32139491645
 42
-0.05708200000000023
 10
213.45777772116
 20
28.16458258082
 42
-0.04192400000000003
 10
213.56963169689
 20
26.832925
 42
-0.04206199999999984
 10
213.45780590827
 20
25.50598550003
 42
-0.05719100000000019
 10
213.12324236651
 20
24.35296307681999
 42
-0.05669099999999991
 10
212.53334493587
 20
23.29817975366002
 42
-0.04038699999999983
 10
211.65638335653
 20
22.26524806121002
 42
-0.04186299999999993
 10
210.64299887316
 20
21.4073898192
 42
-0.05533900000000008
 10
209.58717513468
 20
20.81925072255
 42
-0.05573699999999999
 10
208.43422944862
 20
20.47982445292
 42
-0.04333499999999991
 10
207.13111838853
 20
20.36441268211
 42
-0.101474
 10
204.54577599547
 20
20.88992623956
 42
-0.1031140000000001
 10
202.39275094444
 20
22.38924977855999
 42
-0.1032840000000003
 10
201.02053411853
 20
24.62156226102999
 42
-0.1021390000000001
 10
200.64890713518
 20
27.22563503884
 42
-0.09254500000000007
 10
201.24215632416
 20
29.58454004534001
 42
-0.09532800000000034
 10
202.6431574055
 20
31.54270579936
 42
-0.09563699999999975
 10
204.66642144053
 20
32.83667530821998
 42
-0.09382699999999981
 10
207.03984
 20
33.29606250747
 42
-0.01378999999999996
 10
207.45240590179
 20
33.28636794721
 42
-0.01042499999999993
 10
207.9043868125
 20
33.25380451253
 42
-0.01056199999999995
 10
208.32788489933
 20
33.20536130267999
 42
-0.02394999999999998
  0
ENDSEC
  0
SECTION
  2
OBJECTS
  0
DICTIONARY
  5
C
330
0
100
AcDbDictionary
281
    1
  3
ACAD_GROUP
350
D
  0
DICTIONARY
  5
D
330
C
100
AcDbDictionary
281
    1
  0
ENDSEC
  0
EOF
