  0
SECTION
  2
HEADER
  9
$ACADVER
  1
AC1009
  9
$FILLMODE
 70
 0
  9
$SPLFRAME
 70
 1
  9
$EXTMIN
 10
0
 20
0
 30
0.0
  9
$EXTMAX
 10
41.6667
 20
41.6667
 30
0.0
  0
ENDSEC
  0
SECTION
  2
TABLES
  0
TABLE
  2
LAYER
 70
1
  0
LAYER
  2
0
 70
     0
 62
     7
  6
CONTINUOUS
  0
ENDTAB
  0
ENDSEC
  0
SECTION
  2
ENTITIES
  0
POLYLINE
  8
0
 62
     0
 66
     1
 10
0
 20
0
 30
0.0
 70
     1
 40
0
 41
0
  0
VERTEX
  8
0
 10
35.1118
 20
28.5242
 30
0.0
 40
0
 41
0
  0
VERTEX
  8
0
 10
35.1168
 20
28.5186
 30
0.0
 40
0
 41
0
  0
VERTEX
  8
0
 10
35.2587
 20
28.6019
 30
0.0
 40
0
 41
0
  0
VERTEX
  8
0
 10
35.6956
 20
28.8338
 30
0.0
 40
0
 41
0
  0
VERTEX
  8
0
 10
36.296
 20
29.1118
 30
0.0
 40
0
 41
0
  0
VERTEX
  8
0
 10
36.9167
 20
29.3514
 30
0.0
 40
0
 41
0
  0
VERTEX
  8
0
 10
37.5563
 20
29.5508
 30
0.0
 40
0
 41
0
  0
VERTEX
  8
0
 10
38.2129
 20
29.7086
 30
0.0
 40
0
 41
0
  0
VERTEX
  8
0
 10
38.8853
 20
29.8232
 30
0.0
 40
0
 41
0
  0
VERTEX
  8
0
 10
39.5717
 20
29.8931
 30
0.0
 40
0
 41
0
  0
VERTEX
  8
0
 10
40.096
 20
29.9167
 30
0.0
 40
0
 41
0
  0
VERTEX
  8
0
 10
40.2708
 20
29.9167
 30
0.0
 40
0
 41
0
  0
VERTEX
  8
0
 10
40.4019
 20
29.9167
 30
0.0
 40
0
 41
0
  0
VERTEX
  8
0
 10
40.7953
 20
29.9035
 30
0.0
 40
0
 41
0
  0
VERTEX
  8
0
 10
41.3128
 20
29.864
 30
0.0
 40
0
 41
0
  0
VERTEX
  8
0
 10
41.8229
 20
29.7992
 30
0.0
 40
0
 41
0
  0
VERTEX
  8
0
 10
42.3249
 20
29.7093
 30
0.0
 40
0
 41
0
  0
VERTEX
  8
0
 10
42.8182
 20
29.5954
 30
0.0
 40
0
 41
0
  0
VERTEX
  8
0
 10
43.3019
 20
29.4579
 30
0.0
 40
0
 41
0
  0
VERTEX
  8
0
 10
43.7757
 20
29.2975
 30
0.0
 40
0
 41
0
  0
VERTEX
  8
0
 10
44.2386
 20
29.1147
 30
0.0
 40
0
 41
0
  0
VERTEX
  8
0
 10
44.6904
 20
28.9104
 30
0.0
 40
0
 41
0
  0
VERTEX
  8
0
 10
45.13
 20
28.6851
 30
0.0
 40
0
 41
0
  0
VERTEX
  8
0
 10
45.5571
 20
28.4394
 30
0.0
 40
0
 41
0
  0
VERTEX
  8
0
 10
45.9708
 20
28.174
 30
0.0
 40
0
 41
0
  0
VERTEX
  8
0
 10
46.3707
 20
27.8896
 30
0.0
 40
0
 41
0
  0
VERTEX
  8
0
 10
46.756
 20
27.5868
 30
0.0
 40
0
 41
0
  0
VERTEX
  8
0
 10
47.1261
 20
27.2661
 30
0.0
 40
0
 41
0
  0
VERTEX
  8
0
 10
47.4804
 20
26.9283
 30
0.0
 40
0
 41
0
  0
VERTEX
  8
0
 10
47.8182
 20
26.5742
 30
0.0
 40
0
 41
0
  0
VERTEX
  8
0
 10
48.1388
 20
26.204
 30
0.0
 40
0
 41
0
  0
VERTEX
  8
0
 10
48.4417
 20
25.8187
 30
0.0
 40
0
 41
0
  0
VERTEX
  8
0
 10
48.7261
 20
25.4189
 30
0.0
 40
0
 41
0
  0
VERTEX
  8
0
 10
48.9914
 20
25.0051
 30
0.0
 40
0
 41
0
  0
VERTEX
  8
0
 10
49.2371
 20
24.5781
 30
0.0
 40
0
 41
0
  0
VERTEX
  8
0
 10
49.4625
 20
24.1383
 30
0.0
 40
0
 41
0
  0
VERTEX
  8
0
 10
49.6668
 20
23.6867
 30
0.0
 40
0
 41
0
  0
VERTEX
  8
0
 10
49.8494
 20
23.2237
 30
0.0
 40
0
 41
0
  0
VERTEX
  8
0
 10
50.0099
 20
22.75
 30
0.0
 40
0
 41
0
  0
VERTEX
  8
0
 10
50.1474
 20
22.2661
 30
0.0
 40
0
 41
0
  0
VERTEX
  8
0
 10
50.2614
 20
21.7729
 30
0.0
 40
0
 41
0
  0
VERTEX
  8
0
 10
50.3511
 20
21.271
 30
0.0
 40
0
 41
0
  0
VERTEX
  8
0
 10
50.416
 20
20.7608
 30
0.0
 40
0
 41
0
  0
VERTEX
  8
0
 10
50.4554
 20
20.2432
 30
0.0
 40
0
 41
0
  0
VERTEX
  8
0
 10
50.4688
 20
19.8499
 30
0.0
 40
0
 41
0
  0
VERTEX
  8
0
 10
50.4688
 20
19.7188
 30
0.0
 40
0
 41
0
  0
VERTEX
  8
0
 10
50.4688
 20
19.5876
 30
0.0
 40
0
 41
0
  0
VERTEX
  8
0
 10
50.4554
 20
19.1943
 30
0.0
 40
0
 41
0
  0
VERTEX
  8
0
 10
50.416
 20
18.6767
 30
0.0
 40
0
 41
0
  0
VERTEX
  8
0
 10
50.3511
 20
18.1667
 30
0.0
 40
0
 41
0
  0
VERTEX
  8
0
 10
50.2614
 20
17.6646
 30
0.0
 40
0
 41
0
  0
VERTEX
  8
0
 10
50.1474
 20
17.1714
 30
0.0
 40
0
 41
0
  0
VERTEX
  8
0
 10
50.0099
 20
16.6876
 30
0.0
 40
0
 41
0
  0
VERTEX
  8
0
 10
49.8494
 20
16.2139
 30
0.0
 40
0
 41
0
  0
VERTEX
  8
0
 10
49.6668
 20
15.7508
 30
0.0
 40
0
 41
0
  0
VERTEX
  8
0
 10
49.4625
 20
15.2992
 30
0.0
 40
0
 41
0
  0
VERTEX
  8
0
 10
49.2371
 20
14.8594
 30
0.0
 40
0
 41
0
  0
VERTEX
  8
0
 10
48.9914
 20
14.4325
 30
0.0
 40
0
 41
0
  0
VERTEX
  8
0
 10
48.7261
 20
14.0186
 30
0.0
 40
0
 41
0
  0
VERTEX
  8
0
 10
48.4417
 20
13.6188
 30
0.0
 40
0
 41
0
  0
VERTEX
  8
0
 10
48.1388
 20
13.2335
 30
0.0
 40
0
 41
0
  0
VERTEX
  8
0
 10
47.8182
 20
12.8634
 30
0.0
 40
0
 41
0
  0
VERTEX
  8
0
 10
47.4804
 20
12.5092
 30
0.0
 40
0
 41
0
  0
VERTEX
  8
0
 10
47.1261
 20
12.1714
 30
0.0
 40
0
 41
0
  0
VERTEX
  8
0
 10
46.756
 20
11.8508
 30
0.0
 40
0
 41
0
  0
VERTEX
  8
0
 10
46.3707
 20
11.5479
 30
0.0
 40
0
 41
0
  0
VERTEX
  8
0
 10
45.9708
 20
11.2635
 30
0.0
 40
0
 41
0
  0
VERTEX
  8
0
 10
45.5571
 20
10.9981
 30
0.0
 40
0
 41
0
  0
VERTEX
  8
0
 10
45.13
 20
10.7524
 30
0.0
 40
0
 41
0
  0
VERTEX
  8
0
 10
44.6904
 20
10.5271
 30
0.0
 40
0
 41
0
  0
VERTEX
  8
0
 10
44.2386
 20
10.3228
 30
0.0
 40
0
 41
0
  0
VERTEX
  8
0
 10
43.7757
 20
10.1401
 30
0.0
 40
0
 41
0
  0
VERTEX
  8
0
 10
43.3019
 20
9.97965
 30
0.0
 40
0
 41
0
  0
VERTEX
  8
0
 10
42.8182
 20
9.84213
 30
0.0
 40
0
 41
0
  0
VERTEX
  8
0
 10
42.3249
 20
9.72819
 30
0.0
 40
0
 41
0
  0
VERTEX
  8
0
 10
41.8229
 20
9.63846
 30
0.0
 40
0
 41
0
  0
VERTEX
  8
0
 10
41.3128
 20
9.57357
 30
0.0
 40
0
 41
0
  0
VERTEX
  8
0
 10
40.7953
 20
9.53412
 30
0.0
 40
0
 41
0
  0
VERTEX
  8
0
 10
40.4019
 20
9.52083
 30
0.0
 40
0
 41
0
  0
VERTEX
  8
0
 10
40.2708
 20
9.52083
 30
0.0
 40
0
 41
0
  0
VERTEX
  8
0
 10
40.2467
 20
9.52083
 30
0.0
 40
0
 41
0
  0
VERTEX
  8
0
 10
40.1743
 20
9.52556
 30
0.0
 40
0
 41
0
  0
VERTEX
  8
0
 10
40.0336
 20
9.53874
 30
0.0
 40
0
 41
0
  0
VERTEX
  8
0
 10
39.8542
 20
9.55931
 30
0.0
 40
0
 41
0
  0
VERTEX
  8
0
 10
39.6415
 20
9.58594
 30
0.0
 40
0
 41
0
  0
VERTEX
  8
0
 10
39.4008
 20
9.61751
 30
0.0
 40
0
 41
0
  0
VERTEX
  8
0
 10
39.1376
 20
9.65267
 30
0.0
 40
0
 41
0
  0
VERTEX
  8
0
 10
38.8574
 20
9.69032
 30
0.0
 40
0
 41
0
  0
VERTEX
  8
0
 10
38.5653
 20
9.72917
 30
0.0
 40
0
 41
0
  0
VERTEX
  8
0
 10
38.2671
 20
9.76807
 30
0.0
 40
0
 41
0
  0
VERTEX
  8
0
 10
37.9679
 20
9.80567
 30
0.0
 40
0
 41
0
  0
VERTEX
  8
0
 10
37.6733
 20
9.84088
 30
0.0
 40
0
 41
0
  0
VERTEX
  8
0
 10
37.3888
 20
9.8724
 30
0.0
 40
0
 41
0
  0
VERTEX
  8
0
 10
37.1196
 20
9.89908
 30
0.0
 40
0
 41
0
  0
VERTEX
  8
0
 10
36.8711
 20
9.9196
 30
0.0
 40
0
 41
0
  0
VERTEX
  8
0
 10
36.6489
 20
9.93283
 30
0.0
 40
0
 41
0
  0
VERTEX
  8
0
 10
36.506
 20
9.9375
 30
0.0
 40
0
 41
0
  0
VERTEX
  8
0
 10
36.4583
 20
9.9375
 30
0.0
 40
0
 41
0
  0
VERTEX
  8
0
 10
36.2781
 20
9.9375
 30
0.0
 40
0
 41
0
  0
VERTEX
  8
0
 10
35.7371
 20
9.91237
 30
0.0
 40
0
 41
0
  0
VERTEX
  8
0
 10
35.0293
 20
9.838
 30
0.0
 40
0
 41
0
  0
VERTEX
  8
0
 10
34.3367
 20
9.7161
 30
0.0
 40
0
 41
0
  0
VERTEX
  8
0
 10
33.6608
 20
9.54839
 30
0.0
 40
0
 41
0
  0
VERTEX
  8
0
 10
33.0036
 20
9.33653
 30
0.0
 40
0
 41
0
  0
VERTEX
  8
0
 10
32.3665
 20
9.08219
 30
0.0
 40
0
 41
0
  0
VERTEX
  8
0
 10
31.7515
 20
8.78711
 30
0.0
 40
0
 41
0
  0
VERTEX
  8
0
 10
31.16
 20
8.4529
 30
0.0
 40
0
 41
0
  0
VERTEX
  8
0
 10
30.5936
 20
8.08132
 30
0.0
 40
0
 41
0
  0
VERTEX
  8
0
 10
30.0543
 20
7.67399
 30
0.0
 40
0
 41
0
  0
VERTEX
  8
0
 10
29.5436
 20
7.23264
 30
0.0
 40
0
 41
0
  0
VERTEX
  8
0
 10
29.0632
 20
6.7589
 30
0.0
 40
0
 41
0
  0
VERTEX
  8
0
 10
28.6149
 20
6.2545
 30
0.0
 40
0
 41
0
  0
VERTEX
  8
0
 10
28.2001
 20
5.72114
 30
0.0
 40
0
 41
0
  0
VERTEX
  8
0
 10
27.8208
 20
5.16049
 30
0.0
 40
0
 41
0
  0
VERTEX
  8
0
 10
27.5592
 20
4.72342
 30
0.0
 40
0
 41
0
  0
VERTEX
  8
0
 10
27.4786
 20
4.57417
 30
0.0
 40
0
 41
0
  0
VERTEX
  8
0
 10
27.3931
 20
4.44553
 30
0.0
 40
0
 41
0
  0
VERTEX
  8
0
 10
27.121
 20
4.06982
 30
0.0
 40
0
 41
0
  0
VERTEX
  8
0
 10
26.7342
 20
3.58865
 30
0.0
 40
0
 41
0
  0
VERTEX
  8
0
 10
26.3196
 20
3.13194
 30
0.0
 40
0
 41
0
  0
VERTEX
  8
0
 10
25.8783
 20
2.70107
 30
0.0
 40
0
 41
0
  0
VERTEX
  8
0
 10
25.4119
 20
2.29731
 30
0.0
 40
0
 41
0
  0
VERTEX
  8
0
 10
24.9214
 20
1.92182
 30
0.0
 40
0
 41
0
  0
VERTEX
  8
0
 10
24.4082
 20
1.57607
 30
0.0
 40
0
 41
0
  0
VERTEX
  8
0
 10
23.8735
 20
1.26118
 30
0.0
 40
0
 41
0
  0
VERTEX
  8
0
 10
23.3187
 20
0.978569
 30
0.0
 40
0
 41
0
  0
VERTEX
  8
0
 10
22.745
 20
0.729438
 30
0.0
 40
0
 41
0
  0
VERTEX
  8
0
 10
22.1537
 20
0.515082
 30
0.0
 40
0
 41
0
  0
VERTEX
  8
0
 10
21.5462
 20
0.33686
 30
0.0
 40
0
 41
0
  0
VERTEX
  8
0
 10
20.9238
 20
0.195964
 30
0.0
 40
0
 41
0
  0
VERTEX
  8
0
 10
20.2875
 20
0.09375
 30
0.0
 40
0
 41
0
  0
VERTEX
  8
0
 10
19.6389
 20
0.0314671
 30
0.0
 40
0
 41
0
  0
VERTEX
  8
0
 10
19.1442
 20
0.0104167
 30
0.0
 40
0
 41
0
  0
VERTEX
  8
0
 10
18.9792
 20
0.0104167
 30
0.0
 40
0
 41
0
  0
VERTEX
  8
0
 10
18.811
 20
0.0104167
 30
0.0
 40
0
 41
0
  0
VERTEX
  8
0
 10
18.3065
 20
0.0323351
 30
0.0
 40
0
 41
0
  0
VERTEX
  8
0
 10
17.6457
 20
0.0970053
 30
0.0
 40
0
 41
0
  0
VERTEX
  8
0
 10
16.9978
 20
0.203179
 30
0.0
 40
0
 41
0
  0
VERTEX
  8
0
 10
16.364
 20
0.349447
 30
0.0
 40
0
 41
0
  0
VERTEX
  8
0
 10
15.7461
 20
0.534397
 30
0.0
 40
0
 41
0
  0
VERTEX
  8
0
 10
15.1453
 20
0.756782
 30
0.0
 40
0
 41
0
  0
VERTEX
  8
0
 10
14.5628
 20
1.01519
 30
0.0
 40
0
 41
0
  0
VERTEX
  8
0
 10
14
 20
1.30821
 30
0.0
 40
0
 41
0
  0
VERTEX
  8
0
 10
13.4585
 20
1.63456
 30
0.0
 40
0
 41
0
  0
VERTEX
  8
0
 10
12.9395
 20
1.99278
 30
0.0
 40
0
 41
0
  0
VERTEX
  8
0
 10
12.4443
 20
2.38157
 30
0.0
 40
0
 41
0
  0
VERTEX
  8
0
 10
11.9743
 20
2.79958
 30
0.0
 40
0
 41
0
  0
VERTEX
  8
0
 10
11.531
 20
3.24539
 30
0.0
 40
0
 41
0
  0
VERTEX
  8
0
 10
11.1156
 20
3.71772
 30
0.0
 40
0
 41
0
  0
VERTEX
  8
0
 10
10.7295
 20
4.21511
 30
0.0
 40
0
 41
0
  0
VERTEX
  8
0
 10
10.4589
 20
4.6034
 30
0.0
 40
0
 41
0
  0
VERTEX
  8
0
 10
10.3742
 20
4.73628
 30
0.0
 40
0
 41
0
  0
VERTEX
  8
0
 10
10.3218
 20
4.83132
 30
0.0
 40
0
 41
0
  0
VERTEX
  8
0
 10
10.1565
 20
5.11199
 30
0.0
 40
0
 41
0
  0
VERTEX
  8
0
 10
9.92344
 20
5.47732
 30
0.0
 40
0
 41
0
  0
VERTEX
  8
0
 10
9.67563
 20
5.83192
 30
0.0
 40
0
 41
0
  0
VERTEX
  8
0
 10
9.41331
 20
6.17529
 30
0.0
 40
0
 41
0
  0
VERTEX
  8
0
 10
9.13704
 20
6.50706
 30
0.0
 40
0
 41
0
  0
VERTEX
  8
0
 10
8.84722
 20
6.82671
 30
0.0
 40
0
 41
0
  0
VERTEX
  8
0
 10
8.54432
 20
7.1339
 30
0.0
 40
0
 41
0
  0
VERTEX
  8
0
 10
8.22874
 20
7.42806
 30
0.0
 40
0
 41
0
  0
VERTEX
  8
0
 10
7.90093
 20
7.70888
 30
0.0
 40
0
 41
0
  0
VERTEX
  8
0
 10
7.56136
 20
7.97586
 30
0.0
 40
0
 41
0
  0
VERTEX
  8
0
 10
7.2105
 20
8.22851
 30
0.0
 40
0
 41
0
  0
VERTEX
  8
0
 10
6.84868
 20
8.46647
 30
0.0
 40
0
 41
0
  0
VERTEX
  8
0
 10
6.4764
 20
8.68924
 30
0.0
 40
0
 41
0
  0
VERTEX
  8
0
 10
6.09413
 20
8.89643
 30
0.0
 40
0
 41
0
  0
VERTEX
  8
0
 10
5.70231
 20
9.08757
 30
0.0
 40
0
 41
0
  0
VERTEX
  8
0
 10
5.40246
 20
9.22076
 30
0.0
 40
0
 41
0
  0
VERTEX
  8
0
 10
5.30138
 20
9.26221
 30
0.0
 40
0
 41
0
  0
VERTEX
  8
0
 10
5.15365
 20
9.34332
 30
0.0
 40
0
 41
0
  0
VERTEX
  8
0
 10
4.72131
 20
9.60612
 30
0.0
 40
0
 41
0
  0
VERTEX
  8
0
 10
4.16672
 20
9.98643
 30
0.0
 40
0
 41
0
  0
VERTEX
  8
0
 10
3.63926
 20
10.4015
 30
0.0
 40
0
 41
0
  0
VERTEX
  8
0
 10
3.14051
 20
10.8496
 30
0.0
 40
0
 41
0
  0
VERTEX
  8
0
 10
2.67219
 20
11.3292
 30
0.0
 40
0
 41
0
  0
VERTEX
  8
0
 10
2.23594
 20
11.8386
 30
0.0
 40
0
 41
0
  0
VERTEX
  8
0
 10
1.83344
 20
12.3761
 30
0.0
 40
0
 41
0
  0
VERTEX
  8
0
 10
1.46625
 20
12.9402
 30
0.0
 40
0
 41
0
  0
VERTEX
  8
0
 10
1.13607
 20
13.5291
 30
0.0
 40
0
 41
0
  0
VERTEX
  8
0
 10
0.844564
 20
14.1411
 30
0.0
 40
0
 41
0
  0
VERTEX
  8
0
 10
0.593371
 20
14.7749
 30
0.0
 40
0
 41
0
  0
VERTEX
  8
0
 10
0.384169
 20
15.4283
 30
0.0
 40
0
 41
0
  0
VERTEX
  8
0
 10
0.218533
 20
16.1001
 30
0.0
 40
0
 41
0
  0
VERTEX
  8
0
 10
0.0981988
 20
16.7885
 30
0.0
 40
0
 41
0
  0
VERTEX
  8
0
 10
0.0247939
 20
17.4918
 30
0.0
 40
0
 41
0
  0
VERTEX
  8
0
 10
0
 20
18.0292
 30
0.0
 40
0
 41
0
  0
VERTEX
  8
0
 10
0
 20
18.2083
 30
0.0
 40
0
 41
0
  0
VERTEX
  8
0
 10
0
 20
18.3394
 30
0.0
 40
0
 41
0
  0
VERTEX
  8
0
 10
0.0132378
 20
18.7328
 30
0.0
 40
0
 41
0
  0
VERTEX
  8
0
 10
0.0526801
 20
19.2504
 30
0.0
 40
0
 41
0
  0
VERTEX
  8
0
 10
0.117567
 20
19.7606
 30
0.0
 40
0
 41
0
  0
VERTEX
  8
0
 10
0.207303
 20
20.2625
 30
0.0
 40
0
 41
0
  0
VERTEX
  8
0
 10
0.321289
 20
20.7557
 30
0.0
 40
0
 41
0
  0
VERTEX
  8
0
 10
0.458768
 20
21.2396
 30
0.0
 40
0
 41
0
  0
VERTEX
  8
0
 10
0.619194
 20
21.7133
 30
0.0
 40
0
 41
0
  0
VERTEX
  8
0
 10
0.801921
 20
22.1762
 30
0.0
 40
0
 41
0
  0
VERTEX
  8
0
 10
1.00624
 20
22.6279
 30
0.0
 40
0
 41
0
  0
VERTEX
  8
0
 10
1.23155
 20
23.0676
 30
0.0
 40
0
 41
0
  0
VERTEX
  8
0
 10
1.47726
 20
23.4947
 30
0.0
 40
0
 41
0
  0
VERTEX
  8
0
 10
1.74263
 20
23.9085
 30
0.0
 40
0
 41
0
  0
VERTEX
  8
0
 10
2.02707
 20
24.3083
 30
0.0
 40
0
 41
0
  0
VERTEX
  8
0
 10
2.32992
 20
24.6936
 30
0.0
 40
0
 41
0
  0
VERTEX
  8
0
 10
2.65056
 20
25.0637
 30
0.0
 40
0
 41
0
  0
VERTEX
  8
0
 10
2.98828
 20
25.4179
 30
0.0
 40
0
 41
0
  0
VERTEX
  8
0
 10
3.34256
 20
25.7557
 30
0.0
 40
0
 41
0
  0
VERTEX
  8
0
 10
3.71262
 20
26.0764
 30
0.0
 40
0
 41
0
  0
VERTEX
  8
0
 10
4.09793
 20
26.3792
 30
0.0
 40
0
 41
0
  0
VERTEX
  8
0
 10
4.49783
 20
26.6636
 30
0.0
 40
0
 41
0
  0
VERTEX
  8
0
 10
4.91157
 20
26.929
 30
0.0
 40
0
 41
0
  0
VERTEX
  8
0
 10
5.33865
 20
27.1747
 30
0.0
 40
0
 41
0
  0
VERTEX
  8
0
 10
5.77832
 20
27.4
 30
0.0
 40
0
 41
0
  0
VERTEX
  8
0
 10
6.22999
 20
27.6043
 30
0.0
 40
0
 41
0
  0
VERTEX
  8
0
 10
6.69303
 20
27.7871
 30
0.0
 40
0
 41
0
  0
VERTEX
  8
0
 10
7.16678
 20
27.9475
 30
0.0
 40
0
 41
0
  0
VERTEX
  8
0
 10
7.65056
 20
28.085
 30
0.0
 40
0
 41
0
  0
VERTEX
  8
0
 10
8.14372
 20
28.1989
 30
0.0
 40
0
 41
0
  0
VERTEX
  8
0
 10
8.64572
 20
28.2888
 30
0.0
 40
0
 41
0
  0
VERTEX
  8
0
 10
9.15582
 20
28.3536
 30
0.0
 40
0
 41
0
  0
VERTEX
  8
0
 10
9.67344
 20
28.3931
 30
0.0
 40
0
 41
0
  0
VERTEX
  8
0
 10
10.0668
 20
28.4063
 30
0.0
 40
0
 41
0
  0
VERTEX
  8
0
 10
10.1979
 20
28.4063
 30
0.0
 40
0
 41
0
  0
VERTEX
  8
0
 10
10.3495
 20
28.4063
 30
0.0
 40
0
 41
0
  0
VERTEX
  8
0
 10
10.8044
 20
28.3885
 30
0.0
 40
0
 41
0
  0
VERTEX
  8
0
 10
11.4015
 20
28.3358
 30
0.0
 40
0
 41
0
  0
VERTEX
  8
0
 10
11.9883
 20
28.2493
 30
0.0
 40
0
 41
0
  0
VERTEX
  8
0
 10
12.4208
 20
28.1639
 30
0.0
 40
0
 41
0
  0
VERTEX
  8
0
 10
12.5638
 20
28.1299
 30
0.0
 40
0
 41
0
  0
VERTEX
  8
0
 10
12.7535
 20
28.0669
 30
0.0
 40
0
 41
0
  0
VERTEX
  8
0
 10
13.333
 20
27.9083
 30
0.0
 40
0
 41
0
  0
VERTEX
  8
0
 10
14.1256
 20
27.7468
 30
0.0
 40
0
 41
0
  0
VERTEX
  8
0
 10
14.939
 20
27.6481
 30
0.0
 40
0
 41
0
  0
VERTEX
  8
0
 10
15.5629
 20
27.6146
 30
0.0
 40
0
 41
0
  0
VERTEX
  8
0
 10
15.7708
 20
27.6146
 30
0.0
 40
0
 41
0
  0
VERTEX
  8
0
 10
15.9476
 20
27.6146
 30
0.0
 40
0
 41
0
  0
VERTEX
  8
0
 10
16.4782
 20
27.6389
 30
0.0
 40
0
 41
0
  0
VERTEX
  8
0
 10
17.1728
 20
27.7104
 30
0.0
 40
0
 41
0
  0
VERTEX
  8
0
 10
17.8528
 20
27.8276
 30
0.0
 40
0
 41
0
  0
VERTEX
  8
0
 10
18.3524
 20
27.9432
 30
0.0
 40
0
 41
0
  0
VERTEX
  8
0
 10
18.5168
 20
27.9892
 30
0.0
 40
0
 41
0
  0
VERTEX
  8
0
 10
18.6633
 20
28.025
 30
0.0
 40
0
 41
0
  0
VERTEX
  8
0
 10
19.1076
 20
28.1153
 30
0.0
 40
0
 41
0
  0
VERTEX
  8
0
 10
19.7104
 20
28.2068
 30
0.0
 40
0
 41
0
  0
VERTEX
  8
0
 10
20.3242
 20
28.2625
 30
0.0
 40
0
 41
0
  0
VERTEX
  8
0
 10
20.7919
 20
28.2813
 30
0.0
 40
0
 41
0
  0
VERTEX
  8
0
 10
20.9479
 20
28.2813
 30
0.0
 40
0
 41
0
  0
VERTEX
  8
0
 10
21.0761
 20
28.2813
 30
0.0
 40
0
 41
0
  0
VERTEX
  8
0
 10
21.4606
 20
28.2686
 30
0.0
 40
0
 41
0
  0
VERTEX
  8
0
 10
21.9667
 20
28.231
 30
0.0
 40
0
 41
0
  0
VERTEX
  8
0
 10
22.4657
 20
28.1689
 30
0.0
 40
0
 41
0
  0
VERTEX
  8
0
 10
22.9569
 20
28.0831
 30
0.0
 40
0
 41
0
  0
VERTEX
  8
0
 10
23.44
 20
27.974
 30
0.0
 40
0
 41
0
  0
VERTEX
  8
0
 10
23.914
 20
27.8425
 30
0.0
 40
0
 41
0
  0
VERTEX
  8
0
 10
24.3786
 20
27.6889
 30
0.0
 40
0
 41
0
  0
VERTEX
  8
0
 10
24.7206
 20
27.5603
 30
0.0
 40
0
 41
0
  0
VERTEX
  8
0
 10
24.8331
 20
27.5139
 30
0.0
 40
0
 41
0
  0
VERTEX
  8
0
 10
24.8658
 20
27.4988
 30
0.0
 40
0
 41
0
  0
VERTEX
  8
0
 10
25.196
 20
27.354
 30
0.0
 40
0
 41
0
  0
VERTEX
  8
0
 10
25.2294
 20
27.3403
 30
0.0
 40
0
 41
0
  0
VERTEX
  8
0
 10
25.2351
 20
27.3376
 30
0.0
 40
0
 41
0
  0
VERTEX
  8
0
 10
25.2919
 20
27.311
 30
0.0
 40
0
 41
0
  0
VERTEX
  8
0
 10
25.2976
 20
27.3082
 30
0.0
 40
0
 41
0
  0
VERTEX
  8
0
 10
25.2994
 20
27.3115
 30
0.0
 40
0
 41
0
  0
VERTEX
  8
0
 10
25.4101
 20
27.2668
 30
0.0
 40
0
 41
0
  0
VERTEX
  8
0
 10
25.7465
 20
27.1431
 30
0.0
 40
0
 41
0
  0
VERTEX
  8
0
 10
26.2032
 20
26.9953
 30
0.0
 40
0
 41
0
  0
VERTEX
  8
0
 10
26.669
 20
26.8686
 30
0.0
 40
0
 41
0
  0
VERTEX
  8
0
 10
27.1433
 20
26.7636
 30
0.0
 40
0
 41
0
  0
VERTEX
  8
0
 10
27.6256
 20
26.6811
 30
0.0
 40
0
 41
0
  0
VERTEX
  8
0
 10
28.1153
 20
26.6214
 30
0.0
 40
0
 41
0
  0
VERTEX
  8
0
 10
28.6118
 20
26.5851
 30
0.0
 40
0
 41
0
  0
VERTEX
  8
0
 10
28.9889
 20
26.5729
 30
0.0
 40
0
 41
0
  0
VERTEX
  8
0
 10
29.1146
 20
26.5729
 30
0.0
 40
0
 41
0
  0
VERTEX
  8
0
 10
29.3225
 20
26.5729
 30
0.0
 40
0
 41
0
  0
VERTEX
  8
0
 10
29.9465
 20
26.6064
 30
0.0
 40
0
 41
0
  0
VERTEX
  8
0
 10
30.7601
 20
26.7053
 30
0.0
 40
0
 41
0
  0
VERTEX
  8
0
 10
31.5528
 20
26.8668
 30
0.0
 40
0
 41
0
  0
VERTEX
  8
0
 10
32.3219
 20
27.0885
 30
0.0
 40
0
 41
0
  0
VERTEX
  8
0
 10
33.0651
 20
27.3675
 30
0.0
 40
0
 41
0
  0
VERTEX
  8
0
 10
33.7794
 20
27.7017
 30
0.0
 40
0
 41
0
  0
VERTEX
  8
0
 10
34.4625
 20
28.0881
 30
0.0
 40
0
 41
0
  0
VERTEX
  8
0
 10
34.9539
 20
28.4092
 30
0.0
 40
0
 41
0
  0
VERTEX
  8
0
 10
35.1118
 20
28.5242
 30
0.0
 40
0
 41
0
  0
SEQEND
 8
0
  0
POLYLINE
  8
0
 62
     0
 66
     1
 10
0
 20
0
 30
0.0
 70
     1
 40
0
 41
0
  0
VERTEX
  8
0
 10
21.5833
 20
3.46875
 30
0.0
 40
0
 41
0
  0
VERTEX
  8
0
 10
21.6174
 20
3.46875
 30
0.0
 40
0
 41
0
  0
VERTEX
  8
0
 10
21.7197
 20
3.45503
 30
0.0
 40
0
 41
0
  0
VERTEX
  8
0
 10
21.8467
 20
3.41553
 30
0.0
 40
0
 41
0
  0
VERTEX
  8
0
 10
21.9618
 20
3.35308
 30
0.0
 40
0
 41
0
  0
VERTEX
  8
0
 10
22.0619
 20
3.27035
 30
0.0
 40
0
 41
0
  0
VERTEX
  8
0
 10
22.1447
 20
3.17014
 30
0.0
 40
0
 41
0
  0
VERTEX
  8
0
 10
22.2071
 20
3.05512
 30
0.0
 40
0
 41
0
  0
VERTEX
  8
0
 10
22.2467
 20
2.92806
 30
0.0
 40
0
 41
0
  0
VERTEX
  8
0
 10
22.2604
 20
2.82579
 30
0.0
 40
0
 41
0
  0
VERTEX
  8
0
 10
22.2604
 20
2.79167
 30
0.0
 40
0
 41
0
  0
VERTEX
  8
0
 10
22.2604
 20
2.7576
 30
0.0
 40
0
 41
0
  0
VERTEX
  8
0
 10
22.2467
 20
2.65533
 30
0.0
 40
0
 41
0
  0
VERTEX
  8
0
 10
22.2071
 20
2.52826
 30
0.0
 40
0
 41
0
  0
VERTEX
  8
0
 10
22.1447
 20
2.41325
 30
0.0
 40
0
 41
0
  0
VERTEX
  8
0
 10
22.0619
 20
2.31304
 30
0.0
 40
0
 41
0
  0
VERTEX
  8
0
 10
21.9618
 20
2.23031
 30
0.0
 40
0
 41
0
  0
VERTEX
  8
0
 10
21.8467
 20
2.16786
 30
0.0
 40
0
 41
0
  0
VERTEX
  8
0
 10
21.7197
 20
2.12836
 30
0.0
 40
0
 41
0
  0
VERTEX
  8
0
 10
21.6174
 20
2.11458
 30
0.0
 40
0
 41
0
  0
VERTEX
  8
0
 10
21.5833
 20
2.11458
 30
0.0
 40
0
 41
0
  0
VERTEX
  8
0
 10
21.5492
 20
2.11458
 30
0.0
 40
0
 41
0
  0
VERTEX
  8
0
 10
21.4469
 20
2.12836
 30
0.0
 40
0
 41
0
  0
VERTEX
  8
0
 10
21.3199
 20
2.16786
 30
0.0
 40
0
 41
0
  0
VERTEX
  8
0
 10
21.2049
 20
2.23031
 30
0.0
 40
0
 41
0
  0
VERTEX
  8
0
 10
21.1047
 20
2.31304
 30
0.0
 40
0
 41
0
  0
VERTEX
  8
0
 10
21.0219
 20
2.41325
 30
0.0
 40
0
 41
0
  0
VERTEX
  8
0
 10
20.9594
 20
2.52826
 30
0.0
 40
0
 41
0
  0
VERTEX
  8
0
 10
20.92
 20
2.65533
 30
0.0
 40
0
 41
0
  0
VERTEX
  8
0
 10
20.9063
 20
2.7576
 30
0.0
 40
0
 41
0
  0
VERTEX
  8
0
 10
20.9063
 20
2.79167
 30
0.0
 40
0
 41
0
  0
VERTEX
  8
0
 10
20.9063
 20
2.82579
 30
0.0
 40
0
 41
0
  0
VERTEX
  8
0
 10
20.92
 20
2.92806
 30
0.0
 40
0
 41
0
  0
VERTEX
  8
0
 10
20.9594
 20
3.05512
 30
0.0
 40
0
 41
0
  0
VERTEX
  8
0
 10
21.0219
 20
3.17014
 30
0.0
 40
0
 41
0
  0
VERTEX
  8
0
 10
21.1047
 20
3.27035
 30
0.0
 40
0
 41
0
  0
VERTEX
  8
0
 10
21.2049
 20
3.35308
 30
0.0
 40
0
 41
0
  0
VERTEX
  8
0
 10
21.3199
 20
3.41553
 30
0.0
 40
0
 41
0
  0
VERTEX
  8
0
 10
21.4469
 20
3.45503
 30
0.0
 40
0
 41
0
  0
VERTEX
  8
0
 10
21.5492
 20
3.46875
 30
0.0
 40
0
 41
0
  0
VERTEX
  8
0
 10
21.5833
 20
3.46875
 30
0.0
 40
0
 41
0
  0
SEQEND
 8
0
  0
POLYLINE
  8
0
 62
     0
 66
     1
 10
0
 20
0
 30
0.0
 70
     1
 40
0
 41
0
  0
VERTEX
  8
0
 10
16.3594
 20
5.64063
 30
0.0
 40
0
 41
0
  0
VERTEX
  8
0
 10
16.3764
 20
5.64063
 30
0.0
 40
0
 41
0
  0
VERTEX
  8
0
 10
16.4275
 20
5.63379
 30
0.0
 40
0
 41
0
  0
VERTEX
  8
0
 10
16.4911
 20
5.61404
 30
0.0
 40
0
 41
0
  0
VERTEX
  8
0
 10
16.5486
 20
5.58279
 30
0.0
 40
0
 41
0
  0
VERTEX
  8
0
 10
16.5987
 20
5.54144
 30
0.0
 40
0
 41
0
  0
VERTEX
  8
0
 10
16.64
 20
5.49132
 30
0.0
 40
0
 41
0
  0
VERTEX
  8
0
 10
16.6712
 20
5.43381
 30
0.0
 40
0
 41
0
  0
VERTEX
  8
0
 10
16.691
 20
5.37028
 30
0.0
 40
0
 41
0
  0
VERTEX
  8
0
 10
16.6979
 20
5.31917
 30
0.0
 40
0
 41
0
  0
VERTEX
  8
0
 10
16.6979
 20
5.30208
 30
0.0
 40
0
 41
0
  0
VERTEX
  8
0
 10
16.6979
 20
5.28504
 30
0.0
 40
0
 41
0
  0
VERTEX
  8
0
 10
16.691
 20
5.23394
 30
0.0
 40
0
 41
0
  0
VERTEX
  8
0
 10
16.6712
 20
5.17042
 30
0.0
 40
0
 41
0
  0
VERTEX
  8
0
 10
16.64
 20
5.1129
 30
0.0
 40
0
 41
0
  0
VERTEX
  8
0
 10
16.5987
 20
5.06278
 30
0.0
 40
0
 41
0
  0
VERTEX
  8
0
 10
16.5486
 20
5.02143
 30
0.0
 40
0
 41
0
  0
VERTEX
  8
0
 10
16.4911
 20
4.99018
 30
0.0
 40
0
 41
0
  0
VERTEX
  8
0
 10
16.4275
 20
4.97043
 30
0.0
 40
0
 41
0
  0
VERTEX
  8
0
 10
16.3764
 20
4.96354
 30
0.0
 40
0
 41
0
  0
VERTEX
  8
0
 10
16.3594
 20
4.96354
 30
0.0
 40
0
 41
0
  0
VERTEX
  8
0
 10
16.3422
 20
4.96354
 30
0.0
 40
0
 41
0
  0
VERTEX
  8
0
 10
16.2911
 20
4.97043
 30
0.0
 40
0
 41
0
  0
VERTEX
  8
0
 10
16.2276
 20
4.99018
 30
0.0
 40
0
 41
0
  0
VERTEX
  8
0
 10
16.1701
 20
5.02143
 30
0.0
 40
0
 41
0
  0
VERTEX
  8
0
 10
16.12
 20
5.06278
 30
0.0
 40
0
 41
0
  0
VERTEX
  8
0
 10
16.0786
 20
5.1129
 30
0.0
 40
0
 41
0
  0
VERTEX
  8
0
 10
16.0474
 20
5.17042
 30
0.0
 40
0
 41
0
  0
VERTEX
  8
0
 10
16.0276
 20
5.23394
 30
0.0
 40
0
 41
0
  0
VERTEX
  8
0
 10
16.0208
 20
5.28504
 30
0.0
 40
0
 41
0
  0
VERTEX
  8
0
 10
16.0208
 20
5.30208
 30
0.0
 40
0
 41
0
  0
VERTEX
  8
0
 10
16.0208
 20
5.31917
 30
0.0
 40
0
 41
0
  0
VERTEX
  8
0
 10
16.0276
 20
5.37028
 30
0.0
 40
0
 41
0
  0
VERTEX
  8
0
 10
16.0474
 20
5.43381
 30
0.0
 40
0
 41
0
  0
VERTEX
  8
0
 10
16.0786
 20
5.49132
 30
0.0
 40
0
 41
0
  0
VERTEX
  8
0
 10
16.12
 20
5.54144
 30
0.0
 40
0
 41
0
  0
VERTEX
  8
0
 10
16.1701
 20
5.58279
 30
0.0
 40
0
 41
0
  0
VERTEX
  8
0
 10
16.2276
 20
5.61404
 30
0.0
 40
0
 41
0
  0
VERTEX
  8
0
 10
16.2911
 20
5.63379
 30
0.0
 40
0
 41
0
  0
VERTEX
  8
0
 10
16.3422
 20
5.64063
 30
0.0
 40
0
 41
0
  0
VERTEX
  8
0
 10
16.3594
 20
5.64063
 30
0.0
 40
0
 41
0
  0
SEQEND
 8
0
  0
POLYLINE
  8
0
 62
     0
 66
     1
 10
0
 20
0
 30
0.0
 70
     1
 40
0
 41
0
  0
VERTEX
  8
0
 10
18.4636
 20
10.1875
 30
0.0
 40
0
 41
0
  0
VERTEX
  8
0
 10
18.526
 20
10.1875
 30
0.0
 40
0
 41
0
  0
VERTEX
  8
0
 10
18.7131
 20
10.1749
 30
0.0
 40
0
 41
0
  0
VERTEX
  8
0
 10
18.9556
 20
10.1379
 30
0.0
 40
0
 41
0
  0
VERTEX
  8
0
 10
19.1896
 20
10.0776
 30
0.0
 40
0
 41
0
  0
VERTEX
  8
0
 10
19.4139
 20
9.99544
 30
0.0
 40
0
 41
0
  0
VERTEX
  8
0
 10
19.6275
 20
9.89253
 30
0.0
 40
0
 41
0
  0
VERTEX
  8
0
 10
19.8289
 20
9.77012
 30
0.0
 40
0
 41
0
  0
VERTEX
  8
0
 10
20.0169
 20
9.62944
 30
0.0
 40
0
 41
0
  0
VERTEX
  8
0
 10
20.1904
 20
9.47174
 30
0.0
 40
0
 41
0
  0
VERTEX
  8
0
 10
20.3482
 20
9.29824
 30
0.0
 40
0
 41
0
  0
VERTEX
  8
0
 10
20.4889
 20
9.11014
 30
0.0
 40
0
 41
0
  0
VERTEX
  8
0
 10
20.6113
 20
8.90875
 30
0.0
 40
0
 41
0
  0
VERTEX
  8
0
 10
20.7142
 20
8.69526
 30
0.0
 40
0
 41
0
  0
VERTEX
  8
0
 10
20.7964
 20
8.47086
 30
0.0
 40
0
 41
0
  0
VERTEX
  8
0
 10
20.8565
 20
8.23687
 30
0.0
 40
0
 41
0
  0
VERTEX
  8
0
 10
20.8936
 20
7.99442
 30
0.0
 40
0
 41
0
  0
VERTEX
  8
0
 10
20.9063
 20
7.80724
 30
0.0
 40
0
 41
0
  0
VERTEX
  8
0
 10
20.9063
 20
7.74479
 30
0.0
 40
0
 41
0
  0
VERTEX
  8
0
 10
20.9063
 20
7.6824
 30
0.0
 40
0
 41
0
  0
VERTEX
  8
0
 10
20.8936
 20
7.49522
 30
0.0
 40
0
 41
0
  0
VERTEX
  8
0
 10
20.8565
 20
7.25276
 30
0.0
 40
0
 41
0
  0
VERTEX
  8
0
 10
20.7964
 20
7.01878
 30
0.0
 40
0
 41
0
  0
VERTEX
  8
0
 10
20.7142
 20
6.79438
 30
0.0
 40
0
 41
0
  0
VERTEX
  8
0
 10
20.6113
 20
6.58089
 30
0.0
 40
0
 41
0
  0
VERTEX
  8
0
 10
20.4889
 20
6.3795
 30
0.0
 40
0
 41
0
  0
VERTEX
  8
0
 10
20.3482
 20
6.1914
 30
0.0
 40
0
 41
0
  0
VERTEX
  8
0
 10
20.1904
 20
6.0179
 30
0.0
 40
0
 41
0
  0
VERTEX
  8
0
 10
20.0169
 20
5.86019
 30
0.0
 40
0
 41
0
  0
VERTEX
  8
0
 10
19.8289
 20
5.71951
 30
0.0
 40
0
 41
0
  0
VERTEX
  8
0
 10
19.6275
 20
5.59711
 30
0.0
 40
0
 41
0
  0
VERTEX
  8
0
 10
19.4139
 20
5.49419
 30
0.0
 40
0
 41
0
  0
VERTEX
  8
0
 10
19.1896
 20
5.412
 30
0.0
 40
0
 41
0
  0
VERTEX
  8
0
 10
18.9556
 20
5.35178
 30
0.0
 40
0
 41
0
  0
VERTEX
  8
0
 10
18.7131
 20
5.31472
 30
0.0
 40
0
 41
0
  0
VERTEX
  8
0
 10
18.526
 20
5.30208
 30
0.0
 40
0
 41
0
  0
VERTEX
  8
0
 10
18.4636
 20
5.30208
 30
0.0
 40
0
 41
0
  0
VERTEX
  8
0
 10
18.4011
 20
5.30208
 30
0.0
 40
0
 41
0
  0
VERTEX
  8
0
 10
18.2139
 20
5.31472
 30
0.0
 40
0
 41
0
  0
VERTEX
  8
0
 10
17.9715
 20
5.35178
 30
0.0
 40
0
 41
0
  0
VERTEX
  8
0
 10
17.7375
 20
5.412
 30
0.0
 40
0
 41
0
  0
VERTEX
  8
0
 10
17.5131
 20
5.49419
 30
0.0
 40
0
 41
0
  0
VERTEX
  8
0
 10
17.2996
 20
5.59711
 30
0.0
 40
0
 41
0
  0
VERTEX
  8
0
 10
17.0982
 20
5.71951
 30
0.0
 40
0
 41
0
  0
VERTEX
  8
0
 10
16.9101
 20
5.86019
 30
0.0
 40
0
 41
0
  0
VERTEX
  8
0
 10
16.7367
 20
6.0179
 30
0.0
 40
0
 41
0
  0
VERTEX
  8
0
 10
16.5789
 20
6.1914
 30
0.0
 40
0
 41
0
  0
VERTEX
  8
0
 10
16.4382
 20
6.3795
 30
0.0
 40
0
 41
0
  0
VERTEX
  8
0
 10
16.3158
 20
6.58089
 30
0.0
 40
0
 41
0
  0
VERTEX
  8
0
 10
16.2129
 20
6.79438
 30
0.0
 40
0
 41
0
  0
VERTEX
  8
0
 10
16.1307
 20
7.01878
 30
0.0
 40
0
 41
0
  0
VERTEX
  8
0
 10
16.0704
 20
7.25276
 30
0.0
 40
0
 41
0
  0
VERTEX
  8
0
 10
16.0335
 20
7.49522
 30
0.0
 40
0
 41
0
  0
VERTEX
  8
0
 10
16.0208
 20
7.6824
 30
0.0
 40
0
 41
0
  0
VERTEX
  8
0
 10
16.0208
 20
7.74479
 30
0.0
 40
0
 41
0
  0
VERTEX
  8
0
 10
16.0208
 20
7.80724
 30
0.0
 40
0
 41
0
  0
VERTEX
  8
0
 10
16.0335
 20
7.99442
 30
0.0
 40
0
 41
0
  0
VERTEX
  8
0
 10
16.0704
 20
8.23687
 30
0.0
 40
0
 41
0
  0
VERTEX
  8
0
 10
16.1307
 20
8.47086
 30
0.0
 40
0
 41
0
  0
VERTEX
  8
0
 10
16.2129
 20
8.69526
 30
0.0
 40
0
 41
0
  0
VERTEX
  8
0
 10
16.3158
 20
8.90875
 30
0.0
 40
0
 41
0
  0
VERTEX
  8
0
 10
16.4382
 20
9.11014
 30
0.0
 40
0
 41
0
  0
VERTEX
  8
0
 10
16.5789
 20
9.29824
 30
0.0
 40
0
 41
0
  0
VERTEX
  8
0
 10
16.7367
 20
9.47174
 30
0.0
 40
0
 41
0
  0
VERTEX
  8
0
 10
16.9101
 20
9.62944
 30
0.0
 40
0
 41
0
  0
VERTEX
  8
0
 10
17.0982
 20
9.77012
 30
0.0
 40
0
 41
0
  0
VERTEX
  8
0
 10
17.2996
 20
9.89253
 30
0.0
 40
0
 41
0
  0
VERTEX
  8
0
 10
17.5131
 20
9.99544
 30
0.0
 40
0
 41
0
  0
VERTEX
  8
0
 10
17.7375
 20
10.0776
 30
0.0
 40
0
 41
0
  0
VERTEX
  8
0
 10
17.9715
 20
10.1379
 30
0.0
 40
0
 41
0
  0
VERTEX
  8
0
 10
18.2139
 20
10.1749
 30
0.0
 40
0
 41
0
  0
VERTEX
  8
0
 10
18.4011
 20
10.1875
 30
0.0
 40
0
 41
0
  0
VERTEX
  8
0
 10
18.4636
 20
10.1875
 30
0.0
 40
0
 41
0
  0
SEQEND
 8
0
  0
POLYLINE
  8
0
 62
     0
 66
     1
 10
0
 20
0
 30
0.0
 70
     1
 40
0
 41
0
  0
VERTEX
  8
0
 10
11.8958
 20
10.8646
 30
0.0
 40
0
 41
0
  0
VERTEX
  8
0
 10
11.9299
 20
10.8646
 30
0.0
 40
0
 41
0
  0
VERTEX
  8
0
 10
12.0322
 20
10.8509
 30
0.0
 40
0
 41
0
  0
VERTEX
  8
0
 10
12.1592
 20
10.8114
 30
0.0
 40
0
 41
0
  0
VERTEX
  8
0
 10
12.2742
 20
10.7489
 30
0.0
 40
0
 41
0
  0
VERTEX
  8
0
 10
12.3745
 20
10.6662
 30
0.0
 40
0
 41
0
  0
VERTEX
  8
0
 10
12.4572
 20
10.566
 30
0.0
 40
0
 41
0
  0
VERTEX
  8
0
 10
12.5196
 20
10.451
 30
0.0
 40
0
 41
0
  0
VERTEX
  8
0
 10
12.5591
 20
10.3239
 30
0.0
 40
0
 41
0
  0
VERTEX
  8
0
 10
12.5729
 20
10.2216
 30
0.0
 40
0
 41
0
  0
VERTEX
  8
0
 10
12.5729
 20
10.1875
 30
0.0
 40
0
 41
0
  0
VERTEX
  8
0
 10
12.5729
 20
10.1534
 30
0.0
 40
0
 41
0
  0
VERTEX
  8
0
 10
12.5591
 20
10.0512
 30
0.0
 40
0
 41
0
  0
VERTEX
  8
0
 10
12.5196
 20
9.9241
 30
0.0
 40
0
 41
0
  0
VERTEX
  8
0
 10
12.4572
 20
9.80908
 30
0.0
 40
0
 41
0
  0
VERTEX
  8
0
 10
12.3745
 20
9.70888
 30
0.0
 40
0
 41
0
  0
VERTEX
  8
0
 10
12.2742
 20
9.62614
 30
0.0
 40
0
 41
0
  0
VERTEX
  8
0
 10
12.1592
 20
9.56369
 30
0.0
 40
0
 41
0
  0
VERTEX
  8
0
 10
12.0322
 20
9.52419
 30
0.0
 40
0
 41
0
  0
VERTEX
  8
0
 10
11.9299
 20
9.51042
 30
0.0
 40
0
 41
0
  0
VERTEX
  8
0
 10
11.8958
 20
9.51042
 30
0.0
 40
0
 41
0
  0
VERTEX
  8
0
 10
11.8617
 20
9.51042
 30
0.0
 40
0
 41
0
  0
VERTEX
  8
0
 10
11.7594
 20
9.52419
 30
0.0
 40
0
 41
0
  0
VERTEX
  8
0
 10
11.6324
 20
9.56369
 30
0.0
 40
0
 41
0
  0
VERTEX
  8
0
 10
11.5174
 20
9.62614
 30
0.0
 40
0
 41
0
  0
VERTEX
  8
0
 10
11.4172
 20
9.70888
 30
0.0
 40
0
 41
0
  0
VERTEX
  8
0
 10
11.3344
 20
9.80908
 30
0.0
 40
0
 41
0
  0
VERTEX
  8
0
 10
11.272
 20
9.9241
 30
0.0
 40
0
 41
0
  0
VERTEX
  8
0
 10
11.2325
 20
10.0512
 30
0.0
 40
0
 41
0
  0
VERTEX
  8
0
 10
11.2188
 20
10.1534
 30
0.0
 40
0
 41
0
  0
VERTEX
  8
0
 10
11.2188
 20
10.1875
 30
0.0
 40
0
 41
0
  0
VERTEX
  8
0
 10
11.2188
 20
10.2216
 30
0.0
 40
0
 41
0
  0
VERTEX
  8
0
 10
11.2325
 20
10.3239
 30
0.0
 40
0
 41
0
  0
VERTEX
  8
0
 10
11.272
 20
10.451
 30
0.0
 40
0
 41
0
  0
VERTEX
  8
0
 10
11.3344
 20
10.566
 30
0.0
 40
0
 41
0
  0
VERTEX
  8
0
 10
11.4172
 20
10.6662
 30
0.0
 40
0
 41
0
  0
VERTEX
  8
0
 10
11.5174
 20
10.7489
 30
0.0
 40
0
 41
0
  0
VERTEX
  8
0
 10
11.6324
 20
10.8114
 30
0.0
 40
0
 41
0
  0
VERTEX
  8
0
 10
11.7594
 20
10.8509
 30
0.0
 40
0
 41
0
  0
VERTEX
  8
0
 10
11.8617
 20
10.8646
 30
0.0
 40
0
 41
0
  0
VERTEX
  8
0
 10
11.8958
 20
10.8646
 30
0.0
 40
0
 41
0
  0
SEQEND
 8
0
  0
POLYLINE
  8
0
 62
     0
 66
     1
 10
0
 20
0
 30
0.0
 70
     1
 40
0
 41
0
  0
VERTEX
  8
0
 10
32.0261
 20
16.3854
 30
0.0
 40
0
 41
0
  0
VERTEX
  8
0
 10
32.0853
 20
16.3854
 30
0.0
 40
0
 41
0
  0
VERTEX
  8
0
 10
32.2629
 20
16.3735
 30
0.0
 40
0
 41
0
  0
VERTEX
  8
0
 10
32.4929
 20
16.3383
 30
0.0
 40
0
 41
0
  0
VERTEX
  8
0
 10
32.7149
 20
16.2813
 30
0.0
 40
0
 41
0
  0
VERTEX
  8
0
 10
32.9278
 20
16.2032
 30
0.0
 40
0
 41
0
  0
VERTEX
  8
0
 10
33.1304
 20
16.1056
 30
0.0
 40
0
 41
0
  0
VERTEX
  8
0
 10
33.3215
 20
15.9893
 30
0.0
 40
0
 41
0
  0
VERTEX
  8
0
 10
33.5
 20
15.856
 30
0.0
 40
0
 41
0
  0
VERTEX
  8
0
 10
33.6646
 20
15.7062
 30
0.0
 40
0
 41
0
  0
VERTEX
  8
0
 10
33.8142
 20
15.5417
 30
0.0
 40
0
 41
0
  0
VERTEX
  8
0
 10
33.9476
 20
15.3632
 30
0.0
 40
0
 41
0
  0
VERTEX
  8
0
 10
34.0638
 20
15.1721
 30
0.0
 40
0
 41
0
  0
VERTEX
  8
0
 10
34.1615
 20
14.9694
 30
0.0
 40
0
 41
0
  0
VERTEX
  8
0
 10
34.2394
 20
14.7567
 30
0.0
 40
0
 41
0
  0
VERTEX
  8
0
 10
34.2967
 20
14.5346
 30
0.0
 40
0
 41
0
  0
VERTEX
  8
0
 10
34.3318
 20
14.3046
 30
0.0
 40
0
 41
0
  0
VERTEX
  8
0
 10
34.3438
 20
14.1269
 30
0.0
 40
0
 41
0
  0
VERTEX
  8
0
 10
34.3438
 20
14.0678
 30
0.0
 40
0
 41
0
  0
VERTEX
  8
0
 10
34.3438
 20
14.0085
 30
0.0
 40
0
 41
0
  0
VERTEX
  8
0
 10
34.3318
 20
13.8309
 30
0.0
 40
0
 41
0
  0
VERTEX
  8
0
 10
34.2967
 20
13.6009
 30
0.0
 40
0
 41
0
  0
VERTEX
  8
0
 10
34.2394
 20
13.3788
 30
0.0
 40
0
 41
0
  0
VERTEX
  8
0
 10
34.1615
 20
13.166
 30
0.0
 40
0
 41
0
  0
VERTEX
  8
0
 10
34.0638
 20
12.9634
 30
0.0
 40
0
 41
0
  0
VERTEX
  8
0
 10
33.9476
 20
12.7722
 30
0.0
 40
0
 41
0
  0
VERTEX
  8
0
 10
33.8142
 20
12.5938
 30
0.0
 40
0
 41
0
  0
VERTEX
  8
0
 10
33.6646
 20
12.4292
 30
0.0
 40
0
 41
0
  0
VERTEX
  8
0
 10
33.5
 20
12.2796
 30
0.0
 40
0
 41
0
  0
VERTEX
  8
0
 10
33.3215
 20
12.1461
 30
0.0
 40
0
 41
0
  0
VERTEX
  8
0
 10
33.1304
 20
12.0299
 30
0.0
 40
0
 41
0
  0
VERTEX
  8
0
 10
32.9278
 20
11.9323
 30
0.0
 40
0
 41
0
  0
VERTEX
  8
0
 10
32.7149
 20
11.8543
 30
0.0
 40
0
 41
0
  0
VERTEX
  8
0
 10
32.4929
 20
11.7972
 30
0.0
 40
0
 41
0
  0
VERTEX
  8
0
 10
32.2629
 20
11.762
 30
0.0
 40
0
 41
0
  0
VERTEX
  8
0
 10
32.0853
 20
11.75
 30
0.0
 40
0
 41
0
  0
VERTEX
  8
0
 10
32.0261
 20
11.75
 30
0.0
 40
0
 41
0
  0
VERTEX
  8
0
 10
31.9668
 20
11.75
 30
0.0
 40
0
 41
0
  0
VERTEX
  8
0
 10
31.7892
 20
11.762
 30
0.0
 40
0
 41
0
  0
VERTEX
  8
0
 10
31.5592
 20
11.7972
 30
0.0
 40
0
 41
0
  0
VERTEX
  8
0
 10
31.3371
 20
11.8543
 30
0.0
 40
0
 41
0
  0
VERTEX
  8
0
 10
31.1243
 20
11.9323
 30
0.0
 40
0
 41
0
  0
VERTEX
  8
0
 10
30.9217
 20
12.0299
 30
0.0
 40
0
 41
0
  0
VERTEX
  8
0
 10
30.7306
 20
12.1461
 30
0.0
 40
0
 41
0
  0
VERTEX
  8
0
 10
30.5521
 20
12.2796
 30
0.0
 40
0
 41
0
  0
VERTEX
  8
0
 10
30.3875
 20
12.4292
 30
0.0
 40
0
 41
0
  0
VERTEX
  8
0
 10
30.2379
 20
12.5938
 30
0.0
 40
0
 41
0
  0
VERTEX
  8
0
 10
30.1044
 20
12.7722
 30
0.0
 40
0
 41
0
  0
VERTEX
  8
0
 10
29.9882
 20
12.9634
 30
0.0
 40
0
 41
0
  0
VERTEX
  8
0
 10
29.8906
 20
13.166
 30
0.0
 40
0
 41
0
  0
VERTEX
  8
0
 10
29.8125
 20
13.3788
 30
0.0
 40
0
 41
0
  0
VERTEX
  8
0
 10
29.7554
 20
13.6009
 30
0.0
 40
0
 41
0
  0
VERTEX
  8
0
 10
29.7203
 20
13.8309
 30
0.0
 40
0
 41
0
  0
VERTEX
  8
0
 10
29.7083
 20
14.0085
 30
0.0
 40
0
 41
0
  0
VERTEX
  8
0
 10
29.7083
 20
14.0678
 30
0.0
 40
0
 41
0
  0
VERTEX
  8
0
 10
29.7083
 20
14.1269
 30
0.0
 40
0
 41
0
  0
VERTEX
  8
0
 10
29.7203
 20
14.3046
 30
0.0
 40
0
 41
0
  0
VERTEX
  8
0
 10
29.7554
 20
14.5346
 30
0.0
 40
0
 41
0
  0
VERTEX
  8
0
 10
29.8125
 20
14.7567
 30
0.0
 40
0
 41
0
  0
VERTEX
  8
0
 10
29.8906
 20
14.9694
 30
0.0
 40
0
 41
0
  0
VERTEX
  8
0
 10
29.9882
 20
15.1721
 30
0.0
 40
0
 41
0
  0
VERTEX
  8
0
 10
30.1044
 20
15.3632
 30
0.0
 40
0
 41
0
  0
VERTEX
  8
0
 10
30.2379
 20
15.5417
 30
0.0
 40
0
 41
0
  0
VERTEX
  8
0
 10
30.3875
 20
15.7062
 30
0.0
 40
0
 41
0
  0
VERTEX
  8
0
 10
30.5521
 20
15.856
 30
0.0
 40
0
 41
0
  0
VERTEX
  8
0
 10
30.7306
 20
15.9893
 30
0.0
 40
0
 41
0
  0
VERTEX
  8
0
 10
30.9217
 20
16.1056
 30
0.0
 40
0
 41
0
  0
VERTEX
  8
0
 10
31.1243
 20
16.2032
 30
0.0
 40
0
 41
0
  0
VERTEX
  8
0
 10
31.3371
 20
16.2813
 30
0.0
 40
0
 41
0
  0
VERTEX
  8
0
 10
31.5592
 20
16.3383
 30
0.0
 40
0
 41
0
  0
VERTEX
  8
0
 10
31.7892
 20
16.3735
 30
0.0
 40
0
 41
0
  0
VERTEX
  8
0
 10
31.9668
 20
16.3854
 30
0.0
 40
0
 41
0
  0
VERTEX
  8
0
 10
32.0261
 20
16.3854
 30
0.0
 40
0
 41
0
  0
SEQEND
 8
0
  0
POLYLINE
  8
0
 62
     0
 66
     1
 10
0
 20
0
 30
0.0
 70
     1
 40
0
 41
0
  0
VERTEX
  8
0
 10
26.2708
 20
13.2604
 30
0.0
 40
0
 41
0
  0
VERTEX
  8
0
 10
26.3049
 20
13.2604
 30
0.0
 40
0
 41
0
  0
VERTEX
  8
0
 10
26.4072
 20
13.2467
 30
0.0
 40
0
 41
0
  0
VERTEX
  8
0
 10
26.5342
 20
13.2072
 30
0.0
 40
0
 41
0
  0
VERTEX
  8
0
 10
26.6493
 20
13.1448
 30
0.0
 40
0
 41
0
  0
VERTEX
  8
0
 10
26.7494
 20
13.062
 30
0.0
 40
0
 41
0
  0
VERTEX
  8
0
 10
26.8322
 20
12.9618
 30
0.0
 40
0
 41
0
  0
VERTEX
  8
0
 10
26.8946
 20
12.8468
 30
0.0
 40
0
 41
0
  0
VERTEX
  8
0
 10
26.9342
 20
12.7197
 30
0.0
 40
0
 41
0
  0
VERTEX
  8
0
 10
26.9479
 20
12.6175
 30
0.0
 40
0
 41
0
  0
VERTEX
  8
0
 10
26.9479
 20
12.5833
 30
0.0
 40
0
 41
0
  0
VERTEX
  8
0
 10
26.9479
 20
12.5493
 30
0.0
 40
0
 41
0
  0
VERTEX
  8
0
 10
26.9342
 20
12.447
 30
0.0
 40
0
 41
0
  0
VERTEX
  8
0
 10
26.8946
 20
12.3199
 30
0.0
 40
0
 41
0
  0
VERTEX
  8
0
 10
26.8322
 20
12.2049
 30
0.0
 40
0
 41
0
  0
VERTEX
  8
0
 10
26.7494
 20
12.1047
 30
0.0
 40
0
 41
0
  0
VERTEX
  8
0
 10
26.6493
 20
12.022
 30
0.0
 40
0
 41
0
  0
VERTEX
  8
0
 10
26.5342
 20
11.9595
 30
0.0
 40
0
 41
0
  0
VERTEX
  8
0
 10
26.4072
 20
11.92
 30
0.0
 40
0
 41
0
  0
VERTEX
  8
0
 10
26.3049
 20
11.9063
 30
0.0
 40
0
 41
0
  0
VERTEX
  8
0
 10
26.2708
 20
11.9063
 30
0.0
 40
0
 41
0
  0
VERTEX
  8
0
 10
26.2367
 20
11.9063
 30
0.0
 40
0
 41
0
  0
VERTEX
  8
0
 10
26.1344
 20
11.92
 30
0.0
 40
0
 41
0
  0
VERTEX
  8
0
 10
26.0074
 20
11.9595
 30
0.0
 40
0
 41
0
  0
VERTEX
  8
0
 10
25.8924
 20
12.022
 30
0.0
 40
0
 41
0
  0
VERTEX
  8
0
 10
25.7922
 20
12.1047
 30
0.0
 40
0
 41
0
  0
VERTEX
  8
0
 10
25.7094
 20
12.2049
 30
0.0
 40
0
 41
0
  0
VERTEX
  8
0
 10
25.6469
 20
12.3199
 30
0.0
 40
0
 41
0
  0
VERTEX
  8
0
 10
25.6075
 20
12.447
 30
0.0
 40
0
 41
0
  0
VERTEX
  8
0
 10
25.5938
 20
12.5493
 30
0.0
 40
0
 41
0
  0
VERTEX
  8
0
 10
25.5938
 20
12.5833
 30
0.0
 40
0
 41
0
  0
VERTEX
  8
0
 10
25.5938
 20
12.6175
 30
0.0
 40
0
 41
0
  0
VERTEX
  8
0
 10
25.6075
 20
12.7197
 30
0.0
 40
0
 41
0
  0
VERTEX
  8
0
 10
25.6469
 20
12.8468
 30
0.0
 40
0
 41
0
  0
VERTEX
  8
0
 10
25.7094
 20
12.9618
 30
0.0
 40
0
 41
0
  0
VERTEX
  8
0
 10
25.7922
 20
13.062
 30
0.0
 40
0
 41
0
  0
VERTEX
  8
0
 10
25.8924
 20
13.1448
 30
0.0
 40
0
 41
0
  0
VERTEX
  8
0
 10
26.0074
 20
13.2072
 30
0.0
 40
0
 41
0
  0
VERTEX
  8
0
 10
26.1344
 20
13.2467
 30
0.0
 40
0
 41
0
  0
VERTEX
  8
0
 10
26.2367
 20
13.2604
 30
0.0
 40
0
 41
0
  0
VERTEX
  8
0
 10
26.2708
 20
13.2604
 30
0.0
 40
0
 41
0
  0
SEQEND
 8
0
  0
POLYLINE
  8
0
 62
     0
 66
     1
 10
0
 20
0
 30
0.0
 70
     1
 40
0
 41
0
  0
VERTEX
  8
0
 10
40.0208
 20
13.2604
 30
0.0
 40
0
 41
0
  0
VERTEX
  8
0
 10
40.0549
 20
13.2604
 30
0.0
 40
0
 41
0
  0
VERTEX
  8
0
 10
40.1572
 20
13.2467
 30
0.0
 40
0
 41
0
  0
VERTEX
  8
0
 10
40.2842
 20
13.2072
 30
0.0
 40
0
 41
0
  0
VERTEX
  8
0
 10
40.3993
 20
13.1448
 30
0.0
 40
0
 41
0
  0
VERTEX
  8
0
 10
40.4994
 20
13.062
 30
0.0
 40
0
 41
0
  0
VERTEX
  8
0
 10
40.5822
 20
12.9618
 30
0.0
 40
0
 41
0
  0
VERTEX
  8
0
 10
40.6446
 20
12.8468
 30
0.0
 40
0
 41
0
  0
VERTEX
  8
0
 10
40.6842
 20
12.7197
 30
0.0
 40
0
 41
0
  0
VERTEX
  8
0
 10
40.6979
 20
12.6175
 30
0.0
 40
0
 41
0
  0
VERTEX
  8
0
 10
40.6979
 20
12.5833
 30
0.0
 40
0
 41
0
  0
VERTEX
  8
0
 10
40.6979
 20
12.5493
 30
0.0
 40
0
 41
0
  0
VERTEX
  8
0
 10
40.6842
 20
12.447
 30
0.0
 40
0
 41
0
  0
VERTEX
  8
0
 10
40.6446
 20
12.3199
 30
0.0
 40
0
 41
0
  0
VERTEX
  8
0
 10
40.5822
 20
12.2049
 30
0.0
 40
0
 41
0
  0
VERTEX
  8
0
 10
40.4994
 20
12.1047
 30
0.0
 40
0
 41
0
  0
VERTEX
  8
0
 10
40.3993
 20
12.022
 30
0.0
 40
0
 41
0
  0
VERTEX
  8
0
 10
40.2842
 20
11.9595
 30
0.0
 40
0
 41
0
  0
VERTEX
  8
0
 10
40.1572
 20
11.92
 30
0.0
 40
0
 41
0
  0
VERTEX
  8
0
 10
40.0549
 20
11.9063
 30
0.0
 40
0
 41
0
  0
VERTEX
  8
0
 10
40.0208
 20
11.9063
 30
0.0
 40
0
 41
0
  0
VERTEX
  8
0
 10
39.9867
 20
11.9063
 30
0.0
 40
0
 41
0
  0
VERTEX
  8
0
 10
39.8844
 20
11.92
 30
0.0
 40
0
 41
0
  0
VERTEX
  8
0
 10
39.7574
 20
11.9595
 30
0.0
 40
0
 41
0
  0
VERTEX
  8
0
 10
39.6424
 20
12.022
 30
0.0
 40
0
 41
0
  0
VERTEX
  8
0
 10
39.5422
 20
12.1047
 30
0.0
 40
0
 41
0
  0
VERTEX
  8
0
 10
39.4594
 20
12.2049
 30
0.0
 40
0
 41
0
  0
VERTEX
  8
0
 10
39.3969
 20
12.3199
 30
0.0
 40
0
 41
0
  0
VERTEX
  8
0
 10
39.3575
 20
12.447
 30
0.0
 40
0
 41
0
  0
VERTEX
  8
0
 10
39.3438
 20
12.5493
 30
0.0
 40
0
 41
0
  0
VERTEX
  8
0
 10
39.3438
 20
12.5833
 30
0.0
 40
0
 41
0
  0
VERTEX
  8
0
 10
39.3438
 20
12.6175
 30
0.0
 40
0
 41
0
  0
VERTEX
  8
0
 10
39.3575
 20
12.7197
 30
0.0
 40
0
 41
0
  0
VERTEX
  8
0
 10
39.3969
 20
12.8468
 30
0.0
 40
0
 41
0
  0
VERTEX
  8
0
 10
39.4594
 20
12.9618
 30
0.0
 40
0
 41
0
  0
VERTEX
  8
0
 10
39.5422
 20
13.062
 30
0.0
 40
0
 41
0
  0
VERTEX
  8
0
 10
39.6424
 20
13.1448
 30
0.0
 40
0
 41
0
  0
VERTEX
  8
0
 10
39.7574
 20
13.2072
 30
0.0
 40
0
 41
0
  0
VERTEX
  8
0
 10
39.8844
 20
13.2467
 30
0.0
 40
0
 41
0
  0
VERTEX
  8
0
 10
39.9867
 20
13.2604
 30
0.0
 40
0
 41
0
  0
VERTEX
  8
0
 10
40.0208
 20
13.2604
 30
0.0
 40
0
 41
0
  0
SEQEND
 8
0
  0
POLYLINE
  8
0
 62
     0
 66
     1
 10
0
 20
0
 30
0.0
 70
     1
 40
0
 41
0
  0
VERTEX
  8
0
 10
18.4636
 20
22.5313
 30
0.0
 40
0
 41
0
  0
VERTEX
  8
0
 10
18.5318
 20
22.5313
 30
0.0
 40
0
 41
0
  0
VERTEX
  8
0
 10
18.7367
 20
22.5243
 30
0.0
 40
0
 41
0
  0
VERTEX
  8
0
 10
19.0064
 20
22.5039
 30
0.0
 40
0
 41
0
  0
VERTEX
  8
0
 10
19.2721
 20
22.47
 30
0.0
 40
0
 41
0
  0
VERTEX
  8
0
 10
19.5336
 20
22.4233
 30
0.0
 40
0
 41
0
  0
VERTEX
  8
0
 10
19.7906
 20
22.3639
 30
0.0
 40
0
 41
0
  0
VERTEX
  8
0
 10
20.0426
 20
22.2922
 30
0.0
 40
0
 41
0
  0
VERTEX
  8
0
 10
20.2893
 20
22.2088
 30
0.0
 40
0
 41
0
  0
VERTEX
  8
0
 10
20.5306
 20
22.1135
 30
0.0
 40
0
 41
0
  0
VERTEX
  8
0
 10
20.7658
 20
22.0071
 30
0.0
 40
0
 41
0
  0
VERTEX
  8
0
 10
20.9949
 20
21.8897
 30
0.0
 40
0
 41
0
  0
VERTEX
  8
0
 10
21.2174
 20
21.7617
 30
0.0
 40
0
 41
0
  0
VERTEX
  8
0
 10
21.4329
 20
21.6235
 30
0.0
 40
0
 41
0
  0
VERTEX
  8
0
 10
21.6413
 20
21.4753
 30
0.0
 40
0
 41
0
  0
VERTEX
  8
0
 10
21.8419
 20
21.3175
 30
0.0
 40
0
 41
0
  0
VERTEX
  8
0
 10
22.0347
 20
21.1506
 30
0.0
 40
0
 41
0
  0
VERTEX
  8
0
 10
22.2193
 20
20.9746
 30
0.0
 40
0
 41
0
  0
VERTEX
  8
0
 10
22.3953
 20
20.79
 30
0.0
 40
0
 41
0
  0
VERTEX
  8
0
 10
22.5622
 20
20.5972
 30
0.0
 40
0
 41
0
  0
VERTEX
  8
0
 10
22.72
 20
20.3965
 30
0.0
 40
0
 41
0
  0
VERTEX
  8
0
 10
22.8682
 20
20.1882
 30
0.0
 40
0
 41
0
  0
VERTEX
  8
0
 10
23.0064
 20
19.9726
 30
0.0
 40
0
 41
0
  0
VERTEX
  8
0
 10
23.1344
 20
19.7501
 30
0.0
 40
0
 41
0
  0
VERTEX
  8
0
 10
23.2518
 20
19.5211
 30
0.0
 40
0
 41
0
  0
VERTEX
  8
0
 10
23.3582
 20
19.2858
 30
0.0
 40
0
 41
0
  0
VERTEX
  8
0
 10
23.4535
 20
19.0446
 30
0.0
 40
0
 41
0
  0
VERTEX
  8
0
 10
23.5369
 20
18.7979
 30
0.0
 40
0
 41
0
  0
VERTEX
  8
0
 10
23.6086
 20
18.5458
 30
0.0
 40
0
 41
0
  0
VERTEX
  8
0
 10
23.6681
 20
18.2889
 30
0.0
 40
0
 41
0
  0
VERTEX
  8
0
 10
23.7147
 20
18.0274
 30
0.0
 40
0
 41
0
  0
VERTEX
  8
0
 10
23.7486
 20
17.7617
 30
0.0
 40
0
 41
0
  0
VERTEX
  8
0
 10
23.7692
 20
17.4919
 30
0.0
 40
0
 41
0
  0
VERTEX
  8
0
 10
23.7761
 20
17.2871
 30
0.0
 40
0
 41
0
  0
VERTEX
  8
0
 10
23.7761
 20
17.2188
 30
0.0
 40
0
 41
0
  0
VERTEX
  8
0
 10
23.7761
 20
17.1506
 30
0.0
 40
0
 41
0
  0
VERTEX
  8
0
 10
23.7692
 20
16.9456
 30
0.0
 40
0
 41
0
  0
VERTEX
  8
0
 10
23.7486
 20
16.676
 30
0.0
 40
0
 41
0
  0
VERTEX
  8
0
 10
23.7147
 20
16.4103
 30
0.0
 40
0
 41
0
  0
VERTEX
  8
0
 10
23.6681
 20
16.1486
 30
0.0
 40
0
 41
0
  0
VERTEX
  8
0
 10
23.6086
 20
15.8918
 30
0.0
 40
0
 41
0
  0
VERTEX
  8
0
 10
23.5369
 20
15.6397
 30
0.0
 40
0
 41
0
  0
VERTEX
  8
0
 10
23.4535
 20
15.3929
 30
0.0
 40
0
 41
0
  0
VERTEX
  8
0
 10
23.3582
 20
15.1518
 30
0.0
 40
0
 41
0
  0
VERTEX
  8
0
 10
23.2518
 20
14.9164
 30
0.0
 40
0
 41
0
  0
VERTEX
  8
0
 10
23.1344
 20
14.6874
 30
0.0
 40
0
 41
0
  0
VERTEX
  8
0
 10
23.0064
 20
14.4649
 30
0.0
 40
0
 41
0
  0
VERTEX
  8
0
 10
22.8682
 20
14.2493
 30
0.0
 40
0
 41
0
  0
VERTEX
  8
0
 10
22.72
 20
14.0411
 30
0.0
 40
0
 41
0
  0
VERTEX
  8
0
 10
22.5622
 20
13.8403
 30
0.0
 40
0
 41
0
  0
VERTEX
  8
0
 10
22.3953
 20
13.6475
 30
0.0
 40
0
 41
0
  0
VERTEX
  8
0
 10
22.2193
 20
13.463
 30
0.0
 40
0
 41
0
  0
VERTEX
  8
0
 10
22.0347
 20
13.2871
 30
0.0
 40
0
 41
0
  0
VERTEX
  8
0
 10
21.8419
 20
13.12
 30
0.0
 40
0
 41
0
  0
VERTEX
  8
0
 10
21.6413
 20
12.9622
 30
0.0
 40
0
 41
0
  0
VERTEX
  8
0
 10
21.4329
 20
12.8141
 30
0.0
 40
0
 41
0
  0
VERTEX
  8
0
 10
21.2174
 20
12.6758
 30
0.0
 40
0
 41
0
  0
VERTEX
  8
0
 10
20.9949
 20
12.5478
 30
0.0
 40
0
 41
0
  0
VERTEX
  8
0
 10
20.7658
 20
12.4305
 30
0.0
 40
0
 41
0
  0
VERTEX
  8
0
 10
20.5306
 20
12.3241
 30
0.0
 40
0
 41
0
  0
VERTEX
  8
0
 10
20.2893
 20
12.2288
 30
0.0
 40
0
 41
0
  0
VERTEX
  8
0
 10
20.0426
 20
12.1453
 30
0.0
 40
0
 41
0
  0
VERTEX
  8
0
 10
19.7906
 20
12.0736
 30
0.0
 40
0
 41
0
  0
VERTEX
  8
0
 10
19.5336
 20
12.0143
 30
0.0
 40
0
 41
0
  0
VERTEX
  8
0
 10
19.2721
 20
11.9676
 30
0.0
 40
0
 41
0
  0
VERTEX
  8
0
 10
19.0064
 20
11.9337
 30
0.0
 40
0
 41
0
  0
VERTEX
  8
0
 10
18.7367
 20
11.9132
 30
0.0
 40
0
 41
0
  0
VERTEX
  8
0
 10
18.5318
 20
11.9063
 30
0.0
 40
0
 41
0
  0
VERTEX
  8
0
 10
18.4636
 20
11.9063
 30
0.0
 40
0
 41
0
  0
VERTEX
  8
0
 10
18.3953
 20
11.9063
 30
0.0
 40
0
 41
0
  0
VERTEX
  8
0
 10
18.1903
 20
11.9132
 30
0.0
 40
0
 41
0
  0
VERTEX
  8
0
 10
17.9207
 20
11.9337
 30
0.0
 40
0
 41
0
  0
VERTEX
  8
0
 10
17.655
 20
11.9676
 30
0.0
 40
0
 41
0
  0
VERTEX
  8
0
 10
17.3933
 20
12.0143
 30
0.0
 40
0
 41
0
  0
VERTEX
  8
0
 10
17.1365
 20
12.0736
 30
0.0
 40
0
 41
0
  0
VERTEX
  8
0
 10
16.8844
 20
12.1453
 30
0.0
 40
0
 41
0
  0
VERTEX
  8
0
 10
16.6376
 20
12.2288
 30
0.0
 40
0
 41
0
  0
VERTEX
  8
0
 10
16.3965
 20
12.3241
 30
0.0
 40
0
 41
0
  0
VERTEX
  8
0
 10
16.1612
 20
12.4305
 30
0.0
 40
0
 41
0
  0
VERTEX
  8
0
 10
15.9321
 20
12.5478
 30
0.0
 40
0
 41
0
  0
VERTEX
  8
0
 10
15.7096
 20
12.6758
 30
0.0
 40
0
 41
0
  0
VERTEX
  8
0
 10
15.494
 20
12.8141
 30
0.0
 40
0
 41
0
  0
VERTEX
  8
0
 10
15.2858
 20
12.9622
 30
0.0
 40
0
 41
0
  0
VERTEX
  8
0
 10
15.0851
 20
13.12
 30
0.0
 40
0
 41
0
  0
VERTEX
  8
0
 10
14.8922
 20
13.2871
 30
0.0
 40
0
 41
0
  0
VERTEX
  8
0
 10
14.7078
 20
13.463
 30
0.0
 40
0
 41
0
  0
VERTEX
  8
0
 10
14.5318
 20
13.6475
 30
0.0
 40
0
 41
0
  0
VERTEX
  8
0
 10
14.3647
 20
13.8403
 30
0.0
 40
0
 41
0
  0
VERTEX
  8
0
 10
14.2069
 20
14.0411
 30
0.0
 40
0
 41
0
  0
VERTEX
  8
0
 10
14.0587
 20
14.2493
 30
0.0
 40
0
 41
0
  0
VERTEX
  8
0
 10
13.9206
 20
14.4649
 30
0.0
 40
0
 41
0
  0
VERTEX
  8
0
 10
13.7926
 20
14.6874
 30
0.0
 40
0
 41
0
  0
VERTEX
  8
0
 10
13.6752
 20
14.9164
 30
0.0
 40
0
 41
0
  0
VERTEX
  8
0
 10
13.5688
 20
15.1518
 30
0.0
 40
0
 41
0
  0
VERTEX
  8
0
 10
13.4736
 20
15.3929
 30
0.0
 40
0
 41
0
  0
VERTEX
  8
0
 10
13.39
 20
15.6397
 30
0.0
 40
0
 41
0
  0
VERTEX
  8
0
 10
13.3184
 20
15.8918
 30
0.0
 40
0
 41
0
  0
VERTEX
  8
0
 10
13.259
 20
16.1486
 30
0.0
 40
0
 41
0
  0
VERTEX
  8
0
 10
13.2123
 20
16.4103
 30
0.0
 40
0
 41
0
  0
VERTEX
  8
0
 10
13.1784
 20
16.676
 30
0.0
 40
0
 41
0
  0
VERTEX
  8
0
 10
13.1579
 20
16.9456
 30
0.0
 40
0
 41
0
  0
VERTEX
  8
0
 10
13.151
 20
17.1506
 30
0.0
 40
0
 41
0
  0
VERTEX
  8
0
 10
13.151
 20
17.2188
 30
0.0
 40
0
 41
0
  0
VERTEX
  8
0
 10
13.151
 20
17.2871
 30
0.0
 40
0
 41
0
  0
VERTEX
  8
0
 10
13.1579
 20
17.4919
 30
0.0
 40
0
 41
0
  0
VERTEX
  8
0
 10
13.1784
 20
17.7617
 30
0.0
 40
0
 41
0
  0
VERTEX
  8
0
 10
13.2123
 20
18.0274
 30
0.0
 40
0
 41
0
  0
VERTEX
  8
0
 10
13.259
 20
18.2889
 30
0.0
 40
0
 41
0
  0
VERTEX
  8
0
 10
13.3184
 20
18.5458
 30
0.0
 40
0
 41
0
  0
VERTEX
  8
0
 10
13.39
 20
18.7979
 30
0.0
 40
0
 41
0
  0
VERTEX
  8
0
 10
13.4736
 20
19.0446
 30
0.0
 40
0
 41
0
  0
VERTEX
  8
0
 10
13.5688
 20
19.2858
 30
0.0
 40
0
 41
0
  0
VERTEX
  8
0
 10
13.6752
 20
19.5211
 30
0.0
 40
0
 41
0
  0
VERTEX
  8
0
 10
13.7926
 20
19.7501
 30
0.0
 40
0
 41
0
  0
VERTEX
  8
0
 10
13.9206
 20
19.9726
 30
0.0
 40
0
 41
0
  0
VERTEX
  8
0
 10
14.0587
 20
20.1882
 30
0.0
 40
0
 41
0
  0
VERTEX
  8
0
 10
14.2069
 20
20.3965
 30
0.0
 40
0
 41
0
  0
VERTEX
  8
0
 10
14.3647
 20
20.5972
 30
0.0
 40
0
 41
0
  0
VERTEX
  8
0
 10
14.5318
 20
20.79
 30
0.0
 40
0
 41
0
  0
VERTEX
  8
0
 10
14.7078
 20
20.9746
 30
0.0
 40
0
 41
0
  0
VERTEX
  8
0
 10
14.8922
 20
21.1506
 30
0.0
 40
0
 41
0
  0
VERTEX
  8
0
 10
15.0851
 20
21.3175
 30
0.0
 40
0
 41
0
  0
VERTEX
  8
0
 10
15.2858
 20
21.4753
 30
0.0
 40
0
 41
0
  0
VERTEX
  8
0
 10
15.494
 20
21.6235
 30
0.0
 40
0
 41
0
  0
VERTEX
  8
0
 10
15.7096
 20
21.7617
 30
0.0
 40
0
 41
0
  0
VERTEX
  8
0
 10
15.9321
 20
21.8897
 30
0.0
 40
0
 41
0
  0
VERTEX
  8
0
 10
16.1612
 20
22.0071
 30
0.0
 40
0
 41
0
  0
VERTEX
  8
0
 10
16.3965
 20
22.1135
 30
0.0
 40
0
 41
0
  0
VERTEX
  8
0
 10
16.6376
 20
22.2088
 30
0.0
 40
0
 41
0
  0
VERTEX
  8
0
 10
16.8844
 20
22.2922
 30
0.0
 40
0
 41
0
  0
VERTEX
  8
0
 10
17.1365
 20
22.3639
 30
0.0
 40
0
 41
0
  0
VERTEX
  8
0
 10
17.3933
 20
22.4233
 30
0.0
 40
0
 41
0
  0
VERTEX
  8
0
 10
17.655
 20
22.47
 30
0.0
 40
0
 41
0
  0
VERTEX
  8
0
 10
17.9207
 20
22.5039
 30
0.0
 40
0
 41
0
  0
VERTEX
  8
0
 10
18.1903
 20
22.5243
 30
0.0
 40
0
 41
0
  0
VERTEX
  8
0
 10
18.3953
 20
22.5313
 30
0.0
 40
0
 41
0
  0
VERTEX
  8
0
 10
18.4636
 20
22.5313
 30
0.0
 40
0
 41
0
  0
SEQEND
 8
0
  0
POLYLINE
  8
0
 62
     0
 66
     1
 10
0
 20
0
 30
0.0
 70
     1
 40
0
 41
0
  0
VERTEX
  8
0
 10
13.849
 20
13.2604
 30
0.0
 40
0
 41
0
  0
VERTEX
  8
0
 10
13.866
 20
13.2604
 30
0.0
 40
0
 41
0
  0
VERTEX
  8
0
 10
13.9171
 20
13.2536
 30
0.0
 40
0
 41
0
  0
VERTEX
  8
0
 10
13.9807
 20
13.2338
 30
0.0
 40
0
 41
0
  0
VERTEX
  8
0
 10
14.0382
 20
13.2026
 30
0.0
 40
0
 41
0
  0
VERTEX
  8
0
 10
14.0883
 20
13.1612
 30
0.0
 40
0
 41
0
  0
VERTEX
  8
0
 10
14.1296
 20
13.1111
 30
0.0
 40
0
 41
0
  0
VERTEX
  8
0
 10
14.1608
 20
13.0536
 30
0.0
 40
0
 41
0
  0
VERTEX
  8
0
 10
14.1806
 20
12.9901
 30
0.0
 40
0
 41
0
  0
VERTEX
  8
0
 10
14.1875
 20
12.939
 30
0.0
 40
0
 41
0
  0
VERTEX
  8
0
 10
14.1875
 20
12.9219
 30
0.0
 40
0
 41
0
  0
VERTEX
  8
0
 10
14.1875
 20
12.9048
 30
0.0
 40
0
 41
0
  0
VERTEX
  8
0
 10
14.1806
 20
12.8537
 30
0.0
 40
0
 41
0
  0
VERTEX
  8
0
 10
14.1608
 20
12.7902
 30
0.0
 40
0
 41
0
  0
VERTEX
  8
0
 10
14.1296
 20
12.7327
 30
0.0
 40
0
 41
0
  0
VERTEX
  8
0
 10
14.0883
 20
12.6826
 30
0.0
 40
0
 41
0
  0
VERTEX
  8
0
 10
14.0382
 20
12.6412
 30
0.0
 40
0
 41
0
  0
VERTEX
  8
0
 10
13.9807
 20
12.61
 30
0.0
 40
0
 41
0
  0
VERTEX
  8
0
 10
13.9171
 20
12.5902
 30
0.0
 40
0
 41
0
  0
VERTEX
  8
0
 10
13.866
 20
12.5833
 30
0.0
 40
0
 41
0
  0
VERTEX
  8
0
 10
13.849
 20
12.5833
 30
0.0
 40
0
 41
0
  0
VERTEX
  8
0
 10
13.8319
 20
12.5833
 30
0.0
 40
0
 41
0
  0
VERTEX
  8
0
 10
13.7808
 20
12.5902
 30
0.0
 40
0
 41
0
  0
VERTEX
  8
0
 10
13.7172
 20
12.61
 30
0.0
 40
0
 41
0
  0
VERTEX
  8
0
 10
13.6597
 20
12.6412
 30
0.0
 40
0
 41
0
  0
VERTEX
  8
0
 10
13.6096
 20
12.6826
 30
0.0
 40
0
 41
0
  0
VERTEX
  8
0
 10
13.5683
 20
12.7327
 30
0.0
 40
0
 41
0
  0
VERTEX
  8
0
 10
13.537
 20
12.7902
 30
0.0
 40
0
 41
0
  0
VERTEX
  8
0
 10
13.5173
 20
12.8537
 30
0.0
 40
0
 41
0
  0
VERTEX
  8
0
 10
13.5104
 20
12.9048
 30
0.0
 40
0
 41
0
  0
VERTEX
  8
0
 10
13.5104
 20
12.9219
 30
0.0
 40
0
 41
0
  0
VERTEX
  8
0
 10
13.5104
 20
12.939
 30
0.0
 40
0
 41
0
  0
VERTEX
  8
0
 10
13.5173
 20
12.9901
 30
0.0
 40
0
 41
0
  0
VERTEX
  8
0
 10
13.537
 20
13.0536
 30
0.0
 40
0
 41
0
  0
VERTEX
  8
0
 10
13.5683
 20
13.1111
 30
0.0
 40
0
 41
0
  0
VERTEX
  8
0
 10
13.6096
 20
13.1612
 30
0.0
 40
0
 41
0
  0
VERTEX
  8
0
 10
13.6597
 20
13.2026
 30
0.0
 40
0
 41
0
  0
VERTEX
  8
0
 10
13.7172
 20
13.2338
 30
0.0
 40
0
 41
0
  0
VERTEX
  8
0
 10
13.7808
 20
13.2536
 30
0.0
 40
0
 41
0
  0
VERTEX
  8
0
 10
13.8319
 20
13.2604
 30
0.0
 40
0
 41
0
  0
VERTEX
  8
0
 10
13.849
 20
13.2604
 30
0.0
 40
0
 41
0
  0
SEQEND
 8
0
  0
POLYLINE
  8
0
 62
     0
 66
     1
 10
0
 20
0
 30
0.0
 70
     1
 40
0
 41
0
  0
VERTEX
  8
0
 10
3.35417
 20
16.3854
 30
0.0
 40
0
 41
0
  0
VERTEX
  8
0
 10
3.38824
 20
16.3854
 30
0.0
 40
0
 41
0
  0
VERTEX
  8
0
 10
3.4905
 20
16.3717
 30
0.0
 40
0
 41
0
  0
VERTEX
  8
0
 10
3.61757
 20
16.3322
 30
0.0
 40
0
 41
0
  0
VERTEX
  8
0
 10
3.73258
 20
16.2697
 30
0.0
 40
0
 41
0
  0
VERTEX
  8
0
 10
3.83285
 20
16.1869
 30
0.0
 40
0
 41
0
  0
VERTEX
  8
0
 10
3.91553
 20
16.0868
 30
0.0
 40
0
 41
0
  0
VERTEX
  8
0
 10
3.97797
 20
15.9718
 30
0.0
 40
0
 41
0
  0
VERTEX
  8
0
 10
4.01747
 20
15.8447
 30
0.0
 40
0
 41
0
  0
VERTEX
  8
0
 10
4.03125
 20
15.7425
 30
0.0
 40
0
 41
0
  0
VERTEX
  8
0
 10
4.03125
 20
15.7083
 30
0.0
 40
0
 41
0
  0
VERTEX
  8
0
 10
4.03125
 20
15.6743
 30
0.0
 40
0
 41
0
  0
VERTEX
  8
0
 10
4.01747
 20
15.5719
 30
0.0
 40
0
 41
0
  0
VERTEX
  8
0
 10
3.97797
 20
15.445
 30
0.0
 40
0
 41
0
  0
VERTEX
  8
0
 10
3.91553
 20
15.3299
 30
0.0
 40
0
 41
0
  0
VERTEX
  8
0
 10
3.83285
 20
15.2297
 30
0.0
 40
0
 41
0
  0
VERTEX
  8
0
 10
3.73258
 20
15.1469
 30
0.0
 40
0
 41
0
  0
VERTEX
  8
0
 10
3.61757
 20
15.0846
 30
0.0
 40
0
 41
0
  0
VERTEX
  8
0
 10
3.4905
 20
15.045
 30
0.0
 40
0
 41
0
  0
VERTEX
  8
0
 10
3.38824
 20
15.0313
 30
0.0
 40
0
 41
0
  0
VERTEX
  8
0
 10
3.35417
 20
15.0313
 30
0.0
 40
0
 41
0
  0
VERTEX
  8
0
 10
3.32004
 20
15.0313
 30
0.0
 40
0
 41
0
  0
VERTEX
  8
0
 10
3.21778
 20
15.045
 30
0.0
 40
0
 41
0
  0
VERTEX
  8
0
 10
3.09071
 20
15.0846
 30
0.0
 40
0
 41
0
  0
VERTEX
  8
0
 10
2.97569
 20
15.1469
 30
0.0
 40
0
 41
0
  0
VERTEX
  8
0
 10
2.87549
 20
15.2297
 30
0.0
 40
0
 41
0
  0
VERTEX
  8
0
 10
2.79275
 20
15.3299
 30
0.0
 40
0
 41
0
  0
VERTEX
  8
0
 10
2.73031
 20
15.445
 30
0.0
 40
0
 41
0
  0
VERTEX
  8
0
 10
2.69081
 20
15.5719
 30
0.0
 40
0
 41
0
  0
VERTEX
  8
0
 10
2.67708
 20
15.6743
 30
0.0
 40
0
 41
0
  0
VERTEX
  8
0
 10
2.67708
 20
15.7083
 30
0.0
 40
0
 41
0
  0
VERTEX
  8
0
 10
2.67708
 20
15.7425
 30
0.0
 40
0
 41
0
  0
VERTEX
  8
0
 10
2.69081
 20
15.8447
 30
0.0
 40
0
 41
0
  0
VERTEX
  8
0
 10
2.73031
 20
15.9718
 30
0.0
 40
0
 41
0
  0
VERTEX
  8
0
 10
2.79275
 20
16.0868
 30
0.0
 40
0
 41
0
  0
VERTEX
  8
0
 10
2.87549
 20
16.1869
 30
0.0
 40
0
 41
0
  0
VERTEX
  8
0
 10
2.97569
 20
16.2697
 30
0.0
 40
0
 41
0
  0
VERTEX
  8
0
 10
3.09071
 20
16.3322
 30
0.0
 40
0
 41
0
  0
VERTEX
  8
0
 10
3.21778
 20
16.3717
 30
0.0
 40
0
 41
0
  0
VERTEX
  8
0
 10
3.32004
 20
16.3854
 30
0.0
 40
0
 41
0
  0
VERTEX
  8
0
 10
3.35417
 20
16.3854
 30
0.0
 40
0
 41
0
  0
SEQEND
 8
0
  0
POLYLINE
  8
0
 62
     0
 66
     1
 10
0
 20
0
 30
0.0
 70
     1
 40
0
 41
0
  0
VERTEX
  8
0
 10
34.6824
 20
16.0469
 30
0.0
 40
0
 41
0
  0
VERTEX
  8
0
 10
34.6993
 20
16.0469
 30
0.0
 40
0
 41
0
  0
VERTEX
  8
0
 10
34.7504
 20
16.04
 30
0.0
 40
0
 41
0
  0
VERTEX
  8
0
 10
34.814
 20
16.0203
 30
0.0
 40
0
 41
0
  0
VERTEX
  8
0
 10
34.8715
 20
15.989
 30
0.0
 40
0
 41
0
  0
VERTEX
  8
0
 10
34.9217
 20
15.9476
 30
0.0
 40
0
 41
0
  0
VERTEX
  8
0
 10
34.9629
 20
15.8976
 30
0.0
 40
0
 41
0
  0
VERTEX
  8
0
 10
34.9942
 20
15.84
 30
0.0
 40
0
 41
0
  0
VERTEX
  8
0
 10
35.0139
 20
15.7765
 30
0.0
 40
0
 41
0
  0
VERTEX
  8
0
 10
35.0208
 20
15.7254
 30
0.0
 40
0
 41
0
  0
VERTEX
  8
0
 10
35.0208
 20
15.7083
 30
0.0
 40
0
 41
0
  0
VERTEX
  8
0
 10
35.0208
 20
15.6913
 30
0.0
 40
0
 41
0
  0
VERTEX
  8
0
 10
35.0139
 20
15.6401
 30
0.0
 40
0
 41
0
  0
VERTEX
  8
0
 10
34.9942
 20
15.5767
 30
0.0
 40
0
 41
0
  0
VERTEX
  8
0
 10
34.9629
 20
15.5192
 30
0.0
 40
0
 41
0
  0
VERTEX
  8
0
 10
34.9217
 20
15.469
 30
0.0
 40
0
 41
0
  0
VERTEX
  8
0
 10
34.8715
 20
15.4276
 30
0.0
 40
0
 41
0
  0
VERTEX
  8
0
 10
34.814
 20
15.3964
 30
0.0
 40
0
 41
0
  0
VERTEX
  8
0
 10
34.7504
 20
15.3767
 30
0.0
 40
0
 41
0
  0
VERTEX
  8
0
 10
34.6993
 20
15.3699
 30
0.0
 40
0
 41
0
  0
VERTEX
  8
0
 10
34.6824
 20
15.3699
 30
0.0
 40
0
 41
0
  0
VERTEX
  8
0
 10
34.6651
 20
15.3699
 30
0.0
 40
0
 41
0
  0
VERTEX
  8
0
 10
34.614
 20
15.3767
 30
0.0
 40
0
 41
0
  0
VERTEX
  8
0
 10
34.5506
 20
15.3964
 30
0.0
 40
0
 41
0
  0
VERTEX
  8
0
 10
34.4931
 20
15.4276
 30
0.0
 40
0
 41
0
  0
VERTEX
  8
0
 10
34.4429
 20
15.469
 30
0.0
 40
0
 41
0
  0
VERTEX
  8
0
 10
34.4015
 20
15.5192
 30
0.0
 40
0
 41
0
  0
VERTEX
  8
0
 10
34.3703
 20
15.5767
 30
0.0
 40
0
 41
0
  0
VERTEX
  8
0
 10
34.3506
 20
15.6401
 30
0.0
 40
0
 41
0
  0
VERTEX
  8
0
 10
34.3438
 20
15.6913
 30
0.0
 40
0
 41
0
  0
VERTEX
  8
0
 10
34.3438
 20
15.7083
 30
0.0
 40
0
 41
0
  0
VERTEX
  8
0
 10
34.3438
 20
15.7254
 30
0.0
 40
0
 41
0
  0
VERTEX
  8
0
 10
34.3506
 20
15.7765
 30
0.0
 40
0
 41
0
  0
VERTEX
  8
0
 10
34.3703
 20
15.84
 30
0.0
 40
0
 41
0
  0
VERTEX
  8
0
 10
34.4015
 20
15.8976
 30
0.0
 40
0
 41
0
  0
VERTEX
  8
0
 10
34.4429
 20
15.9476
 30
0.0
 40
0
 41
0
  0
VERTEX
  8
0
 10
34.4931
 20
15.989
 30
0.0
 40
0
 41
0
  0
VERTEX
  8
0
 10
34.5506
 20
16.0203
 30
0.0
 40
0
 41
0
  0
VERTEX
  8
0
 10
34.614
 20
16.04
 30
0.0
 40
0
 41
0
  0
VERTEX
  8
0
 10
34.6651
 20
16.0469
 30
0.0
 40
0
 41
0
  0
VERTEX
  8
0
 10
34.6824
 20
16.0469
 30
0.0
 40
0
 41
0
  0
SEQEND
 8
0
  0
POLYLINE
  8
0
 62
     0
 66
     1
 10
0
 20
0
 30
0.0
 70
     1
 40
0
 41
0
  0
VERTEX
  8
0
 10
24.5521
 20
16.724
 30
0.0
 40
0
 41
0
  0
VERTEX
  8
0
 10
24.5692
 20
16.724
 30
0.0
 40
0
 41
0
  0
VERTEX
  8
0
 10
24.6203
 20
16.7171
 30
0.0
 40
0
 41
0
  0
VERTEX
  8
0
 10
24.6837
 20
16.6974
 30
0.0
 40
0
 41
0
  0
VERTEX
  8
0
 10
24.7413
 20
16.6661
 30
0.0
 40
0
 41
0
  0
VERTEX
  8
0
 10
24.7914
 20
16.6247
 30
0.0
 40
0
 41
0
  0
VERTEX
  8
0
 10
24.8328
 20
16.5747
 30
0.0
 40
0
 41
0
  0
VERTEX
  8
0
 10
24.864
 20
16.5171
 30
0.0
 40
0
 41
0
  0
VERTEX
  8
0
 10
24.8838
 20
16.4536
 30
0.0
 40
0
 41
0
  0
VERTEX
  8
0
 10
24.8907
 20
16.4025
 30
0.0
 40
0
 41
0
  0
VERTEX
  8
0
 10
24.8907
 20
16.3854
 30
0.0
 40
0
 41
0
  0
VERTEX
  8
0
 10
24.8907
 20
16.3683
 30
0.0
 40
0
 41
0
  0
VERTEX
  8
0
 10
24.8838
 20
16.3172
 30
0.0
 40
0
 41
0
  0
VERTEX
  8
0
 10
24.864
 20
16.2538
 30
0.0
 40
0
 41
0
  0
VERTEX
  8
0
 10
24.8328
 20
16.1963
 30
0.0
 40
0
 41
0
  0
VERTEX
  8
0
 10
24.7914
 20
16.1461
 30
0.0
 40
0
 41
0
  0
VERTEX
  8
0
 10
24.7413
 20
16.1047
 30
0.0
 40
0
 41
0
  0
VERTEX
  8
0
 10
24.6837
 20
16.0735
 30
0.0
 40
0
 41
0
  0
VERTEX
  8
0
 10
24.6203
 20
16.0538
 30
0.0
 40
0
 41
0
  0
VERTEX
  8
0
 10
24.5692
 20
16.0469
 30
0.0
 40
0
 41
0
  0
VERTEX
  8
0
 10
24.5521
 20
16.0469
 30
0.0
 40
0
 41
0
  0
VERTEX
  8
0
 10
24.535
 20
16.0469
 30
0.0
 40
0
 41
0
  0
VERTEX
  8
0
 10
24.4839
 20
16.0538
 30
0.0
 40
0
 41
0
  0
VERTEX
  8
0
 10
24.4204
 20
16.0735
 30
0.0
 40
0
 41
0
  0
VERTEX
  8
0
 10
24.3629
 20
16.1047
 30
0.0
 40
0
 41
0
  0
VERTEX
  8
0
 10
24.3128
 20
16.1461
 30
0.0
 40
0
 41
0
  0
VERTEX
  8
0
 10
24.2714
 20
16.1963
 30
0.0
 40
0
 41
0
  0
VERTEX
  8
0
 10
24.2401
 20
16.2538
 30
0.0
 40
0
 41
0
  0
VERTEX
  8
0
 10
24.2204
 20
16.3172
 30
0.0
 40
0
 41
0
  0
VERTEX
  8
0
 10
24.2136
 20
16.3683
 30
0.0
 40
0
 41
0
  0
VERTEX
  8
0
 10
24.2136
 20
16.3854
 30
0.0
 40
0
 41
0
  0
VERTEX
  8
0
 10
24.2136
 20
16.4025
 30
0.0
 40
0
 41
0
  0
VERTEX
  8
0
 10
24.2204
 20
16.4536
 30
0.0
 40
0
 41
0
  0
VERTEX
  8
0
 10
24.2401
 20
16.5171
 30
0.0
 40
0
 41
0
  0
VERTEX
  8
0
 10
24.2714
 20
16.5747
 30
0.0
 40
0
 41
0
  0
VERTEX
  8
0
 10
24.3128
 20
16.6247
 30
0.0
 40
0
 41
0
  0
VERTEX
  8
0
 10
24.3629
 20
16.6661
 30
0.0
 40
0
 41
0
  0
VERTEX
  8
0
 10
24.4204
 20
16.6974
 30
0.0
 40
0
 41
0
  0
VERTEX
  8
0
 10
24.4839
 20
16.7171
 30
0.0
 40
0
 41
0
  0
VERTEX
  8
0
 10
24.535
 20
16.724
 30
0.0
 40
0
 41
0
  0
VERTEX
  8
0
 10
24.5521
 20
16.724
 30
0.0
 40
0
 41
0
  0
SEQEND
 8
0
  0
POLYLINE
  8
0
 62
     0
 66
     1
 10
0
 20
0
 30
0.0
 70
     1
 40
0
 41
0
  0
VERTEX
  8
0
 10
7.97917
 20
16.724
 30
0.0
 40
0
 41
0
  0
VERTEX
  8
0
 10
7.99621
 20
16.724
 30
0.0
 40
0
 41
0
  0
VERTEX
  8
0
 10
8.04731
 20
16.7171
 30
0.0
 40
0
 41
0
  0
VERTEX
  8
0
 10
8.11083
 20
16.6974
 30
0.0
 40
0
 41
0
  0
VERTEX
  8
0
 10
8.16835
 20
16.6661
 30
0.0
 40
0
 41
0
  0
VERTEX
  8
0
 10
8.21847
 20
16.6247
 30
0.0
 40
0
 41
0
  0
VERTEX
  8
0
 10
8.25982
 20
16.5747
 30
0.0
 40
0
 41
0
  0
VERTEX
  8
0
 10
8.29107
 20
16.5171
 30
0.0
 40
0
 41
0
  0
VERTEX
  8
0
 10
8.31082
 20
16.4536
 30
0.0
 40
0
 41
0
  0
VERTEX
  8
0
 10
8.31771
 20
16.4025
 30
0.0
 40
0
 41
0
  0
VERTEX
  8
0
 10
8.31771
 20
16.3854
 30
0.0
 40
0
 41
0
  0
VERTEX
  8
0
 10
8.31771
 20
16.3683
 30
0.0
 40
0
 41
0
  0
VERTEX
  8
0
 10
8.31082
 20
16.3172
 30
0.0
 40
0
 41
0
  0
VERTEX
  8
0
 10
8.29107
 20
16.2538
 30
0.0
 40
0
 41
0
  0
VERTEX
  8
0
 10
8.25982
 20
16.1963
 30
0.0
 40
0
 41
0
  0
VERTEX
  8
0
 10
8.21847
 20
16.1461
 30
0.0
 40
0
 41
0
  0
VERTEX
  8
0
 10
8.16835
 20
16.1047
 30
0.0
 40
0
 41
0
  0
VERTEX
  8
0
 10
8.11083
 20
16.0735
 30
0.0
 40
0
 41
0
  0
VERTEX
  8
0
 10
8.04731
 20
16.0538
 30
0.0
 40
0
 41
0
  0
VERTEX
  8
0
 10
7.99621
 20
16.0469
 30
0.0
 40
0
 41
0
  0
VERTEX
  8
0
 10
7.97917
 20
16.0469
 30
0.0
 40
0
 41
0
  0
VERTEX
  8
0
 10
7.96208
 20
16.0469
 30
0.0
 40
0
 41
0
  0
VERTEX
  8
0
 10
7.91097
 20
16.0538
 30
0.0
 40
0
 41
0
  0
VERTEX
  8
0
 10
7.84744
 20
16.0735
 30
0.0
 40
0
 41
0
  0
VERTEX
  8
0
 10
7.78993
 20
16.1047
 30
0.0
 40
0
 41
0
  0
VERTEX
  8
0
 10
7.73981
 20
16.1461
 30
0.0
 40
0
 41
0
  0
VERTEX
  8
0
 10
7.69846
 20
16.1963
 30
0.0
 40
0
 41
0
  0
VERTEX
  8
0
 10
7.66721
 20
16.2538
 30
0.0
 40
0
 41
0
  0
VERTEX
  8
0
 10
7.64746
 20
16.3172
 30
0.0
 40
0
 41
0
  0
VERTEX
  8
0
 10
7.64063
 20
16.3683
 30
0.0
 40
0
 41
0
  0
VERTEX
  8
0
 10
7.64063
 20
16.3854
 30
0.0
 40
0
 41
0
  0
VERTEX
  8
0
 10
7.64063
 20
16.4025
 30
0.0
 40
0
 41
0
  0
VERTEX
  8
0
 10
7.64746
 20
16.4536
 30
0.0
 40
0
 41
0
  0
VERTEX
  8
0
 10
7.66721
 20
16.5171
 30
0.0
 40
0
 41
0
  0
VERTEX
  8
0
 10
7.69846
 20
16.5747
 30
0.0
 40
0
 41
0
  0
VERTEX
  8
0
 10
7.73981
 20
16.6247
 30
0.0
 40
0
 41
0
  0
VERTEX
  8
0
 10
7.78993
 20
16.6661
 30
0.0
 40
0
 41
0
  0
VERTEX
  8
0
 10
7.84744
 20
16.6974
 30
0.0
 40
0
 41
0
  0
VERTEX
  8
0
 10
7.91097
 20
16.7171
 30
0.0
 40
0
 41
0
  0
VERTEX
  8
0
 10
7.96208
 20
16.724
 30
0.0
 40
0
 41
0
  0
VERTEX
  8
0
 10
7.97917
 20
16.724
 30
0.0
 40
0
 41
0
  0
SEQEND
 8
0
  0
POLYLINE
  8
0
 62
     0
 66
     1
 10
0
 20
0
 30
0.0
 70
     1
 40
0
 41
0
  0
VERTEX
  8
0
 10
9.45313
 20
21.875
 30
0.0
 40
0
 41
0
  0
VERTEX
  8
0
 10
9.51551
 20
21.875
 30
0.0
 40
0
 41
0
  0
VERTEX
  8
0
 10
9.70269
 20
21.8624
 30
0.0
 40
0
 41
0
  0
VERTEX
  8
0
 10
9.94515
 20
21.8254
 30
0.0
 40
0
 41
0
  0
VERTEX
  8
0
 10
10.1791
 20
21.7651
 30
0.0
 40
0
 41
0
  0
VERTEX
  8
0
 10
10.4035
 20
21.6829
 30
0.0
 40
0
 41
0
  0
VERTEX
  8
0
 10
10.617
 20
21.58
 30
0.0
 40
0
 41
0
  0
VERTEX
  8
0
 10
10.8184
 20
21.4576
 30
0.0
 40
0
 41
0
  0
VERTEX
  8
0
 10
11.0065
 20
21.3169
 30
0.0
 40
0
 41
0
  0
VERTEX
  8
0
 10
11.18
 20
21.1592
 30
0.0
 40
0
 41
0
  0
VERTEX
  8
0
 10
11.3377
 20
20.9857
 30
0.0
 40
0
 41
0
  0
VERTEX
  8
0
 10
11.4784
 20
20.7976
 30
0.0
 40
0
 41
0
  0
VERTEX
  8
0
 10
11.6008
 20
20.5963
 30
0.0
 40
0
 41
0
  0
VERTEX
  8
0
 10
11.7037
 20
20.3828
 30
0.0
 40
0
 41
0
  0
VERTEX
  8
0
 10
11.7859
 20
20.1583
 30
0.0
 40
0
 41
0
  0
VERTEX
  8
0
 10
11.8461
 20
19.9243
 30
0.0
 40
0
 41
0
  0
VERTEX
  8
0
 10
11.8832
 20
19.6819
 30
0.0
 40
0
 41
0
  0
VERTEX
  8
0
 10
11.8958
 20
19.4947
 30
0.0
 40
0
 41
0
  0
VERTEX
  8
0
 10
11.8958
 20
19.4324
 30
0.0
 40
0
 41
0
  0
VERTEX
  8
0
 10
11.8958
 20
19.3699
 30
0.0
 40
0
 41
0
  0
VERTEX
  8
0
 10
11.8832
 20
19.1828
 30
0.0
 40
0
 41
0
  0
VERTEX
  8
0
 10
11.8461
 20
18.9403
 30
0.0
 40
0
 41
0
  0
VERTEX
  8
0
 10
11.7859
 20
18.7062
 30
0.0
 40
0
 41
0
  0
VERTEX
  8
0
 10
11.7037
 20
18.4819
 30
0.0
 40
0
 41
0
  0
VERTEX
  8
0
 10
11.6008
 20
18.2683
 30
0.0
 40
0
 41
0
  0
VERTEX
  8
0
 10
11.4784
 20
18.0669
 30
0.0
 40
0
 41
0
  0
VERTEX
  8
0
 10
11.3377
 20
17.8789
 30
0.0
 40
0
 41
0
  0
VERTEX
  8
0
 10
11.18
 20
17.7054
 30
0.0
 40
0
 41
0
  0
VERTEX
  8
0
 10
11.0065
 20
17.5476
 30
0.0
 40
0
 41
0
  0
VERTEX
  8
0
 10
10.8184
 20
17.4069
 30
0.0
 40
0
 41
0
  0
VERTEX
  8
0
 10
10.617
 20
17.2846
 30
0.0
 40
0
 41
0
  0
VERTEX
  8
0
 10
10.4035
 20
17.1817
 30
0.0
 40
0
 41
0
  0
VERTEX
  8
0
 10
10.1791
 20
17.0994
 30
0.0
 40
0
 41
0
  0
VERTEX
  8
0
 10
9.94515
 20
17.0393
 30
0.0
 40
0
 41
0
  0
VERTEX
  8
0
 10
9.70269
 20
17.0022
 30
0.0
 40
0
 41
0
  0
VERTEX
  8
0
 10
9.51551
 20
16.9896
 30
0.0
 40
0
 41
0
  0
VERTEX
  8
0
 10
9.45313
 20
16.9896
 30
0.0
 40
0
 41
0
  0
VERTEX
  8
0
 10
9.39068
 20
16.9896
 30
0.0
 40
0
 41
0
  0
VERTEX
  8
0
 10
9.2035
 20
17.0022
 30
0.0
 40
0
 41
0
  0
VERTEX
  8
0
 10
8.96104
 20
17.0393
 30
0.0
 40
0
 41
0
  0
VERTEX
  8
0
 10
8.72706
 20
17.0994
 30
0.0
 40
0
 41
0
  0
VERTEX
  8
0
 10
8.50265
 20
17.1817
 30
0.0
 40
0
 41
0
  0
VERTEX
  8
0
 10
8.28917
 20
17.2846
 30
0.0
 40
0
 41
0
  0
VERTEX
  8
0
 10
8.08778
 20
17.4069
 30
0.0
 40
0
 41
0
  0
VERTEX
  8
0
 10
7.89968
 20
17.5476
 30
0.0
 40
0
 41
0
  0
VERTEX
  8
0
 10
7.72618
 20
17.7054
 30
0.0
 40
0
 41
0
  0
VERTEX
  8
0
 10
7.56847
 20
17.8789
 30
0.0
 40
0
 41
0
  0
VERTEX
  8
0
 10
7.42779
 20
18.0669
 30
0.0
 40
0
 41
0
  0
VERTEX
  8
0
 10
7.30539
 20
18.2683
 30
0.0
 40
0
 41
0
  0
VERTEX
  8
0
 10
7.20247
 20
18.4819
 30
0.0
 40
0
 41
0
  0
VERTEX
  8
0
 10
7.12028
 20
18.7062
 30
0.0
 40
0
 41
0
  0
VERTEX
  8
0
 10
7.06006
 20
18.9403
 30
0.0
 40
0
 41
0
  0
VERTEX
  8
0
 10
7.023
 20
19.1828
 30
0.0
 40
0
 41
0
  0
VERTEX
  8
0
 10
7.01042
 20
19.3699
 30
0.0
 40
0
 41
0
  0
VERTEX
  8
0
 10
7.01042
 20
19.4324
 30
0.0
 40
0
 41
0
  0
VERTEX
  8
0
 10
7.01042
 20
19.4947
 30
0.0
 40
0
 41
0
  0
VERTEX
  8
0
 10
7.023
 20
19.6819
 30
0.0
 40
0
 41
0
  0
VERTEX
  8
0
 10
7.06006
 20
19.9243
 30
0.0
 40
0
 41
0
  0
VERTEX
  8
0
 10
7.12028
 20
20.1583
 30
0.0
 40
0
 41
0
  0
VERTEX
  8
0
 10
7.20247
 20
20.3828
 30
0.0
 40
0
 41
0
  0
VERTEX
  8
0
 10
7.30539
 20
20.5963
 30
0.0
 40
0
 41
0
  0
VERTEX
  8
0
 10
7.42779
 20
20.7976
 30
0.0
 40
0
 41
0
  0
VERTEX
  8
0
 10
7.56847
 20
20.9857
 30
0.0
 40
0
 41
0
  0
VERTEX
  8
0
 10
7.72618
 20
21.1592
 30
0.0
 40
0
 41
0
  0
VERTEX
  8
0
 10
7.89968
 20
21.3169
 30
0.0
 40
0
 41
0
  0
VERTEX
  8
0
 10
8.08778
 20
21.4576
 30
0.0
 40
0
 41
0
  0
VERTEX
  8
0
 10
8.28917
 20
21.58
 30
0.0
 40
0
 41
0
  0
VERTEX
  8
0
 10
8.50265
 20
21.6829
 30
0.0
 40
0
 41
0
  0
VERTEX
  8
0
 10
8.72706
 20
21.7651
 30
0.0
 40
0
 41
0
  0
VERTEX
  8
0
 10
8.96104
 20
21.8254
 30
0.0
 40
0
 41
0
  0
VERTEX
  8
0
 10
9.2035
 20
21.8624
 30
0.0
 40
0
 41
0
  0
VERTEX
  8
0
 10
9.39068
 20
21.875
 30
0.0
 40
0
 41
0
  0
VERTEX
  8
0
 10
9.45313
 20
21.875
 30
0.0
 40
0
 41
0
  0
SEQEND
 8
0
  0
POLYLINE
  8
0
 62
     0
 66
     1
 10
0
 20
0
 30
0.0
 70
     1
 40
0
 41
0
  0
VERTEX
  8
0
 10
40.3438
 20
22.5313
 30
0.0
 40
0
 41
0
  0
VERTEX
  8
0
 10
40.4144
 20
22.5313
 30
0.0
 40
0
 41
0
  0
VERTEX
  8
0
 10
40.6268
 20
22.5169
 30
0.0
 40
0
 41
0
  0
VERTEX
  8
0
 10
40.9018
 20
22.475
 30
0.0
 40
0
 41
0
  0
VERTEX
  8
0
 10
41.1674
 20
22.4067
 30
0.0
 40
0
 41
0
  0
VERTEX
  8
0
 10
41.4218
 20
22.3133
 30
0.0
 40
0
 41
0
  0
VERTEX
  8
0
 10
41.664
 20
22.1967
 30
0.0
 40
0
 41
0
  0
VERTEX
  8
0
 10
41.8925
 20
22.0578
 30
0.0
 40
0
 41
0
  0
VERTEX
  8
0
 10
42.1058
 20
21.8982
 30
0.0
 40
0
 41
0
  0
VERTEX
  8
0
 10
42.3026
 20
21.7193
 30
0.0
 40
0
 41
0
  0
VERTEX
  8
0
 10
42.4815
 20
21.5225
 30
0.0
 40
0
 41
0
  0
VERTEX
  8
0
 10
42.6411
 20
21.3092
 30
0.0
 40
0
 41
0
  0
VERTEX
  8
0
 10
42.78
 20
21.0807
 30
0.0
 40
0
 41
0
  0
VERTEX
  8
0
 10
42.8967
 20
20.8386
 30
0.0
 40
0
 41
0
  0
VERTEX
  8
0
 10
42.9899
 20
20.584
 30
0.0
 40
0
 41
0
  0
VERTEX
  8
0
 10
43.0582
 20
20.3186
 30
0.0
 40
0
 41
0
  0
VERTEX
  8
0
 10
43.1003
 20
20.0436
 30
0.0
 40
0
 41
0
  0
VERTEX
  8
0
 10
43.1146
 20
19.8312
 30
0.0
 40
0
 41
0
  0
VERTEX
  8
0
 10
43.1146
 20
19.7604
 30
0.0
 40
0
 41
0
  0
VERTEX
  8
0
 10
43.1146
 20
19.6897
 30
0.0
 40
0
 41
0
  0
VERTEX
  8
0
 10
43.1003
 20
19.4774
 30
0.0
 40
0
 41
0
  0
VERTEX
  8
0
 10
43.0582
 20
19.2024
 30
0.0
 40
0
 41
0
  0
VERTEX
  8
0
 10
42.9899
 20
18.9368
 30
0.0
 40
0
 41
0
  0
VERTEX
  8
0
 10
42.8967
 20
18.6824
 30
0.0
 40
0
 41
0
  0
VERTEX
  8
0
 10
42.78
 20
18.4401
 30
0.0
 40
0
 41
0
  0
VERTEX
  8
0
 10
42.6411
 20
18.2117
 30
0.0
 40
0
 41
0
  0
VERTEX
  8
0
 10
42.4815
 20
17.9983
 30
0.0
 40
0
 41
0
  0
VERTEX
  8
0
 10
42.3026
 20
17.8015
 30
0.0
 40
0
 41
0
  0
VERTEX
  8
0
 10
42.1058
 20
17.6226
 30
0.0
 40
0
 41
0
  0
VERTEX
  8
0
 10
41.8925
 20
17.4631
 30
0.0
 40
0
 41
0
  0
VERTEX
  8
0
 10
41.664
 20
17.3242
 30
0.0
 40
0
 41
0
  0
VERTEX
  8
0
 10
41.4218
 20
17.2075
 30
0.0
 40
0
 41
0
  0
VERTEX
  8
0
 10
41.1674
 20
17.1143
 30
0.0
 40
0
 41
0
  0
VERTEX
  8
0
 10
40.9018
 20
17.046
 30
0.0
 40
0
 41
0
  0
VERTEX
  8
0
 10
40.6268
 20
17.0039
 30
0.0
 40
0
 41
0
  0
VERTEX
  8
0
 10
40.4144
 20
16.9896
 30
0.0
 40
0
 41
0
  0
VERTEX
  8
0
 10
40.3438
 20
16.9896
 30
0.0
 40
0
 41
0
  0
VERTEX
  8
0
 10
40.2729
 20
16.9896
 30
0.0
 40
0
 41
0
  0
VERTEX
  8
0
 10
40.0606
 20
17.0039
 30
0.0
 40
0
 41
0
  0
VERTEX
  8
0
 10
39.7856
 20
17.046
 30
0.0
 40
0
 41
0
  0
VERTEX
  8
0
 10
39.5201
 20
17.1143
 30
0.0
 40
0
 41
0
  0
VERTEX
  8
0
 10
39.2657
 20
17.2075
 30
0.0
 40
0
 41
0
  0
VERTEX
  8
0
 10
39.0235
 20
17.3242
 30
0.0
 40
0
 41
0
  0
VERTEX
  8
0
 10
38.795
 20
17.4631
 30
0.0
 40
0
 41
0
  0
VERTEX
  8
0
 10
38.5817
 20
17.6226
 30
0.0
 40
0
 41
0
  0
VERTEX
  8
0
 10
38.3849
 20
17.8015
 30
0.0
 40
0
 41
0
  0
VERTEX
  8
0
 10
38.206
 20
17.9983
 30
0.0
 40
0
 41
0
  0
VERTEX
  8
0
 10
38.0464
 20
18.2117
 30
0.0
 40
0
 41
0
  0
VERTEX
  8
0
 10
37.9075
 20
18.4401
 30
0.0
 40
0
 41
0
  0
VERTEX
  8
0
 10
37.7908
 20
18.6824
 30
0.0
 40
0
 41
0
  0
VERTEX
  8
0
 10
37.6975
 20
18.9368
 30
0.0
 40
0
 41
0
  0
VERTEX
  8
0
 10
37.6292
 20
19.2024
 30
0.0
 40
0
 41
0
  0
VERTEX
  8
0
 10
37.5872
 20
19.4774
 30
0.0
 40
0
 41
0
  0
VERTEX
  8
0
 10
37.5729
 20
19.6897
 30
0.0
 40
0
 41
0
  0
VERTEX
  8
0
 10
37.5729
 20
19.7604
 30
0.0
 40
0
 41
0
  0
VERTEX
  8
0
 10
37.5729
 20
19.8312
 30
0.0
 40
0
 41
0
  0
VERTEX
  8
0
 10
37.5872
 20
20.0436
 30
0.0
 40
0
 41
0
  0
VERTEX
  8
0
 10
37.6292
 20
20.3186
 30
0.0
 40
0
 41
0
  0
VERTEX
  8
0
 10
37.6975
 20
20.584
 30
0.0
 40
0
 41
0
  0
VERTEX
  8
0
 10
37.7908
 20
20.8386
 30
0.0
 40
0
 41
0
  0
VERTEX
  8
0
 10
37.9075
 20
21.0807
 30
0.0
 40
0
 41
0
  0
VERTEX
  8
0
 10
38.0464
 20
21.3092
 30
0.0
 40
0
 41
0
  0
VERTEX
  8
0
 10
38.206
 20
21.5225
 30
0.0
 40
0
 41
0
  0
VERTEX
  8
0
 10
38.3849
 20
21.7193
 30
0.0
 40
0
 41
0
  0
VERTEX
  8
0
 10
38.5817
 20
21.8982
 30
0.0
 40
0
 41
0
  0
VERTEX
  8
0
 10
38.795
 20
22.0578
 30
0.0
 40
0
 41
0
  0
VERTEX
  8
0
 10
39.0235
 20
22.1967
 30
0.0
 40
0
 41
0
  0
VERTEX
  8
0
 10
39.2657
 20
22.3133
 30
0.0
 40
0
 41
0
  0
VERTEX
  8
0
 10
39.5201
 20
22.4067
 30
0.0
 40
0
 41
0
  0
VERTEX
  8
0
 10
39.7856
 20
22.475
 30
0.0
 40
0
 41
0
  0
VERTEX
  8
0
 10
40.0606
 20
22.5169
 30
0.0
 40
0
 41
0
  0
VERTEX
  8
0
 10
40.2729
 20
22.5313
 30
0.0
 40
0
 41
0
  0
VERTEX
  8
0
 10
40.3438
 20
22.5313
 30
0.0
 40
0
 41
0
  0
SEQEND
 8
0
  0
POLYLINE
  8
0
 62
     0
 66
     1
 10
0
 20
0
 30
0.0
 70
     1
 40
0
 41
0
  0
VERTEX
  8
0
 10
31.5729
 20
24.0417
 30
0.0
 40
0
 41
0
  0
VERTEX
  8
0
 10
31.6436
 20
24.0417
 30
0.0
 40
0
 41
0
  0
VERTEX
  8
0
 10
31.856
 20
24.0274
 30
0.0
 40
0
 41
0
  0
VERTEX
  8
0
 10
32.131
 20
23.9854
 30
0.0
 40
0
 41
0
  0
VERTEX
  8
0
 10
32.3965
 20
23.9171
 30
0.0
 40
0
 41
0
  0
VERTEX
  8
0
 10
32.651
 20
23.8238
 30
0.0
 40
0
 41
0
  0
VERTEX
  8
0
 10
32.8932
 20
23.7071
 30
0.0
 40
0
 41
0
  0
VERTEX
  8
0
 10
33.1217
 20
23.5682
 30
0.0
 40
0
 41
0
  0
VERTEX
  8
0
 10
33.335
 20
23.4086
 30
0.0
 40
0
 41
0
  0
VERTEX
  8
0
 10
33.5318
 20
23.2297
 30
0.0
 40
0
 41
0
  0
VERTEX
  8
0
 10
33.7107
 20
23.0329
 30
0.0
 40
0
 41
0
  0
VERTEX
  8
0
 10
33.8703
 20
22.8196
 30
0.0
 40
0
 41
0
  0
VERTEX
  8
0
 10
34.0092
 20
22.5911
 30
0.0
 40
0
 41
0
  0
VERTEX
  8
0
 10
34.1258
 20
22.349
 30
0.0
 40
0
 41
0
  0
VERTEX
  8
0
 10
34.219
 20
22.0944
 30
0.0
 40
0
 41
0
  0
VERTEX
  8
0
 10
34.2874
 20
21.829
 30
0.0
 40
0
 41
0
  0
VERTEX
  8
0
 10
34.3294
 20
21.554
 30
0.0
 40
0
 41
0
  0
VERTEX
  8
0
 10
34.3438
 20
21.3417
 30
0.0
 40
0
 41
0
  0
VERTEX
  8
0
 10
34.3438
 20
21.2708
 30
0.0
 40
0
 41
0
  0
VERTEX
  8
0
 10
34.3438
 20
21.2001
 30
0.0
 40
0
 41
0
  0
VERTEX
  8
0
 10
34.3294
 20
20.9878
 30
0.0
 40
0
 41
0
  0
VERTEX
  8
0
 10
34.2874
 20
20.7128
 30
0.0
 40
0
 41
0
  0
VERTEX
  8
0
 10
34.219
 20
20.4472
 30
0.0
 40
0
 41
0
  0
VERTEX
  8
0
 10
34.1258
 20
20.1928
 30
0.0
 40
0
 41
0
  0
VERTEX
  8
0
 10
34.0092
 20
19.9506
 30
0.0
 40
0
 41
0
  0
VERTEX
  8
0
 10
33.8703
 20
19.7221
 30
0.0
 40
0
 41
0
  0
VERTEX
  8
0
 10
33.7107
 20
19.5088
 30
0.0
 40
0
 41
0
  0
VERTEX
  8
0
 10
33.5318
 20
19.3119
 30
0.0
 40
0
 41
0
  0
VERTEX
  8
0
 10
33.335
 20
19.1331
 30
0.0
 40
0
 41
0
  0
VERTEX
  8
0
 10
33.1217
 20
18.9735
 30
0.0
 40
0
 41
0
  0
VERTEX
  8
0
 10
32.8932
 20
18.8346
 30
0.0
 40
0
 41
0
  0
VERTEX
  8
0
 10
32.651
 20
18.7179
 30
0.0
 40
0
 41
0
  0
VERTEX
  8
0
 10
32.3965
 20
18.6247
 30
0.0
 40
0
 41
0
  0
VERTEX
  8
0
 10
32.131
 20
18.5564
 30
0.0
 40
0
 41
0
  0
VERTEX
  8
0
 10
31.856
 20
18.5143
 30
0.0
 40
0
 41
0
  0
VERTEX
  8
0
 10
31.6436
 20
18.5
 30
0.0
 40
0
 41
0
  0
VERTEX
  8
0
 10
31.5729
 20
18.5
 30
0.0
 40
0
 41
0
  0
VERTEX
  8
0
 10
31.5021
 20
18.5
 30
0.0
 40
0
 41
0
  0
VERTEX
  8
0
 10
31.2897
 20
18.5143
 30
0.0
 40
0
 41
0
  0
VERTEX
  8
0
 10
31.0147
 20
18.5564
 30
0.0
 40
0
 41
0
  0
VERTEX
  8
0
 10
30.7493
 20
18.6247
 30
0.0
 40
0
 41
0
  0
VERTEX
  8
0
 10
30.4949
 20
18.7179
 30
0.0
 40
0
 41
0
  0
VERTEX
  8
0
 10
30.2526
 20
18.8346
 30
0.0
 40
0
 41
0
  0
VERTEX
  8
0
 10
30.0242
 20
18.9735
 30
0.0
 40
0
 41
0
  0
VERTEX
  8
0
 10
29.8108
 20
19.1331
 30
0.0
 40
0
 41
0
  0
VERTEX
  8
0
 10
29.614
 20
19.3119
 30
0.0
 40
0
 41
0
  0
VERTEX
  8
0
 10
29.4351
 20
19.5088
 30
0.0
 40
0
 41
0
  0
VERTEX
  8
0
 10
29.2756
 20
19.7221
 30
0.0
 40
0
 41
0
  0
VERTEX
  8
0
 10
29.1367
 20
19.9506
 30
0.0
 40
0
 41
0
  0
VERTEX
  8
0
 10
29.02
 20
20.1928
 30
0.0
 40
0
 41
0
  0
VERTEX
  8
0
 10
28.9267
 20
20.4472
 30
0.0
 40
0
 41
0
  0
VERTEX
  8
0
 10
28.8583
 20
20.7128
 30
0.0
 40
0
 41
0
  0
VERTEX
  8
0
 10
28.8164
 20
20.9878
 30
0.0
 40
0
 41
0
  0
VERTEX
  8
0
 10
28.8021
 20
21.2001
 30
0.0
 40
0
 41
0
  0
VERTEX
  8
0
 10
28.8021
 20
21.2708
 30
0.0
 40
0
 41
0
  0
VERTEX
  8
0
 10
28.8021
 20
21.3417
 30
0.0
 40
0
 41
0
  0
VERTEX
  8
0
 10
28.8164
 20
21.554
 30
0.0
 40
0
 41
0
  0
VERTEX
  8
0
 10
28.8583
 20
21.829
 30
0.0
 40
0
 41
0
  0
VERTEX
  8
0
 10
28.9267
 20
22.0944
 30
0.0
 40
0
 41
0
  0
VERTEX
  8
0
 10
29.02
 20
22.349
 30
0.0
 40
0
 41
0
  0
VERTEX
  8
0
 10
29.1367
 20
22.5911
 30
0.0
 40
0
 41
0
  0
VERTEX
  8
0
 10
29.2756
 20
22.8196
 30
0.0
 40
0
 41
0
  0
VERTEX
  8
0
 10
29.4351
 20
23.0329
 30
0.0
 40
0
 41
0
  0
VERTEX
  8
0
 10
29.614
 20
23.2297
 30
0.0
 40
0
 41
0
  0
VERTEX
  8
0
 10
29.8108
 20
23.4086
 30
0.0
 40
0
 41
0
  0
VERTEX
  8
0
 10
30.0242
 20
23.5682
 30
0.0
 40
0
 41
0
  0
VERTEX
  8
0
 10
30.2526
 20
23.7071
 30
0.0
 40
0
 41
0
  0
VERTEX
  8
0
 10
30.4949
 20
23.8238
 30
0.0
 40
0
 41
0
  0
VERTEX
  8
0
 10
30.7493
 20
23.9171
 30
0.0
 40
0
 41
0
  0
VERTEX
  8
0
 10
31.0147
 20
23.9854
 30
0.0
 40
0
 41
0
  0
VERTEX
  8
0
 10
31.2897
 20
24.0274
 30
0.0
 40
0
 41
0
  0
VERTEX
  8
0
 10
31.5021
 20
24.0417
 30
0.0
 40
0
 41
0
  0
VERTEX
  8
0
 10
31.5729
 20
24.0417
 30
0.0
 40
0
 41
0
  0
SEQEND
 8
0
  0
POLYLINE
  8
0
 62
     0
 66
     1
 10
0
 20
0
 30
0.0
 70
     1
 40
0
 41
0
  0
VERTEX
  8
0
 10
43.8699
 20
19.7708
 30
0.0
 40
0
 41
0
  0
VERTEX
  8
0
 10
43.8868
 20
19.7708
 30
0.0
 40
0
 41
0
  0
VERTEX
  8
0
 10
43.9379
 20
19.764
 30
0.0
 40
0
 41
0
  0
VERTEX
  8
0
 10
44.0015
 20
19.7443
 30
0.0
 40
0
 41
0
  0
VERTEX
  8
0
 10
44.059
 20
19.7131
 30
0.0
 40
0
 41
0
  0
VERTEX
  8
0
 10
44.1092
 20
19.6717
 30
0.0
 40
0
 41
0
  0
VERTEX
  8
0
 10
44.1504
 20
19.6215
 30
0.0
 40
0
 41
0
  0
VERTEX
  8
0
 10
44.1817
 20
19.564
 30
0.0
 40
0
 41
0
  0
VERTEX
  8
0
 10
44.2014
 20
19.5006
 30
0.0
 40
0
 41
0
  0
VERTEX
  8
0
 10
44.2083
 20
19.4494
 30
0.0
 40
0
 41
0
  0
VERTEX
  8
0
 10
44.2083
 20
19.4324
 30
0.0
 40
0
 41
0
  0
VERTEX
  8
0
 10
44.2083
 20
19.4153
 30
0.0
 40
0
 41
0
  0
VERTEX
  8
0
 10
44.2014
 20
19.3642
 30
0.0
 40
0
 41
0
  0
VERTEX
  8
0
 10
44.1817
 20
19.3006
 30
0.0
 40
0
 41
0
  0
VERTEX
  8
0
 10
44.1504
 20
19.2431
 30
0.0
 40
0
 41
0
  0
VERTEX
  8
0
 10
44.1092
 20
19.1929
 30
0.0
 40
0
 41
0
  0
VERTEX
  8
0
 10
44.059
 20
19.1517
 30
0.0
 40
0
 41
0
  0
VERTEX
  8
0
 10
44.0015
 20
19.1204
 30
0.0
 40
0
 41
0
  0
VERTEX
  8
0
 10
43.9379
 20
19.1007
 30
0.0
 40
0
 41
0
  0
VERTEX
  8
0
 10
43.8868
 20
19.0938
 30
0.0
 40
0
 41
0
  0
VERTEX
  8
0
 10
43.8699
 20
19.0938
 30
0.0
 40
0
 41
0
  0
VERTEX
  8
0
 10
43.8526
 20
19.0938
 30
0.0
 40
0
 41
0
  0
VERTEX
  8
0
 10
43.8015
 20
19.1007
 30
0.0
 40
0
 41
0
  0
VERTEX
  8
0
 10
43.7381
 20
19.1204
 30
0.0
 40
0
 41
0
  0
VERTEX
  8
0
 10
43.6806
 20
19.1517
 30
0.0
 40
0
 41
0
  0
VERTEX
  8
0
 10
43.6304
 20
19.1929
 30
0.0
 40
0
 41
0
  0
VERTEX
  8
0
 10
43.589
 20
19.2431
 30
0.0
 40
0
 41
0
  0
VERTEX
  8
0
 10
43.5578
 20
19.3006
 30
0.0
 40
0
 41
0
  0
VERTEX
  8
0
 10
43.5381
 20
19.3642
 30
0.0
 40
0
 41
0
  0
VERTEX
  8
0
 10
43.5313
 20
19.4153
 30
0.0
 40
0
 41
0
  0
VERTEX
  8
0
 10
43.5313
 20
19.4324
 30
0.0
 40
0
 41
0
  0
VERTEX
  8
0
 10
43.5313
 20
19.4494
 30
0.0
 40
0
 41
0
  0
VERTEX
  8
0
 10
43.5381
 20
19.5006
 30
0.0
 40
0
 41
0
  0
VERTEX
  8
0
 10
43.5578
 20
19.564
 30
0.0
 40
0
 41
0
  0
VERTEX
  8
0
 10
43.589
 20
19.6215
 30
0.0
 40
0
 41
0
  0
VERTEX
  8
0
 10
43.6304
 20
19.6717
 30
0.0
 40
0
 41
0
  0
VERTEX
  8
0
 10
43.6806
 20
19.7131
 30
0.0
 40
0
 41
0
  0
VERTEX
  8
0
 10
43.7381
 20
19.7443
 30
0.0
 40
0
 41
0
  0
VERTEX
  8
0
 10
43.8015
 20
19.764
 30
0.0
 40
0
 41
0
  0
VERTEX
  8
0
 10
43.8526
 20
19.7708
 30
0.0
 40
0
 41
0
  0
VERTEX
  8
0
 10
43.8699
 20
19.7708
 30
0.0
 40
0
 41
0
  0
SEQEND
 8
0
  0
POLYLINE
  8
0
 62
     0
 66
     1
 10
0
 20
0
 30
0.0
 70
     1
 40
0
 41
0
  0
VERTEX
  8
0
 10
13.4896
 20
21.1979
 30
0.0
 40
0
 41
0
  0
VERTEX
  8
0
 10
13.5066
 20
21.1979
 30
0.0
 40
0
 41
0
  0
VERTEX
  8
0
 10
13.5577
 20
21.1911
 30
0.0
 40
0
 41
0
  0
VERTEX
  8
0
 10
13.6212
 20
21.1714
 30
0.0
 40
0
 41
0
  0
VERTEX
  8
0
 10
13.6788
 20
21.1401
 30
0.0
 40
0
 41
0
  0
VERTEX
  8
0
 10
13.7289
 20
21.0987
 30
0.0
 40
0
 41
0
  0
VERTEX
  8
0
 10
13.7702
 20
21.0486
 30
0.0
 40
0
 41
0
  0
VERTEX
  8
0
 10
13.8015
 20
20.9911
 30
0.0
 40
0
 41
0
  0
VERTEX
  8
0
 10
13.8212
 20
20.9276
 30
0.0
 40
0
 41
0
  0
VERTEX
  8
0
 10
13.8281
 20
20.8765
 30
0.0
 40
0
 41
0
  0
VERTEX
  8
0
 10
13.8281
 20
20.8594
 30
0.0
 40
0
 41
0
  0
VERTEX
  8
0
 10
13.8281
 20
20.8424
 30
0.0
 40
0
 41
0
  0
VERTEX
  8
0
 10
13.8212
 20
20.7912
 30
0.0
 40
0
 41
0
  0
VERTEX
  8
0
 10
13.8015
 20
20.7276
 30
0.0
 40
0
 41
0
  0
VERTEX
  8
0
 10
13.7702
 20
20.6701
 30
0.0
 40
0
 41
0
  0
VERTEX
  8
0
 10
13.7289
 20
20.62
 30
0.0
 40
0
 41
0
  0
VERTEX
  8
0
 10
13.6788
 20
20.5788
 30
0.0
 40
0
 41
0
  0
VERTEX
  8
0
 10
13.6212
 20
20.5475
 30
0.0
 40
0
 41
0
  0
VERTEX
  8
0
 10
13.5577
 20
20.5278
 30
0.0
 40
0
 41
0
  0
VERTEX
  8
0
 10
13.5066
 20
20.5208
 30
0.0
 40
0
 41
0
  0
VERTEX
  8
0
 10
13.4896
 20
20.5208
 30
0.0
 40
0
 41
0
  0
VERTEX
  8
0
 10
13.4725
 20
20.5208
 30
0.0
 40
0
 41
0
  0
VERTEX
  8
0
 10
13.4214
 20
20.5278
 30
0.0
 40
0
 41
0
  0
VERTEX
  8
0
 10
13.3579
 20
20.5475
 30
0.0
 40
0
 41
0
  0
VERTEX
  8
0
 10
13.3003
 20
20.5788
 30
0.0
 40
0
 41
0
  0
VERTEX
  8
0
 10
13.2502
 20
20.62
 30
0.0
 40
0
 41
0
  0
VERTEX
  8
0
 10
13.2089
 20
20.6701
 30
0.0
 40
0
 41
0
  0
VERTEX
  8
0
 10
13.1776
 20
20.7276
 30
0.0
 40
0
 41
0
  0
VERTEX
  8
0
 10
13.1579
 20
20.7912
 30
0.0
 40
0
 41
0
  0
VERTEX
  8
0
 10
13.151
 20
20.8424
 30
0.0
 40
0
 41
0
  0
VERTEX
  8
0
 10
13.151
 20
20.8594
 30
0.0
 40
0
 41
0
  0
VERTEX
  8
0
 10
13.151
 20
20.8765
 30
0.0
 40
0
 41
0
  0
VERTEX
  8
0
 10
13.1579
 20
20.9276
 30
0.0
 40
0
 41
0
  0
VERTEX
  8
0
 10
13.1776
 20
20.9911
 30
0.0
 40
0
 41
0
  0
VERTEX
  8
0
 10
13.2089
 20
21.0486
 30
0.0
 40
0
 41
0
  0
VERTEX
  8
0
 10
13.2502
 20
21.0987
 30
0.0
 40
0
 41
0
  0
VERTEX
  8
0
 10
13.3003
 20
21.1401
 30
0.0
 40
0
 41
0
  0
VERTEX
  8
0
 10
13.3579
 20
21.1714
 30
0.0
 40
0
 41
0
  0
VERTEX
  8
0
 10
13.4214
 20
21.1911
 30
0.0
 40
0
 41
0
  0
VERTEX
  8
0
 10
13.4725
 20
21.1979
 30
0.0
 40
0
 41
0
  0
VERTEX
  8
0
 10
13.4896
 20
21.1979
 30
0.0
 40
0
 41
0
  0
SEQEND
 8
0
  0
POLYLINE
  8
0
 62
     0
 66
     1
 10
0
 20
0
 30
0.0
 70
     1
 40
0
 41
0
  0
VERTEX
  8
0
 10
37.2344
 20
21.875
 30
0.0
 40
0
 41
0
  0
VERTEX
  8
0
 10
37.2514
 20
21.875
 30
0.0
 40
0
 41
0
  0
VERTEX
  8
0
 10
37.3025
 20
21.8682
 30
0.0
 40
0
 41
0
  0
VERTEX
  8
0
 10
37.3661
 20
21.8485
 30
0.0
 40
0
 41
0
  0
VERTEX
  8
0
 10
37.4236
 20
21.8172
 30
0.0
 40
0
 41
0
  0
VERTEX
  8
0
 10
37.4738
 20
21.7758
 30
0.0
 40
0
 41
0
  0
VERTEX
  8
0
 10
37.515
 20
21.7257
 30
0.0
 40
0
 41
0
  0
VERTEX
  8
0
 10
37.5463
 20
21.6682
 30
0.0
 40
0
 41
0
  0
VERTEX
  8
0
 10
37.566
 20
21.6047
 30
0.0
 40
0
 41
0
  0
VERTEX
  8
0
 10
37.5729
 20
21.5536
 30
0.0
 40
0
 41
0
  0
VERTEX
  8
0
 10
37.5729
 20
21.5365
 30
0.0
 40
0
 41
0
  0
VERTEX
  8
0
 10
37.5729
 20
21.5194
 30
0.0
 40
0
 41
0
  0
VERTEX
  8
0
 10
37.566
 20
21.4683
 30
0.0
 40
0
 41
0
  0
VERTEX
  8
0
 10
37.5463
 20
21.4047
 30
0.0
 40
0
 41
0
  0
VERTEX
  8
0
 10
37.515
 20
21.3472
 30
0.0
 40
0
 41
0
  0
VERTEX
  8
0
 10
37.4738
 20
21.2971
 30
0.0
 40
0
 41
0
  0
VERTEX
  8
0
 10
37.4236
 20
21.2558
 30
0.0
 40
0
 41
0
  0
VERTEX
  8
0
 10
37.3661
 20
21.2246
 30
0.0
 40
0
 41
0
  0
VERTEX
  8
0
 10
37.3025
 20
21.2049
 30
0.0
 40
0
 41
0
  0
VERTEX
  8
0
 10
37.2514
 20
21.1979
 30
0.0
 40
0
 41
0
  0
VERTEX
  8
0
 10
37.2344
 20
21.1979
 30
0.0
 40
0
 41
0
  0
VERTEX
  8
0
 10
37.2172
 20
21.1979
 30
0.0
 40
0
 41
0
  0
VERTEX
  8
0
 10
37.1661
 20
21.2049
 30
0.0
 40
0
 41
0
  0
VERTEX
  8
0
 10
37.1026
 20
21.2246
 30
0.0
 40
0
 41
0
  0
VERTEX
  8
0
 10
37.0451
 20
21.2558
 30
0.0
 40
0
 41
0
  0
VERTEX
  8
0
 10
36.995
 20
21.2971
 30
0.0
 40
0
 41
0
  0
VERTEX
  8
0
 10
36.9536
 20
21.3472
 30
0.0
 40
0
 41
0
  0
VERTEX
  8
0
 10
36.9224
 20
21.4047
 30
0.0
 40
0
 41
0
  0
VERTEX
  8
0
 10
36.9026
 20
21.4683
 30
0.0
 40
0
 41
0
  0
VERTEX
  8
0
 10
36.8958
 20
21.5194
 30
0.0
 40
0
 41
0
  0
VERTEX
  8
0
 10
36.8958
 20
21.5365
 30
0.0
 40
0
 41
0
  0
VERTEX
  8
0
 10
36.8958
 20
21.5536
 30
0.0
 40
0
 41
0
  0
VERTEX
  8
0
 10
36.9026
 20
21.6047
 30
0.0
 40
0
 41
0
  0
VERTEX
  8
0
 10
36.9224
 20
21.6682
 30
0.0
 40
0
 41
0
  0
VERTEX
  8
0
 10
36.9536
 20
21.7257
 30
0.0
 40
0
 41
0
  0
VERTEX
  8
0
 10
36.995
 20
21.7758
 30
0.0
 40
0
 41
0
  0
VERTEX
  8
0
 10
37.0451
 20
21.8172
 30
0.0
 40
0
 41
0
  0
VERTEX
  8
0
 10
37.1026
 20
21.8485
 30
0.0
 40
0
 41
0
  0
VERTEX
  8
0
 10
37.1661
 20
21.8682
 30
0.0
 40
0
 41
0
  0
VERTEX
  8
0
 10
37.2172
 20
21.875
 30
0.0
 40
0
 41
0
  0
VERTEX
  8
0
 10
37.2344
 20
21.875
 30
0.0
 40
0
 41
0
  0
SEQEND
 8
0
  0
POLYLINE
  8
0
 62
     0
 66
     1
 10
0
 20
0
 30
0.0
 70
     1
 40
0
 41
0
  0
VERTEX
  8
0
 10
21.5833
 20
22.8699
 30
0.0
 40
0
 41
0
  0
VERTEX
  8
0
 10
21.6004
 20
22.8699
 30
0.0
 40
0
 41
0
  0
VERTEX
  8
0
 10
21.6515
 20
22.8629
 30
0.0
 40
0
 41
0
  0
VERTEX
  8
0
 10
21.715
 20
22.8432
 30
0.0
 40
0
 41
0
  0
VERTEX
  8
0
 10
21.7725
 20
22.8119
 30
0.0
 40
0
 41
0
  0
VERTEX
  8
0
 10
21.8226
 20
22.7706
 30
0.0
 40
0
 41
0
  0
VERTEX
  8
0
 10
21.864
 20
22.7206
 30
0.0
 40
0
 41
0
  0
VERTEX
  8
0
 10
21.8953
 20
22.6629
 30
0.0
 40
0
 41
0
  0
VERTEX
  8
0
 10
21.915
 20
22.5994
 30
0.0
 40
0
 41
0
  0
VERTEX
  8
0
 10
21.9219
 20
22.5483
 30
0.0
 40
0
 41
0
  0
VERTEX
  8
0
 10
21.9219
 20
22.5313
 30
0.0
 40
0
 41
0
  0
VERTEX
  8
0
 10
21.9219
 20
22.5142
 30
0.0
 40
0
 41
0
  0
VERTEX
  8
0
 10
21.915
 20
22.4631
 30
0.0
 40
0
 41
0
  0
VERTEX
  8
0
 10
21.8953
 20
22.3996
 30
0.0
 40
0
 41
0
  0
VERTEX
  8
0
 10
21.864
 20
22.3421
 30
0.0
 40
0
 41
0
  0
VERTEX
  8
0
 10
21.8226
 20
22.2919
 30
0.0
 40
0
 41
0
  0
VERTEX
  8
0
 10
21.7725
 20
22.2506
 30
0.0
 40
0
 41
0
  0
VERTEX
  8
0
 10
21.715
 20
22.2193
 30
0.0
 40
0
 41
0
  0
VERTEX
  8
0
 10
21.6515
 20
22.1996
 30
0.0
 40
0
 41
0
  0
VERTEX
  8
0
 10
21.6004
 20
22.1928
 30
0.0
 40
0
 41
0
  0
VERTEX
  8
0
 10
21.5833
 20
22.1928
 30
0.0
 40
0
 41
0
  0
VERTEX
  8
0
 10
21.5663
 20
22.1928
 30
0.0
 40
0
 41
0
  0
VERTEX
  8
0
 10
21.5151
 20
22.1996
 30
0.0
 40
0
 41
0
  0
VERTEX
  8
0
 10
21.4517
 20
22.2193
 30
0.0
 40
0
 41
0
  0
VERTEX
  8
0
 10
21.3942
 20
22.2506
 30
0.0
 40
0
 41
0
  0
VERTEX
  8
0
 10
21.344
 20
22.2919
 30
0.0
 40
0
 41
0
  0
VERTEX
  8
0
 10
21.3026
 20
22.3421
 30
0.0
 40
0
 41
0
  0
VERTEX
  8
0
 10
21.2714
 20
22.3996
 30
0.0
 40
0
 41
0
  0
VERTEX
  8
0
 10
21.2517
 20
22.4631
 30
0.0
 40
0
 41
0
  0
VERTEX
  8
0
 10
21.2449
 20
22.5142
 30
0.0
 40
0
 41
0
  0
VERTEX
  8
0
 10
21.2449
 20
22.5313
 30
0.0
 40
0
 41
0
  0
VERTEX
  8
0
 10
21.2449
 20
22.5483
 30
0.0
 40
0
 41
0
  0
VERTEX
  8
0
 10
21.2517
 20
22.5994
 30
0.0
 40
0
 41
0
  0
VERTEX
  8
0
 10
21.2714
 20
22.6629
 30
0.0
 40
0
 41
0
  0
VERTEX
  8
0
 10
21.3026
 20
22.7206
 30
0.0
 40
0
 41
0
  0
VERTEX
  8
0
 10
21.344
 20
22.7706
 30
0.0
 40
0
 41
0
  0
VERTEX
  8
0
 10
21.3942
 20
22.8119
 30
0.0
 40
0
 41
0
  0
VERTEX
  8
0
 10
21.4517
 20
22.8432
 30
0.0
 40
0
 41
0
  0
VERTEX
  8
0
 10
21.5151
 20
22.8629
 30
0.0
 40
0
 41
0
  0
VERTEX
  8
0
 10
21.5663
 20
22.8699
 30
0.0
 40
0
 41
0
  0
VERTEX
  8
0
 10
21.5833
 20
22.8699
 30
0.0
 40
0
 41
0
  0
SEQEND
 8
0
  0
POLYLINE
  8
0
 62
     0
 66
     1
 10
0
 20
0
 30
0.0
 70
     1
 40
0
 41
0
  0
VERTEX
  8
0
 10
46.6875
 20
23.8854
 30
0.0
 40
0
 41
0
  0
VERTEX
  8
0
 10
46.7215
 20
23.8854
 30
0.0
 40
0
 41
0
  0
VERTEX
  8
0
 10
46.8239
 20
23.8717
 30
0.0
 40
0
 41
0
  0
VERTEX
  8
0
 10
46.9508
 20
23.8322
 30
0.0
 40
0
 41
0
  0
VERTEX
  8
0
 10
47.066
 20
23.7697
 30
0.0
 40
0
 41
0
  0
VERTEX
  8
0
 10
47.1661
 20
23.6869
 30
0.0
 40
0
 41
0
  0
VERTEX
  8
0
 10
47.2489
 20
23.5868
 30
0.0
 40
0
 41
0
  0
VERTEX
  8
0
 10
47.3112
 20
23.4718
 30
0.0
 40
0
 41
0
  0
VERTEX
  8
0
 10
47.3508
 20
23.3447
 30
0.0
 40
0
 41
0
  0
VERTEX
  8
0
 10
47.3646
 20
23.2425
 30
0.0
 40
0
 41
0
  0
VERTEX
  8
0
 10
47.3646
 20
23.2083
 30
0.0
 40
0
 41
0
  0
VERTEX
  8
0
 10
47.3646
 20
23.1743
 30
0.0
 40
0
 41
0
  0
VERTEX
  8
0
 10
47.3508
 20
23.0719
 30
0.0
 40
0
 41
0
  0
VERTEX
  8
0
 10
47.3112
 20
22.945
 30
0.0
 40
0
 41
0
  0
VERTEX
  8
0
 10
47.2489
 20
22.8299
 30
0.0
 40
0
 41
0
  0
VERTEX
  8
0
 10
47.1661
 20
22.7297
 30
0.0
 40
0
 41
0
  0
VERTEX
  8
0
 10
47.066
 20
22.6469
 30
0.0
 40
0
 41
0
  0
VERTEX
  8
0
 10
46.9508
 20
22.5846
 30
0.0
 40
0
 41
0
  0
VERTEX
  8
0
 10
46.8239
 20
22.545
 30
0.0
 40
0
 41
0
  0
VERTEX
  8
0
 10
46.7215
 20
22.5313
 30
0.0
 40
0
 41
0
  0
VERTEX
  8
0
 10
46.6875
 20
22.5313
 30
0.0
 40
0
 41
0
  0
VERTEX
  8
0
 10
46.6533
 20
22.5313
 30
0.0
 40
0
 41
0
  0
VERTEX
  8
0
 10
46.5511
 20
22.545
 30
0.0
 40
0
 41
0
  0
VERTEX
  8
0
 10
46.424
 20
22.5846
 30
0.0
 40
0
 41
0
  0
VERTEX
  8
0
 10
46.309
 20
22.6469
 30
0.0
 40
0
 41
0
  0
VERTEX
  8
0
 10
46.2089
 20
22.7297
 30
0.0
 40
0
 41
0
  0
VERTEX
  8
0
 10
46.1261
 20
22.8299
 30
0.0
 40
0
 41
0
  0
VERTEX
  8
0
 10
46.0636
 20
22.945
 30
0.0
 40
0
 41
0
  0
VERTEX
  8
0
 10
46.0242
 20
23.0719
 30
0.0
 40
0
 41
0
  0
VERTEX
  8
0
 10
46.0104
 20
23.1743
 30
0.0
 40
0
 41
0
  0
VERTEX
  8
0
 10
46.0104
 20
23.2083
 30
0.0
 40
0
 41
0
  0
VERTEX
  8
0
 10
46.0104
 20
23.2425
 30
0.0
 40
0
 41
0
  0
VERTEX
  8
0
 10
46.0242
 20
23.3447
 30
0.0
 40
0
 41
0
  0
VERTEX
  8
0
 10
46.0636
 20
23.4718
 30
0.0
 40
0
 41
0
  0
VERTEX
  8
0
 10
46.1261
 20
23.5868
 30
0.0
 40
0
 41
0
  0
VERTEX
  8
0
 10
46.2089
 20
23.6869
 30
0.0
 40
0
 41
0
  0
VERTEX
  8
0
 10
46.309
 20
23.7697
 30
0.0
 40
0
 41
0
  0
VERTEX
  8
0
 10
46.424
 20
23.8322
 30
0.0
 40
0
 41
0
  0
VERTEX
  8
0
 10
46.5511
 20
23.8717
 30
0.0
 40
0
 41
0
  0
VERTEX
  8
0
 10
46.6533
 20
23.8854
 30
0.0
 40
0
 41
0
  0
VERTEX
  8
0
 10
46.6875
 20
23.8854
 30
0.0
 40
0
 41
0
  0
SEQEND
 8
0
  0
POLYLINE
  8
0
 62
     0
 66
     1
 10
0
 20
0
 30
0.0
 70
     1
 40
0
 41
0
  0
VERTEX
  8
0
 10
28.8021
 20
23.7032
 30
0.0
 40
0
 41
0
  0
VERTEX
  8
0
 10
28.8192
 20
23.7032
 30
0.0
 40
0
 41
0
  0
VERTEX
  8
0
 10
28.8703
 20
23.6963
 30
0.0
 40
0
 41
0
  0
VERTEX
  8
0
 10
28.9337
 20
23.6765
 30
0.0
 40
0
 41
0
  0
VERTEX
  8
0
 10
28.9913
 20
23.6453
 30
0.0
 40
0
 41
0
  0
VERTEX
  8
0
 10
29.0414
 20
23.6039
 30
0.0
 40
0
 41
0
  0
VERTEX
  8
0
 10
29.0828
 20
23.5539
 30
0.0
 40
0
 41
0
  0
VERTEX
  8
0
 10
29.114
 20
23.4962
 30
0.0
 40
0
 41
0
  0
VERTEX
  8
0
 10
29.1337
 20
23.4328
 30
0.0
 40
0
 41
0
  0
VERTEX
  8
0
 10
29.1407
 20
23.3817
 30
0.0
 40
0
 41
0
  0
VERTEX
  8
0
 10
29.1407
 20
23.3646
 30
0.0
 40
0
 41
0
  0
VERTEX
  8
0
 10
29.1407
 20
23.3475
 30
0.0
 40
0
 41
0
  0
VERTEX
  8
0
 10
29.1337
 20
23.2964
 30
0.0
 40
0
 41
0
  0
VERTEX
  8
0
 10
29.114
 20
23.2329
 30
0.0
 40
0
 41
0
  0
VERTEX
  8
0
 10
29.0828
 20
23.1754
 30
0.0
 40
0
 41
0
  0
VERTEX
  8
0
 10
29.0414
 20
23.1253
 30
0.0
 40
0
 41
0
  0
VERTEX
  8
0
 10
28.9913
 20
23.0839
 30
0.0
 40
0
 41
0
  0
VERTEX
  8
0
 10
28.9337
 20
23.0526
 30
0.0
 40
0
 41
0
  0
VERTEX
  8
0
 10
28.8703
 20
23.0329
 30
0.0
 40
0
 41
0
  0
VERTEX
  8
0
 10
28.8192
 20
23.0261
 30
0.0
 40
0
 41
0
  0
VERTEX
  8
0
 10
28.8021
 20
23.0261
 30
0.0
 40
0
 41
0
  0
VERTEX
  8
0
 10
28.785
 20
23.0261
 30
0.0
 40
0
 41
0
  0
VERTEX
  8
0
 10
28.7339
 20
23.0329
 30
0.0
 40
0
 41
0
  0
VERTEX
  8
0
 10
28.6704
 20
23.0526
 30
0.0
 40
0
 41
0
  0
VERTEX
  8
0
 10
28.6129
 20
23.0839
 30
0.0
 40
0
 41
0
  0
VERTEX
  8
0
 10
28.5628
 20
23.1253
 30
0.0
 40
0
 41
0
  0
VERTEX
  8
0
 10
28.5214
 20
23.1754
 30
0.0
 40
0
 41
0
  0
VERTEX
  8
0
 10
28.4901
 20
23.2329
 30
0.0
 40
0
 41
0
  0
VERTEX
  8
0
 10
28.4704
 20
23.2964
 30
0.0
 40
0
 41
0
  0
VERTEX
  8
0
 10
28.4636
 20
23.3475
 30
0.0
 40
0
 41
0
  0
VERTEX
  8
0
 10
28.4636
 20
23.3646
 30
0.0
 40
0
 41
0
  0
VERTEX
  8
0
 10
28.4636
 20
23.3817
 30
0.0
 40
0
 41
0
  0
VERTEX
  8
0
 10
28.4704
 20
23.4328
 30
0.0
 40
0
 41
0
  0
VERTEX
  8
0
 10
28.4901
 20
23.4962
 30
0.0
 40
0
 41
0
  0
VERTEX
  8
0
 10
28.5214
 20
23.5539
 30
0.0
 40
0
 41
0
  0
VERTEX
  8
0
 10
28.5628
 20
23.6039
 30
0.0
 40
0
 41
0
  0
VERTEX
  8
0
 10
28.6129
 20
23.6453
 30
0.0
 40
0
 41
0
  0
VERTEX
  8
0
 10
28.6704
 20
23.6765
 30
0.0
 40
0
 41
0
  0
VERTEX
  8
0
 10
28.7339
 20
23.6963
 30
0.0
 40
0
 41
0
  0
VERTEX
  8
0
 10
28.785
 20
23.7032
 30
0.0
 40
0
 41
0
  0
VERTEX
  8
0
 10
28.8021
 20
23.7032
 30
0.0
 40
0
 41
0
  0
SEQEND
 8
0
  0
POLYLINE
  8
0
 62
     0
 66
     1
 10
0
 20
0
 30
0.0
 70
     1
 40
0
 41
0
  0
VERTEX
  8
0
 10
5.85417
 20
24.7188
 30
0.0
 40
0
 41
0
  0
VERTEX
  8
0
 10
5.88824
 20
24.7188
 30
0.0
 40
0
 41
0
  0
VERTEX
  8
0
 10
5.9905
 20
24.705
 30
0.0
 40
0
 41
0
  0
VERTEX
  8
0
 10
6.11757
 20
24.6656
 30
0.0
 40
0
 41
0
  0
VERTEX
  8
0
 10
6.23258
 20
24.6031
 30
0.0
 40
0
 41
0
  0
VERTEX
  8
0
 10
6.33279
 20
24.5203
 30
0.0
 40
0
 41
0
  0
VERTEX
  8
0
 10
6.41553
 20
24.4201
 30
0.0
 40
0
 41
0
  0
VERTEX
  8
0
 10
6.47797
 20
24.3051
 30
0.0
 40
0
 41
0
  0
VERTEX
  8
0
 10
6.51747
 20
24.1781
 30
0.0
 40
0
 41
0
  0
VERTEX
  8
0
 10
6.53125
 20
24.0758
 30
0.0
 40
0
 41
0
  0
VERTEX
  8
0
 10
6.53125
 20
24.0417
 30
0.0
 40
0
 41
0
  0
VERTEX
  8
0
 10
6.53125
 20
24.0076
 30
0.0
 40
0
 41
0
  0
VERTEX
  8
0
 10
6.51747
 20
23.9053
 30
0.0
 40
0
 41
0
  0
VERTEX
  8
0
 10
6.47797
 20
23.7783
 30
0.0
 40
0
 41
0
  0
VERTEX
  8
0
 10
6.41553
 20
23.6632
 30
0.0
 40
0
 41
0
  0
VERTEX
  8
0
 10
6.33279
 20
23.5631
 30
0.0
 40
0
 41
0
  0
VERTEX
  8
0
 10
6.23258
 20
23.4803
 30
0.0
 40
0
 41
0
  0
VERTEX
  8
0
 10
6.11757
 20
23.4179
 30
0.0
 40
0
 41
0
  0
VERTEX
  8
0
 10
5.9905
 20
23.3783
 30
0.0
 40
0
 41
0
  0
VERTEX
  8
0
 10
5.88824
 20
23.3646
 30
0.0
 40
0
 41
0
  0
VERTEX
  8
0
 10
5.85417
 20
23.3646
 30
0.0
 40
0
 41
0
  0
VERTEX
  8
0
 10
5.82004
 20
23.3646
 30
0.0
 40
0
 41
0
  0
VERTEX
  8
0
 10
5.71778
 20
23.3783
 30
0.0
 40
0
 41
0
  0
VERTEX
  8
0
 10
5.59071
 20
23.4179
 30
0.0
 40
0
 41
0
  0
VERTEX
  8
0
 10
5.47569
 20
23.4803
 30
0.0
 40
0
 41
0
  0
VERTEX
  8
0
 10
5.37549
 20
23.5631
 30
0.0
 40
0
 41
0
  0
VERTEX
  8
0
 10
5.29275
 20
23.6632
 30
0.0
 40
0
 41
0
  0
VERTEX
  8
0
 10
5.23031
 20
23.7783
 30
0.0
 40
0
 41
0
  0
VERTEX
  8
0
 10
5.19081
 20
23.9053
 30
0.0
 40
0
 41
0
  0
VERTEX
  8
0
 10
5.17708
 20
24.0076
 30
0.0
 40
0
 41
0
  0
VERTEX
  8
0
 10
5.17708
 20
24.0417
 30
0.0
 40
0
 41
0
  0
VERTEX
  8
0
 10
5.17708
 20
24.0758
 30
0.0
 40
0
 41
0
  0
VERTEX
  8
0
 10
5.19081
 20
24.1781
 30
0.0
 40
0
 41
0
  0
VERTEX
  8
0
 10
5.23031
 20
24.3051
 30
0.0
 40
0
 41
0
  0
VERTEX
  8
0
 10
5.29275
 20
24.4201
 30
0.0
 40
0
 41
0
  0
VERTEX
  8
0
 10
5.37549
 20
24.5203
 30
0.0
 40
0
 41
0
  0
VERTEX
  8
0
 10
5.47569
 20
24.6031
 30
0.0
 40
0
 41
0
  0
VERTEX
  8
0
 10
5.59071
 20
24.6656
 30
0.0
 40
0
 41
0
  0
VERTEX
  8
0
 10
5.71778
 20
24.705
 30
0.0
 40
0
 41
0
  0
VERTEX
  8
0
 10
5.82004
 20
24.7188
 30
0.0
 40
0
 41
0
  0
VERTEX
  8
0
 10
5.85417
 20
24.7188
 30
0.0
 40
0
 41
0
  0
SEQEND
 8
0
  0
POLYLINE
  8
0
 62
     0
 66
     1
 10
0
 20
0
 30
0.0
 70
     1
 40
0
 41
0
  0
VERTEX
  8
0
 10
12.8333
 20
25.9688
 30
0.0
 40
0
 41
0
  0
VERTEX
  8
0
 10
12.8674
 20
25.9688
 30
0.0
 40
0
 41
0
  0
VERTEX
  8
0
 10
12.9697
 20
25.955
 30
0.0
 40
0
 41
0
  0
VERTEX
  8
0
 10
13.0967
 20
25.9156
 30
0.0
 40
0
 41
0
  0
VERTEX
  8
0
 10
13.2117
 20
25.8531
 30
0.0
 40
0
 41
0
  0
VERTEX
  8
0
 10
13.312
 20
25.7703
 30
0.0
 40
0
 41
0
  0
VERTEX
  8
0
 10
13.3947
 20
25.6701
 30
0.0
 40
0
 41
0
  0
VERTEX
  8
0
 10
13.4571
 20
25.5551
 30
0.0
 40
0
 41
0
  0
VERTEX
  8
0
 10
13.4966
 20
25.4281
 30
0.0
 40
0
 41
0
  0
VERTEX
  8
0
 10
13.5104
 20
25.3258
 30
0.0
 40
0
 41
0
  0
VERTEX
  8
0
 10
13.5104
 20
25.2917
 30
0.0
 40
0
 41
0
  0
VERTEX
  8
0
 10
13.5104
 20
25.2576
 30
0.0
 40
0
 41
0
  0
VERTEX
  8
0
 10
13.4966
 20
25.1553
 30
0.0
 40
0
 41
0
  0
VERTEX
  8
0
 10
13.4571
 20
25.0283
 30
0.0
 40
0
 41
0
  0
VERTEX
  8
0
 10
13.3947
 20
24.9132
 30
0.0
 40
0
 41
0
  0
VERTEX
  8
0
 10
13.312
 20
24.8131
 30
0.0
 40
0
 41
0
  0
VERTEX
  8
0
 10
13.2117
 20
24.7303
 30
0.0
 40
0
 41
0
  0
VERTEX
  8
0
 10
13.0967
 20
24.6679
 30
0.0
 40
0
 41
0
  0
VERTEX
  8
0
 10
12.9697
 20
24.6283
 30
0.0
 40
0
 41
0
  0
VERTEX
  8
0
 10
12.8674
 20
24.6146
 30
0.0
 40
0
 41
0
  0
VERTEX
  8
0
 10
12.8333
 20
24.6146
 30
0.0
 40
0
 41
0
  0
VERTEX
  8
0
 10
12.7992
 20
24.6146
 30
0.0
 40
0
 41
0
  0
VERTEX
  8
0
 10
12.6969
 20
24.6283
 30
0.0
 40
0
 41
0
  0
VERTEX
  8
0
 10
12.5699
 20
24.6679
 30
0.0
 40
0
 41
0
  0
VERTEX
  8
0
 10
12.4549
 20
24.7303
 30
0.0
 40
0
 41
0
  0
VERTEX
  8
0
 10
12.3547
 20
24.8131
 30
0.0
 40
0
 41
0
  0
VERTEX
  8
0
 10
12.2719
 20
24.9132
 30
0.0
 40
0
 41
0
  0
VERTEX
  8
0
 10
12.2095
 20
25.0283
 30
0.0
 40
0
 41
0
  0
VERTEX
  8
0
 10
12.17
 20
25.1553
 30
0.0
 40
0
 41
0
  0
VERTEX
  8
0
 10
12.1563
 20
25.2576
 30
0.0
 40
0
 41
0
  0
VERTEX
  8
0
 10
12.1563
 20
25.2917
 30
0.0
 40
0
 41
0
  0
VERTEX
  8
0
 10
12.1563
 20
25.3258
 30
0.0
 40
0
 41
0
  0
VERTEX
  8
0
 10
12.17
 20
25.4281
 30
0.0
 40
0
 41
0
  0
VERTEX
  8
0
 10
12.2095
 20
25.5551
 30
0.0
 40
0
 41
0
  0
VERTEX
  8
0
 10
12.2719
 20
25.6701
 30
0.0
 40
0
 41
0
  0
VERTEX
  8
0
 10
12.3547
 20
25.7703
 30
0.0
 40
0
 41
0
  0
VERTEX
  8
0
 10
12.4549
 20
25.8531
 30
0.0
 40
0
 41
0
  0
VERTEX
  8
0
 10
12.5699
 20
25.9156
 30
0.0
 40
0
 41
0
  0
VERTEX
  8
0
 10
12.6969
 20
25.955
 30
0.0
 40
0
 41
0
  0
VERTEX
  8
0
 10
12.7992
 20
25.9688
 30
0.0
 40
0
 41
0
  0
VERTEX
  8
0
 10
12.8333
 20
25.9688
 30
0.0
 40
0
 41
0
  0
SEQEND
 8
0
  0
POLYLINE
  8
0
 62
     0
 66
     1
 10
0
 20
0
 30
0.0
 70
     1
 40
0
 41
0
  0
VERTEX
  8
0
 10
23.875
 20
25.9688
 30
0.0
 40
0
 41
0
  0
VERTEX
  8
0
 10
23.909
 20
25.9688
 30
0.0
 40
0
 41
0
  0
VERTEX
  8
0
 10
24.0114
 20
25.955
 30
0.0
 40
0
 41
0
  0
VERTEX
  8
0
 10
24.1383
 20
25.9156
 30
0.0
 40
0
 41
0
  0
VERTEX
  8
0
 10
24.2535
 20
25.8531
 30
0.0
 40
0
 41
0
  0
VERTEX
  8
0
 10
24.3536
 20
25.7703
 30
0.0
 40
0
 41
0
  0
VERTEX
  8
0
 10
24.4364
 20
25.6701
 30
0.0
 40
0
 41
0
  0
VERTEX
  8
0
 10
24.4988
 20
25.5551
 30
0.0
 40
0
 41
0
  0
VERTEX
  8
0
 10
24.5383
 20
25.4281
 30
0.0
 40
0
 41
0
  0
VERTEX
  8
0
 10
24.5521
 20
25.3258
 30
0.0
 40
0
 41
0
  0
VERTEX
  8
0
 10
24.5521
 20
25.2917
 30
0.0
 40
0
 41
0
  0
VERTEX
  8
0
 10
24.5521
 20
25.2576
 30
0.0
 40
0
 41
0
  0
VERTEX
  8
0
 10
24.5383
 20
25.1553
 30
0.0
 40
0
 41
0
  0
VERTEX
  8
0
 10
24.4988
 20
25.0283
 30
0.0
 40
0
 41
0
  0
VERTEX
  8
0
 10
24.4364
 20
24.9132
 30
0.0
 40
0
 41
0
  0
VERTEX
  8
0
 10
24.3536
 20
24.8131
 30
0.0
 40
0
 41
0
  0
VERTEX
  8
0
 10
24.2535
 20
24.7303
 30
0.0
 40
0
 41
0
  0
VERTEX
  8
0
 10
24.1383
 20
24.6679
 30
0.0
 40
0
 41
0
  0
VERTEX
  8
0
 10
24.0114
 20
24.6283
 30
0.0
 40
0
 41
0
  0
VERTEX
  8
0
 10
23.909
 20
24.6146
 30
0.0
 40
0
 41
0
  0
VERTEX
  8
0
 10
23.875
 20
24.6146
 30
0.0
 40
0
 41
0
  0
VERTEX
  8
0
 10
23.8408
 20
24.6146
 30
0.0
 40
0
 41
0
  0
VERTEX
  8
0
 10
23.7386
 20
24.6283
 30
0.0
 40
0
 41
0
  0
VERTEX
  8
0
 10
23.6115
 20
24.6679
 30
0.0
 40
0
 41
0
  0
VERTEX
  8
0
 10
23.4965
 20
24.7303
 30
0.0
 40
0
 41
0
  0
VERTEX
  8
0
 10
23.3964
 20
24.8131
 30
0.0
 40
0
 41
0
  0
VERTEX
  8
0
 10
23.3136
 20
24.9132
 30
0.0
 40
0
 41
0
  0
VERTEX
  8
0
 10
23.2511
 20
25.0283
 30
0.0
 40
0
 41
0
  0
VERTEX
  8
0
 10
23.2117
 20
25.1553
 30
0.0
 40
0
 41
0
  0
VERTEX
  8
0
 10
23.1979
 20
25.2576
 30
0.0
 40
0
 41
0
  0
VERTEX
  8
0
 10
23.1979
 20
25.2917
 30
0.0
 40
0
 41
0
  0
VERTEX
  8
0
 10
23.1979
 20
25.3258
 30
0.0
 40
0
 41
0
  0
VERTEX
  8
0
 10
23.2117
 20
25.4281
 30
0.0
 40
0
 41
0
  0
VERTEX
  8
0
 10
23.2511
 20
25.5551
 30
0.0
 40
0
 41
0
  0
VERTEX
  8
0
 10
23.3136
 20
25.6701
 30
0.0
 40
0
 41
0
  0
VERTEX
  8
0
 10
23.3964
 20
25.7703
 30
0.0
 40
0
 41
0
  0
VERTEX
  8
0
 10
23.4965
 20
25.8531
 30
0.0
 40
0
 41
0
  0
VERTEX
  8
0
 10
23.6115
 20
25.9156
 30
0.0
 40
0
 41
0
  0
VERTEX
  8
0
 10
23.7386
 20
25.955
 30
0.0
 40
0
 41
0
  0
VERTEX
  8
0
 10
23.8408
 20
25.9688
 30
0.0
 40
0
 41
0
  0
VERTEX
  8
0
 10
23.875
 20
25.9688
 30
0.0
 40
0
 41
0
  0
SEQEND
 8
0
  0
POLYLINE
  8
0
 62
     0
 66
     1
 10
0
 20
0
 30
0.0
 70
     1
 40
0
 41
0
  0
VERTEX
  8
0
 10
38.25
 20
26.5938
 30
0.0
 40
0
 41
0
  0
VERTEX
  8
0
 10
38.284
 20
26.5938
 30
0.0
 40
0
 41
0
  0
VERTEX
  8
0
 10
38.3864
 20
26.58
 30
0.0
 40
0
 41
0
  0
VERTEX
  8
0
 10
38.5133
 20
26.5406
 30
0.0
 40
0
 41
0
  0
VERTEX
  8
0
 10
38.6285
 20
26.4781
 30
0.0
 40
0
 41
0
  0
VERTEX
  8
0
 10
38.7286
 20
26.3953
 30
0.0
 40
0
 41
0
  0
VERTEX
  8
0
 10
38.8114
 20
26.2951
 30
0.0
 40
0
 41
0
  0
VERTEX
  8
0
 10
38.8737
 20
26.1801
 30
0.0
 40
0
 41
0
  0
VERTEX
  8
0
 10
38.9133
 20
26.0531
 30
0.0
 40
0
 41
0
  0
VERTEX
  8
0
 10
38.9271
 20
25.9508
 30
0.0
 40
0
 41
0
  0
VERTEX
  8
0
 10
38.9271
 20
25.9167
 30
0.0
 40
0
 41
0
  0
VERTEX
  8
0
 10
38.9271
 20
25.8826
 30
0.0
 40
0
 41
0
  0
VERTEX
  8
0
 10
38.9133
 20
25.7803
 30
0.0
 40
0
 41
0
  0
VERTEX
  8
0
 10
38.8737
 20
25.6533
 30
0.0
 40
0
 41
0
  0
VERTEX
  8
0
 10
38.8114
 20
25.5382
 30
0.0
 40
0
 41
0
  0
VERTEX
  8
0
 10
38.7286
 20
25.4381
 30
0.0
 40
0
 41
0
  0
VERTEX
  8
0
 10
38.6285
 20
25.3553
 30
0.0
 40
0
 41
0
  0
VERTEX
  8
0
 10
38.5133
 20
25.2929
 30
0.0
 40
0
 41
0
  0
VERTEX
  8
0
 10
38.3864
 20
25.2533
 30
0.0
 40
0
 41
0
  0
VERTEX
  8
0
 10
38.284
 20
25.2396
 30
0.0
 40
0
 41
0
  0
VERTEX
  8
0
 10
38.25
 20
25.2396
 30
0.0
 40
0
 41
0
  0
VERTEX
  8
0
 10
38.2158
 20
25.2396
 30
0.0
 40
0
 41
0
  0
VERTEX
  8
0
 10
38.1136
 20
25.2533
 30
0.0
 40
0
 41
0
  0
VERTEX
  8
0
 10
37.9865
 20
25.2929
 30
0.0
 40
0
 41
0
  0
VERTEX
  8
0
 10
37.8715
 20
25.3553
 30
0.0
 40
0
 41
0
  0
VERTEX
  8
0
 10
37.7714
 20
25.4381
 30
0.0
 40
0
 41
0
  0
VERTEX
  8
0
 10
37.6886
 20
25.5382
 30
0.0
 40
0
 41
0
  0
VERTEX
  8
0
 10
37.6261
 20
25.6533
 30
0.0
 40
0
 41
0
  0
VERTEX
  8
0
 10
37.5867
 20
25.7803
 30
0.0
 40
0
 41
0
  0
VERTEX
  8
0
 10
37.5729
 20
25.8826
 30
0.0
 40
0
 41
0
  0
VERTEX
  8
0
 10
37.5729
 20
25.9167
 30
0.0
 40
0
 41
0
  0
VERTEX
  8
0
 10
37.5729
 20
25.9508
 30
0.0
 40
0
 41
0
  0
VERTEX
  8
0
 10
37.5867
 20
26.0531
 30
0.0
 40
0
 41
0
  0
VERTEX
  8
0
 10
37.6261
 20
26.1801
 30
0.0
 40
0
 41
0
  0
VERTEX
  8
0
 10
37.6886
 20
26.2951
 30
0.0
 40
0
 41
0
  0
VERTEX
  8
0
 10
37.7714
 20
26.3953
 30
0.0
 40
0
 41
0
  0
VERTEX
  8
0
 10
37.8715
 20
26.4781
 30
0.0
 40
0
 41
0
  0
VERTEX
  8
0
 10
37.9865
 20
26.5406
 30
0.0
 40
0
 41
0
  0
VERTEX
  8
0
 10
38.1136
 20
26.58
 30
0.0
 40
0
 41
0
  0
VERTEX
  8
0
 10
38.2158
 20
26.5938
 30
0.0
 40
0
 41
0
  0
VERTEX
  8
0
 10
38.25
 20
26.5938
 30
0.0
 40
0
 41
0
  0
SEQEND
 8
0
  0
ENDSEC
  0
EOF
