<?xml version="1.0" encoding="UTF-8" standalone="no"?>
<!DOCTYPE svg PUBLIC "-//W3C//DTD SVG 1.1//EN" "http://www.w3.org/Graphics/SVG/1.1/DTD/svg11.dtd">
<svg width="100%" height="100%" viewBox="0 0 1832 1086" version="1.1" xmlns="http://www.w3.org/2000/svg" xmlns:xlink="http://www.w3.org/1999/xlink" xml:space="preserve" xmlns:serif="http://www.serif.com/" style="fill-rule:evenodd;clip-rule:evenodd;stroke-linejoin:round;stroke-miterlimit:2;">
    <g transform="matrix(0.377953,0,0,0.377953,-197.669,-450.142)">
        <path d="M3893.73,1324.68L3894.22,1325.22C4039.44,1239.93 4208.55,1191 4389,1191C4929.32,1191 5368,1629.67 5368,2170C5368,2710.33 4929.32,3149 4389,3149C4351.83,3149 4111.56,3109 4023,3109C3650.55,3109 3326.41,3317.43 3160.95,3623.88C2985.53,3887.85 2685.44,4062 2345,4062C1997.92,4062 1692.79,3881 1518.92,3608.32C1411.46,3413.41 1239.49,3258.96 1031.93,3173.83C728.719,3007.36 523,2685.02 523,2315C523,1774.67 961.675,1336 1502,1336C1580.18,1336 1656.23,1345.18 1729.12,1362.53C1825.98,1394.63 1929.48,1412 2037,1412C2128.31,1412 2216.72,1399.47 2300.61,1376.04C2375.42,1357.72 2453.59,1348 2534,1348C2666.02,1348 2791.98,1374.19 2906.98,1421.67C2919.52,1427.49 2932.2,1433.04 2945.02,1438.34C2947.22,1439.35 2949.4,1440.38 2951.58,1441.41L2951.75,1441.09C3064.91,1486.82 3188.53,1512 3318,1512C3533.1,1512 3732.1,1442.48 3893.73,1324.68ZM2595,3730C2630.87,3730 2660,3759.13 2660,3795C2660,3830.87 2630.87,3860 2595,3860C2559.13,3860 2530,3830.87 2530,3795C2530,3759.13 2559.13,3730 2595,3730ZM2093.5,3521.5C2111.44,3521.5 2126,3536.06 2126,3554C2126,3571.94 2111.44,3586.5 2093.5,3586.5C2075.56,3586.5 2061,3571.94 2061,3554C2061,3536.06 2075.56,3521.5 2093.5,3521.5ZM2295.5,3085C2424.92,3085 2530,3190.08 2530,3319.5C2530,3448.92 2424.92,3554 2295.5,3554C2166.08,3554 2061,3448.92 2061,3319.5C2061,3190.08 2166.08,3085 2295.5,3085ZM1665,3020C1700.87,3020 1730,3049.13 1730,3085C1730,3120.87 1700.87,3150 1665,3150C1629.13,3150 1600,3120.87 1600,3085C1600,3049.13 1629.13,3020 1665,3020ZM3597.5,2490C3720.3,2490 3820,2589.7 3820,2712.5C3820,2835.3 3720.3,2935 3597.5,2935C3474.7,2935 3375,2835.3 3375,2712.5C3375,2589.7 3474.7,2490 3597.5,2490ZM3045,2790C3080.87,2790 3110,2819.13 3110,2855C3110,2890.87 3080.87,2920 3045,2920C3009.13,2920 2980,2890.87 2980,2855C2980,2819.13 3009.13,2790 3045,2790ZM4365,2790C4400.87,2790 4430,2819.13 4430,2855C4430,2890.87 4400.87,2920 4365,2920C4329.13,2920 4300,2890.87 4300,2855C4300,2819.13 4329.13,2790 4365,2790ZM2295.5,1900C2576.98,1900 2805.5,2128.52 2805.5,2410C2805.5,2691.48 2576.98,2920 2295.5,2920C2014.02,2920 1785.5,2691.48 1785.5,2410C1785.5,2128.52 2014.02,1900 2295.5,1900ZM1852.5,2790C1870.44,2790 1885,2804.56 1885,2822.5C1885,2840.44 1870.44,2855 1852.5,2855C1834.56,2855 1820,2840.44 1820,2822.5C1820,2804.56 1834.56,2790 1852.5,2790ZM845,2490C880.874,2490 910,2519.13 910,2555C910,2590.87 880.874,2620 845,2620C809.126,2620 780,2590.87 780,2555C780,2519.13 809.126,2490 845,2490ZM3852.5,2522.5C3870.44,2522.5 3885,2537.06 3885,2555C3885,2572.94 3870.44,2587.5 3852.5,2587.5C3834.56,2587.5 3820,2572.94 3820,2555C3820,2537.06 3834.56,2522.5 3852.5,2522.5ZM2880,2457.5C2897.94,2457.5 2912.5,2472.06 2912.5,2490C2912.5,2507.94 2897.94,2522.5 2880,2522.5C2862.06,2522.5 2847.5,2507.94 2847.5,2490C2847.5,2472.06 2862.06,2457.5 2880,2457.5ZM1289,2457.5C1306.94,2457.5 1321.5,2472.06 1321.5,2490C1321.5,2507.94 1306.94,2522.5 1289,2522.5C1271.06,2522.5 1256.5,2507.94 1256.5,2490C1256.5,2472.06 1271.06,2457.5 1289,2457.5ZM1430.5,1963C1559.92,1963 1665,2068.08 1665,2197.5C1665,2326.92 1559.92,2432 1430.5,2432C1301.08,2432 1196,2326.92 1196,2197.5C1196,2068.08 1301.08,1963 1430.5,1963ZM4396,1900C4542.81,1900 4662,2019.19 4662,2166C4662,2312.81 4542.81,2432 4396,2432C4249.19,2432 4130,2312.81 4130,2166C4130,2019.19 4249.19,1900 4396,1900ZM3554,1755C3700.81,1755 3820,1874.19 3820,2021C3820,2167.81 3700.81,2287 3554,2287C3407.19,2287 3288,2167.81 3288,2021C3288,1874.19 3407.19,1755 3554,1755ZM4734.5,2165C4752.44,2165 4767,2179.56 4767,2197.5C4767,2215.44 4752.44,2230 4734.5,2230C4716.56,2230 4702,2215.44 4702,2197.5C4702,2179.56 4716.56,2165 4734.5,2165ZM1818,2028C1835.94,2028 1850.5,2042.56 1850.5,2060.5C1850.5,2078.44 1835.94,2093 1818,2093C1800.06,2093 1785.5,2078.44 1785.5,2060.5C1785.5,2042.56 1800.06,2028 1818,2028ZM4097.5,1963C4115.44,1963 4130,1977.56 4130,1995.5C4130,2013.44 4115.44,2028 4097.5,2028C4079.56,2028 4065,2013.44 4065,1995.5C4065,1977.56 4079.56,1963 4097.5,1963ZM2595,1867.5C2612.94,1867.5 2627.5,1882.06 2627.5,1900C2627.5,1917.94 2612.94,1932.5 2595,1932.5C2577.06,1932.5 2562.5,1917.94 2562.5,1900C2562.5,1882.06 2577.06,1867.5 2595,1867.5ZM5005,1770C5040.87,1770 5070,1799.13 5070,1835C5070,1870.87 5040.87,1900 5005,1900C4969.13,1900 4940,1870.87 4940,1835C4940,1799.13 4969.13,1770 5005,1770ZM3288,1787.5C3305.94,1787.5 3320.5,1802.06 3320.5,1820C3320.5,1837.94 3305.94,1852.5 3288,1852.5C3270.06,1852.5 3255.5,1837.94 3255.5,1820C3255.5,1802.06 3270.06,1787.5 3288,1787.5ZM1085,1690C1120.87,1690 1150,1719.13 1150,1755C1150,1790.87 1120.87,1820 1085,1820C1049.13,1820 1020,1790.87 1020,1755C1020,1719.13 1049.13,1690 1085,1690ZM1755,1570C1790.87,1570 1820,1599.13 1820,1635C1820,1670.87 1790.87,1700 1755,1700C1719.13,1700 1690,1670.87 1690,1635C1690,1599.13 1719.13,1570 1755,1570ZM2815,1570C2850.87,1570 2880,1599.13 2880,1635C2880,1670.87 2850.87,1700 2815,1700C2779.13,1700 2750,1670.87 2750,1635C2750,1599.13 2779.13,1570 2815,1570ZM4195,1510C4230.87,1510 4260,1539.13 4260,1575C4260,1610.87 4230.87,1640 4195,1640C4159.13,1640 4130,1610.87 4130,1575C4130,1539.13 4159.13,1510 4195,1510Z" style="fill:rgb(9,9,9);"/>
    </g>
</svg>
